<svg width="1200" height="719.9999999999999" xmlns="http://www.w3.org/2000/svg" xmlns:xlink="http://www.w3.org/1999/xlink" version="1.2">
 <g id="Layer_1">
  <title>Layer 1</title>
  <g transform="rotate(-8.45388 957.703 206.726)" id="svg_225" stroke="null">
   <defs transform="translate(-3.07693 56.9233) translate(1.53847 -47.6925) translate(15.7124 2.85679) translate(-12.8556 9.99877) translate(12.8556 31.4247) translate(401.379 -125.699) translate(600 0) translate(0 360) translate(881.879 66.8012) scale(0.683243 0.683243) translate(-881.879 -66.8012) translate(1309.54 143.764) scale(0.755075 0.755075) translate(-1309.54 -143.764)" stroke="null">
    <symbol id="svg_247" viewBox="-600 -600 1200 1200" preserveAspectRatio="xMinYMid" stroke="null">
     <path id="svg_226" d="m0,-500c100,250 355,400 355,685a150,150 0 0 1 -300,0a10,10 0 0 0 -20,0c0,200 50,215 95,315l-260,0c45,-100 95,-115 95,-315a10,10 0 0 0 -20,0a150,150 0 0 1 -300,0c0,-285 255,-435 355,-685z" stroke="null"/>
    </symbol>
    <symbol id="svg_248" viewBox="-500 -500 1000 1000" preserveAspectRatio="xMinYMid" stroke="null">
     <path id="svg_227" d="m-285,-460l200,0m-100,0l0,920m-100,0l200,0m170,-920l200,0m-100,20l-355,595m255,305l200,0m-100,-20l-195,-510" stroke-width="80" stroke-linecap="square" stroke-miterlimit="1.5" fill="none" stroke="black"/>
    </symbol>
   </defs>
   <rect id="svg_228" width="123.29995" height="172.82629" x="896.05306" y="120.31224" rx="12" ry="12" fill="white" stroke="black"/>
   <use id="svg_229" height="164.8" width="164.8" x="934.81258" y="215.7873" xlink:href="#svg_248" transform="matrix(0.515899 0 0 0.515899 432.924 52.8908)" stroke="null"/>
   <use id="svg_230" xlink:href="#svg_248" height="32" width="32" x="902.81258" y="142.1873" transform="matrix(0.515899 0 0 0.515899 432.924 52.8908)" stroke="null"/>
   <use id="svg_231" xlink:href="#svg_247" height="26.769" width="26.769" x="905.42858" y="179.1873" fill="black" href="#svg_247" transform="matrix(0.515899 0 0 0.515899 432.924 52.8908)" stroke="null"/>
   <g id="svg_232" transform="matrix(-0.515899 0 0 -0.515899 1463.29 281.787)" stroke="null">
    <use id="svg_233" xlink:href="#svg_248" height="32" width="32" x="865.60828" y="-10.50368" href="#svg_248" stroke="null"/>
    <use id="svg_234" xlink:href="#svg_247" height="26.769" width="26.769" x="868.22428" y="26.49632" fill="black" href="#svg_247" stroke="null"/>
   </g>
  </g>
  <g transform="rotate(-7.03129 61.1762 12.8521)" id="svg_7" stroke="null">
   <defs transform="translate(-3.07693 56.9233) translate(1.53847 -47.6925) translate(1.4284 1.4284) translate(-4.28519 -38.5667) translate(-1.4284 1.4284) translate(20 8.33334) translate(-392 -88) translate(0 2) translate(500 0) translate(0 202.5) translate(380.5 37) scale(0.48954 0.48954) translate(-380.5 -37)" stroke="null">
    <symbol id="svg_1" viewBox="-600 -600 1200 1200" preserveAspectRatio="xMinYMid" stroke="null">
     <path id="svg_8" d="m30,150c5,235 55,250 100,350l-260,0c45,-100 95,-115 100,-350a10,10 0 0 0 -20,0a210,210 0 1 1 -74,-201a10,10 0 0 0 14,-14a230,230 0 1 1 220,0a10,10 0 0 0 14,14a210,210 0 1 1 -74,201a10,10 0 0 0 -20,0z" stroke="null"/>
    </symbol>
    <symbol id="svg_2" viewBox="-500 -500 1000 1000" preserveAspectRatio="xMinYMid" stroke="null">
     <path id="svg_9" d="m-250,-320l0,-140l450,0l-310,380c10,-10 60,-40 110,-40c200,0 250,120 250,270c0,200 -80,310 -280,310c-200,0 -230,-160 -230,-160" stroke-width="80" stroke-linecap="square" stroke-miterlimit="1.5" fill="none" stroke="black"/>
    </symbol>
   </defs>
   <rect id="svg_10" width="116.99997" height="163.99577" x="2.67626" y="-69.14577" rx="12" ry="12" fill="white" stroke="black"/>
   <use id="svg_11" xlink:href="#svg_2" height="32" width="32" x="-427.27355" y="-90.84535" href="#svg_2" stroke="null" transform="matrix(0.48954 0 0 0.48954 214.34 -19.0438)"/>
   <use id="svg_12" xlink:href="#svg_1" height="26.769" width="26.769" x="-424.65755" y="-53.84535" fill="black" href="#svg_1" stroke="null" transform="matrix(0.48954 0 0 0.48954 214.34 -19.0438)"/>
   <use id="svg_13" xlink:href="#svg_1" height="70" width="70" x="-347.87355" y="-70.43335" href="#svg_1" stroke="null" transform="matrix(0.48954 0 0 0.48954 214.34 -19.0438)"/>
   <use id="svg_14" xlink:href="#svg_1" height="70" width="70" x="-347.87355" y="30.15465" href="#svg_1" stroke="null" transform="matrix(0.48954 0 0 0.48954 214.34 -19.0438)"/>
   <g id="svg_15" transform="matrix(-0.48954 0 0 -0.48954 683.77 219.109)" stroke="null">
    <use id="svg_16" xlink:href="#svg_2" height="32" width="32" x="1157.39399" y="265.32772" href="#svg_2" stroke="null"/>
    <use id="svg_17" xlink:href="#svg_1" height="26.769" width="26.769" x="1160.00999" y="302.32772" fill="black" href="#svg_1" stroke="null"/>
    <use id="svg_18" xlink:href="#svg_1" height="70" width="70" x="1236.79399" y="285.73972" href="#svg_1" stroke="null"/>
   </g>
  </g>
  <g id="svg_19" stroke="null">
   <defs transform="translate(-3.07693 56.9233) translate(1.53847 -47.6925) translate(-2 0) translate(-122 -30) translate(-6 0) translate(402 -200) translate(600 0) translate(0 360) translate(876.5 -7.50005) scale(0.623431 0.623431) translate(-876.5 7.50005) translate(1207.03 -60.1511) scale(0.798658 0.798658) translate(-1207.03 60.1511)" stroke="null">
    <symbol id="svg_5" viewBox="-600 -600 1200 1200" preserveAspectRatio="xMinYMid" stroke="null">
     <path id="svg_20" d="m-400,0c50,0 400,-450 400,-500c0,50 350,500 400,500c-50,0 -400,450 -400,500c0,-50 -350,-500 -400,-500z" stroke="null"/>
    </symbol>
    <symbol id="svg_6" viewBox="-500 -500 1000 1000" preserveAspectRatio="xMinYMid" stroke="null">
     <path id="svg_21" d="m50,-460l200,0m-100,0l0,710a100,100 0 0 1 -400,0l0,-30" stroke-width="80" stroke-linecap="square" stroke-miterlimit="1.5" fill="none" stroke="black"/>
    </symbol>
   </defs>
   <rect id="svg_22" width="118.99995" height="166.79909" x="750.96158" y="-28.26925" rx="12" ry="12" fill="white" stroke="black"/>
   <use id="svg_23" xlink:href="#svg_6" height="164.8" width="164.8" x="708.52094" y="143.80397" href="#svg_6" transform="matrix(0.497908 0 0 0.497908 416.655 -57.4984)" stroke="null"/>
   <use id="svg_24" xlink:href="#svg_6" height="32" width="32" x="676.52094" y="70.20397" href="#svg_6" transform="matrix(0.497908 0 0 0.497908 416.655 -57.4984)" stroke="null"/>
   <use id="svg_25" xlink:href="#svg_5" height="26.769" width="26.769" x="679.13694" y="107.20397" stroke-width="100" stroke-linejoin="round" stroke-linecap="round" href="#svg_5" transform="matrix(0.497908 0 0 0.497908 416.655 -57.4984)" stroke="black"/>
   <use id="svg_26" xlink:href="#svg_5" height="26.769" width="26.769" x="679.13694" y="107.20397" fill="#000000" href="#svg_5" transform="matrix(0.497908 0 0 0.497908 416.655 -57.4984)" stroke="null"/>
   <g id="svg_27" transform="matrix(-0.497908 0 0 -0.497908 1406.95 149.524)" stroke="null">
    <use id="svg_28" xlink:href="#svg_6" height="32" width="32" x="1083.58938" y="33.58161" href="#svg_6" stroke="null"/>
    <use id="svg_29" xlink:href="#svg_5" height="26.769" width="26.769" x="1086.20538" y="70.58161" stroke-width="100" stroke-linejoin="round" stroke-linecap="round" href="#svg_5" stroke="black"/>
    <use id="svg_30" xlink:href="#svg_5" height="26.769" width="26.769" x="1086.20538" y="70.58161" fill="#000000" href="#svg_5" stroke="null"/>
   </g>
  </g>
  <g transform="rotate(17.1042 742.375 166.66)" id="svg_31" stroke="null">
   <defs transform="translate(-3.07693 56.9233) translate(1.53847 -47.6925) translate(-160 36) translate(9.80007 -4.98331) translate(-12 6) translate(-56 30) translate(530 72) translate(8.89038 -5.57695) translate(-104 -234) translate(600 0) translate(0 360) translate(376.5 -41.5001) scale(0.570637 0.570637) translate(-376.5 41.5001) translate(1484.99 106.763) scale(0.685164 0.685164) translate(-1484.99 -106.763)" stroke="null">
    <symbol id="svg_3" viewBox="-600 -600 1200 1200" preserveAspectRatio="xMinYMid" stroke="null">
     <path id="svg_32" d="m0,-300c0,-100 100,-200 200,-200c100,0 200,100 200,250c0,250 -400,650 -400,750c0,-100 -400,-500 -400,-750c0,-150 100,-250 200,-250c100,0 200,100 200,200z" stroke="null"/>
    </symbol>
    <symbol id="svg_4" viewBox="-500 -500 1000 1000" preserveAspectRatio="xMinYMid" stroke="null">
     <path id="svg_33" d="m-250,100a250,250 0 0 1 500,0l0,110a250,250 0 0 1 -500,0l0,-420a250,250 0 0 1 250,-250c150,0 180,60 200,85" stroke-width="80" stroke-linecap="square" stroke-miterlimit="1.5" fill="none" stroke="black"/>
    </symbol>
   </defs>
   <rect id="svg_34" width="93.44411" height="130.97815" x="695.65201" y="101.17051" rx="12" ry="12" fill="white" stroke="black"/>
   <use id="svg_35" xlink:href="#svg_4" height="32" width="32" x="818.70398" y="252.42925" href="#svg_4" transform="matrix(0.39098 0 0 0.39098 377.549 6.97209)" stroke="null"/>
   <use id="svg_36" xlink:href="#svg_3" height="26.769" width="26.769" x="821.31998" y="289.42925" stroke-width="100" stroke-linejoin="round" stroke-linecap="round" href="#svg_3" transform="matrix(0.39098 0 0 0.39098 377.549 6.97209)" stroke="black"/>
   <use id="svg_37" xlink:href="#svg_3" height="26.769" width="26.769" x="821.31998" y="289.42925" fill="#000000" href="#svg_3" transform="matrix(0.39098 0 0 0.39098 377.549 6.97209)" stroke="null"/>
   <use id="svg_38" xlink:href="#svg_3" height="70" width="70" x="845.60298" y="272.92825" href="#svg_3" transform="matrix(0.39098 0 0 0.39098 377.549 6.97209)" stroke="null"/>
   <use id="svg_39" xlink:href="#svg_3" height="70" width="70" x="950.60498" y="272.92825" href="#svg_3" transform="matrix(0.39098 0 0 0.39098 377.549 6.97209)" stroke="null"/>
   <use id="svg_40" xlink:href="#svg_3" height="70" width="70" x="845.60298" y="373.42925" href="#svg_3" transform="matrix(0.39098 0 0 0.39098 377.549 6.97209)" stroke="null"/>
   <use id="svg_41" xlink:href="#svg_3" height="70" width="70" x="950.60498" y="373.42925" href="#svg_3" transform="matrix(0.39098 0 0 0.39098 377.549 6.97209)" stroke="null"/>
   <g id="svg_42" transform="matrix(-0.39098 0 0 -0.39098 765.401 105.499)" stroke="null">
    <use id="svg_43" xlink:href="#svg_4" height="32" width="32" x="-55.504" y="-312.42937" href="#svg_4" stroke="null"/>
    <use id="svg_44" xlink:href="#svg_3" height="26.769" width="26.769" x="-52.888" y="-275.42937" stroke-width="100" stroke-linejoin="round" stroke-linecap="round" href="#svg_3" stroke="black"/>
    <use id="svg_45" xlink:href="#svg_3" height="26.769" width="26.769" x="-52.888" y="-275.42937" fill="#000000" href="#svg_3" stroke="null"/>
    <use id="svg_46" xlink:href="#svg_3" height="70" width="70" x="-28.605" y="-291.93037" href="#svg_3" stroke="null"/>
    <use id="svg_47" xlink:href="#svg_3" height="70" width="70" x="76.397" y="-291.93037" href="#svg_3" stroke="null"/>
   </g>
  </g>
  <g transform="rotate(20.9371 1128.46 76.1135)" stroke="null" id="svg_64">
   <defs stroke="null" transform="translate(-3.07693 56.9233) translate(1.53847 -47.6925) translate(-40 0) translate(180 -46.6667) translate(460 -148.333) translate(600 0) translate(0 360) translate(940.5 44.1666) scale(0.414226 0.414226) translate(-940.5 -44.1666)">
    <symbol stroke="null" preserveAspectRatio="xMinYMid" viewBox="-600 -600 1200 1200" id="svg_48">
     <path stroke="null" d="m0,-500c100,250 355,400 355,685a150,150 0 0 1 -300,0a10,10 0 0 0 -20,0c0,200 50,215 95,315l-260,0c45,-100 95,-115 95,-315a10,10 0 0 0 -20,0a150,150 0 0 1 -300,0c0,-285 255,-435 355,-685z" id="svg_65"/>
    </symbol>
    <symbol stroke="null" preserveAspectRatio="xMinYMid" viewBox="-500 -500 1000 1000" id="svg_49">
     <path stroke="black" fill="none" stroke-miterlimit="1.5" stroke-linecap="square" stroke-width="80" d="m-225,-225c-20,-40 25,-235 225,-235c200,0 225,135 225,235c0,200 -450,385 -450,685l450,0l0,-160" id="svg_70"/>
    </symbol>
   </defs>
   <rect stroke="black" fill="white" ry="12" rx="12" y="6.73073" x="1078.96171" height="138.76563" width="98.99996" id="svg_71"/>
   <use stroke="null" transform="matrix(0.414226 0 0 0.414226 730.921 -20.795)" href="#svg_49" y="77.95107" x="845.32035" width="32" height="32" xlink:href="#svg_49" id="svg_72"/>
   <use stroke="null" transform="matrix(0.414226 0 0 0.414226 730.921 -20.795)" href="#svg_48" fill="black" y="114.95107" x="847.93635" width="26.769" height="26.769" xlink:href="#svg_48" id="svg_73"/>
   <use stroke="null" transform="matrix(0.414226 0 0 0.414226 730.921 -20.795)" href="#svg_48" y="98.45007" x="924.72035" width="70" height="70" xlink:href="#svg_48" id="svg_74"/>
   <g stroke="null" transform="matrix(-0.414226 0 0 -0.414226 1429.08 201.227)" id="svg_75">
    <use stroke="null" href="#svg_49" y="146.04217" x="611.33415" width="32" height="32" xlink:href="#svg_49" id="svg_76"/>
    <use stroke="null" href="#svg_48" fill="black" y="183.04217" x="613.95015" width="26.769" height="26.769" xlink:href="#svg_48" id="svg_77"/>
    <use stroke="null" href="#svg_48" y="166.54117" x="690.73415" width="70" height="70" xlink:href="#svg_48" id="svg_78"/>
   </g>
  </g>
  <g stroke="null" id="svg_79">
   <defs stroke="null" transform="translate(-3.07693 56.9233) translate(1.53847 -47.6925) translate(-9.99877 2.85679) translate(-51.4222 -15.7124) translate(10 -8.33334) translate(-113.333 48.3334) translate(-208.333 -236.667) translate(600 0) translate(0 360) translate(272.167 -44.1667) scale(0.637378 0.637378) translate(-272.167 44.1667)">
    <symbol stroke="null" preserveAspectRatio="xMinYMid" viewBox="-600 -600 1200 1200" id="svg_50">
     <path stroke="null" d="m-400,0c50,0 400,-450 400,-500c0,50 350,500 400,500c-50,0 -400,450 -400,500c0,-50 -350,-500 -400,-500z" id="svg_80"/>
    </symbol>
    <symbol stroke="null" preserveAspectRatio="xMinYMid" viewBox="-500 -500 1000 1000" id="svg_51">
     <path stroke="black" fill="none" stroke-miterlimit="1.5" stroke-linecap="square" stroke-width="80" d="m50,460l200,0m-100,0l0,-920l-450,635l0,25l570,0" id="svg_81"/>
    </symbol>
   </defs>
   <rect stroke="black" fill="white" ry="12" rx="12" y="-7.79149" x="105.87375" height="213.52158" width="152.33331" id="svg_82"/>
   <use transform="matrix(0.637378 0 0 0.637378 98.6936 -16.0158)" stroke="null" href="#svg_51" y="24.40341" x="16.3651" width="32" height="32" xlink:href="#svg_51" id="svg_83"/>
   <use transform="matrix(0.637378 0 0 0.637378 98.6936 -16.0158)" stroke="black" href="#svg_50" stroke-linecap="round" stroke-linejoin="round" stroke-width="100" y="61.40341" x="18.9811" width="26.769" height="26.769" xlink:href="#svg_50" id="svg_84"/>
   <use transform="matrix(0.637378 0 0 0.637378 98.6936 -16.0158)" stroke="null" href="#svg_50" fill="#000000" y="61.40341" x="18.9811" width="26.769" height="26.769" xlink:href="#svg_50" id="svg_85"/>
   <use transform="matrix(0.637378 0 0 0.637378 98.6936 -16.0158)" stroke="null" href="#svg_50" y="44.90241" x="43.2641" width="70" height="70" xlink:href="#svg_50" id="svg_86"/>
   <use transform="matrix(0.637378 0 0 0.637378 98.6936 -16.0158)" stroke="null" href="#svg_50" y="44.90241" x="148.2661" width="70" height="70" xlink:href="#svg_50" id="svg_87"/>
   <g stroke="null" transform="matrix(-0.637378 0 0 -0.637378 597.973 141.204)" id="svg_88">
    <use stroke="null" href="#svg_51" y="-89.7369" x="538.16809" width="32" height="32" xlink:href="#svg_51" id="svg_89"/>
    <use stroke="black" href="#svg_50" stroke-linecap="round" stroke-linejoin="round" stroke-width="100" y="-52.7369" x="540.78409" width="26.769" height="26.769" xlink:href="#svg_50" id="svg_90"/>
    <use stroke="null" href="#svg_50" fill="#000000" y="-52.7369" x="540.78409" width="26.769" height="26.769" xlink:href="#svg_50" id="svg_91"/>
    <use stroke="null" href="#svg_50" y="-69.2379" x="565.06709" width="70" height="70" xlink:href="#svg_50" id="svg_92"/>
    <use stroke="null" href="#svg_50" y="-69.2379" x="670.06909" width="70" height="70" xlink:href="#svg_50" id="svg_93"/>
   </g>
  </g>
  <g transform="rotate(10.7888 61.0039 142.955)" stroke="null" id="svg_94">
   <defs stroke="null" transform="translate(-3.07693 56.9233) translate(1.53847 -47.6925) translate(-67.1346 -12.8556) translate(23.3333 -6.66667) translate(-2.53261 -2.18247) translate(-331.667 -13.3333) translate(-3.54537 3.10139) translate(-20 -65) translate(-66.6667 -61.6667) translate(600 0) translate(0 360) translate(413.833 130.833) scale(0.637378 0.637378) translate(-413.833 -130.833) translate(617.896 103.288) scale(0.794906 0.799227) translate(-617.896 -103.288) translate(115.702 444.149) scale(0.830048 0.830048) translate(-115.702 -444.149)">
    <symbol stroke="null" preserveAspectRatio="xMinYMid" viewBox="-600 -600 1200 1200" id="svg_52">
     <path stroke="null" d="m0,-300c0,-100 100,-200 200,-200c100,0 200,100 200,250c0,250 -400,650 -400,750c0,-100 -400,-500 -400,-750c0,-150 100,-250 200,-250c100,0 200,100 200,200z" id="svg_95"/>
    </symbol>
    <symbol stroke="null" preserveAspectRatio="xMinYMid" viewBox="-500 -500 1000 1000" id="svg_53">
     <path stroke="black" fill="none" stroke-miterlimit="1.5" stroke-linecap="square" stroke-width="80" d="m170,-460l-345,0l-35,345c0,0 10,-85 210,-85c100,0 255,120 255,320c0,200 -75,340 -275,340c-200,0 -235,-175 -235,-175" id="svg_96"/>
    </symbol>
   </defs>
   <rect stroke="black" fill="white" ry="12" rx="12" y="72.13017" x="10.74882" height="141.64941" width="100.51105" id="svg_97"/>
   <use stroke="null" transform="matrix(0.420548 0 0 0.422834 107.893 18.1665)" href="#svg_53" y="139.12357" x="-225.89595" width="32" height="32" xlink:href="#svg_53" id="svg_98"/>
   <use stroke="black" transform="matrix(0.420548 0 0 0.422834 107.893 18.1665)" href="#svg_52" stroke-linecap="round" stroke-linejoin="round" stroke-width="100" y="176.12357" x="-223.27995" width="26.769" height="26.769" xlink:href="#svg_52" id="svg_99"/>
   <use stroke="null" transform="matrix(0.420548 0 0 0.422834 107.893 18.1665)" href="#svg_52" fill="#000000" y="176.12357" x="-223.27995" width="26.769" height="26.769" xlink:href="#svg_52" id="svg_100"/>
   <use stroke="null" transform="matrix(0.420548 0 0 0.422834 107.893 18.1665)" href="#svg_52" y="159.62257" x="-198.99695" width="70" height="70" xlink:href="#svg_52" id="svg_101"/>
   <use stroke="null" transform="matrix(0.420548 0 0 0.422834 107.893 18.1665)" href="#svg_52" y="159.62257" x="-93.99495" width="70" height="70" xlink:href="#svg_52" id="svg_102"/>
   <use stroke="null" transform="matrix(0.420548 0 0 0.422834 107.893 18.1665)" href="#svg_52" y="260.12357" x="-146.49595" width="70" height="70" xlink:href="#svg_52" id="svg_103"/>
   <g stroke="null" transform="matrix(-0.420548 0 0 -0.422834 624.607 333.188)" id="svg_104">
    <use stroke="null" href="#svg_53" y="293.90027" x="1225.76249" width="32" height="32" xlink:href="#svg_53" id="svg_105"/>
    <use stroke="black" href="#svg_52" stroke-linecap="round" stroke-linejoin="round" stroke-width="100" y="330.90027" x="1228.37849" width="26.769" height="26.769" xlink:href="#svg_52" id="svg_106"/>
    <use stroke="null" href="#svg_52" fill="#000000" y="330.90027" x="1228.37849" width="26.769" height="26.769" xlink:href="#svg_52" id="svg_107"/>
    <use stroke="null" href="#svg_52" y="314.39927" x="1252.66149" width="70" height="70" xlink:href="#svg_52" id="svg_108"/>
    <use stroke="null" href="#svg_52" y="314.39927" x="1357.66349" width="70" height="70" xlink:href="#svg_52" id="svg_109"/>
   </g>
  </g>
  <g transform="rotate(-12.6397 343.039 91.8865)" stroke="null" id="svg_110">
   <defs stroke="null" transform="translate(-3.07693 56.9233) translate(1.53847 -47.6925) translate(-132.841 -28.5679) translate(0 -1.4284) translate(-7.54365 6.75077) translate(45 -75) translate(-133.333 -141.667) translate(600 0) translate(0 360) translate(392.167 -24.1667) scale(0.776525 0.776525) translate(-392.167 24.1667)">
    <symbol stroke="null" preserveAspectRatio="xMinYMid" viewBox="-600 -600 1200 1200" id="svg_54">
     <path stroke="null" d="m30,150c5,235 55,250 100,350l-260,0c45,-100 95,-115 100,-350a10,10 0 0 0 -20,0a210,210 0 1 1 -74,-201a10,10 0 0 0 14,-14a230,230 0 1 1 220,0a10,10 0 0 0 14,14a210,210 0 1 1 -74,201a10,10 0 0 0 -20,0z" id="svg_111"/>
    </symbol>
    <symbol stroke="null" preserveAspectRatio="xMinYMid" viewBox="-500 -500 1000 1000" id="svg_55">
     <path stroke="black" fill="none" stroke-miterlimit="1.5" stroke-linecap="square" stroke-width="80" d="m-250,100a250,250 0 0 1 500,0l0,110a250,250 0 0 1 -500,0l0,-420a250,250 0 0 1 250,-250c150,0 180,60 200,85" id="svg_112"/>
    </symbol>
   </defs>
   <rect stroke="black" fill="white" ry="12" rx="12" y="-38.18148" x="250.24371" height="260.136" width="185.58957" id="svg_113"/>
   <use transform="matrix(0.776525 0 0 0.776525 87.6393 -5.40065)" stroke="null" href="#svg_55" y="-30.71476" x="214.49994" width="32" height="32" xlink:href="#svg_55" id="svg_114"/>
   <use transform="matrix(0.776525 0 0 0.776525 87.6393 -5.40065)" stroke="null" href="#svg_54" fill="black" y="6.28524" x="217.11594" width="26.769" height="26.769" xlink:href="#svg_54" id="svg_115"/>
   <use transform="matrix(0.776525 0 0 0.776525 87.6393 -5.40065)" stroke="null" href="#svg_54" y="-10.30276" x="241.39894" width="70" height="70" xlink:href="#svg_54" id="svg_116"/>
   <use transform="matrix(0.776525 0 0 0.776525 87.6393 -5.40065)" stroke="null" href="#svg_54" y="-10.30276" x="346.40094" width="70" height="70" xlink:href="#svg_54" id="svg_117"/>
   <use transform="matrix(0.776525 0 0 0.776525 87.6393 -5.40065)" stroke="null" href="#svg_54" y="90.28524" x="241.39894" width="70" height="70" xlink:href="#svg_54" id="svg_118"/>
   <use transform="matrix(0.776525 0 0 0.776525 87.6393 -5.40065)" stroke="null" href="#svg_54" y="90.28524" x="346.40094" width="70" height="70" xlink:href="#svg_54" id="svg_119"/>
   <g stroke="null" transform="matrix(-0.776525 0 0 -0.776525 882.284 217.203)" id="svg_120">
    <use stroke="null" href="#svg_55" y="5.38128" x="580.03334" width="32" height="32" xlink:href="#svg_55" id="svg_121"/>
    <use stroke="null" href="#svg_54" fill="black" y="42.38128" x="582.64934" width="26.769" height="26.769" xlink:href="#svg_54" id="svg_122"/>
    <use stroke="null" href="#svg_54" y="25.79328" x="606.93234" width="70" height="70" xlink:href="#svg_54" id="svg_123"/>
    <use stroke="null" href="#svg_54" y="25.79328" x="711.93434" width="70" height="70" xlink:href="#svg_54" id="svg_124"/>
   </g>
  </g>
  <g stroke="null" id="svg_125">
   <defs stroke="null" transform="translate(-3.07693 56.9233) translate(1.53847 -47.6925) translate(33.3333 36.6667) translate(495 -173.333) translate(600 0) translate(0 360) translate(480.5 192.5) scale(0.637378 0.637378) translate(-480.5 -192.5) translate(1530.49 30.071) scale(0.737418 0.737418) translate(-1530.49 -30.071)">
    <symbol stroke="null" preserveAspectRatio="xMinYMid" viewBox="-600 -600 1200 1200" id="svg_56">
     <path stroke="null" d="m-400,0c50,0 400,-450 400,-500c0,50 350,500 400,500c-50,0 -400,450 -400,500c0,-50 -350,-500 -400,-500z" id="svg_126"/>
    </symbol>
    <symbol stroke="null" preserveAspectRatio="xMinYMid" viewBox="-500 -500 1000 1000" id="svg_57">
     <path stroke="black" fill="none" stroke-miterlimit="1.5" stroke-linecap="square" stroke-width="80" d="m-265,-320l0,-140l530,0c-130,260 -355,560 -355,920" id="svg_127"/>
    </symbol>
   </defs>
   <rect stroke="black" fill="white" ry="12" rx="12" y="65.06409" x="1007.29506" height="157.45462" width="112.3333" id="svg_128"/>
   <use stroke="null" transform="matrix(0.470014 0 0 0.470014 384.637 56.5081)" href="#svg_57" y="29.70372" x="1329.86637" width="32" height="32" xlink:href="#svg_57" id="svg_129"/>
   <use stroke="black" transform="matrix(0.470014 0 0 0.470014 384.637 56.5081)" href="#svg_56" stroke-linecap="round" stroke-linejoin="round" stroke-width="100" y="66.70372" x="1332.48237" width="26.769" height="26.769" xlink:href="#svg_56" id="svg_130"/>
   <use stroke="null" transform="matrix(0.470014 0 0 0.470014 384.637 56.5081)" href="#svg_56" fill="#000000" y="66.70372" x="1332.48237" width="26.769" height="26.769" xlink:href="#svg_56" id="svg_131"/>
   <use stroke="null" transform="matrix(0.470014 0 0 0.470014 384.637 56.5081)" href="#svg_56" y="50.20272" x="1356.76537" width="70" height="70" xlink:href="#svg_56" id="svg_132"/>
   <use stroke="null" transform="matrix(0.470014 0 0 0.470014 384.637 56.5081)" href="#svg_56" y="50.20272" x="1461.76737" width="70" height="70" xlink:href="#svg_56" id="svg_133"/>
   <use stroke="null" transform="matrix(0.470014 0 0 0.470014 384.637 56.5081)" href="#svg_56" y="150.70372" x="1356.76537" width="70" height="70" xlink:href="#svg_56" id="svg_134"/>
   <use stroke="null" transform="matrix(0.470014 0 0 0.470014 384.637 56.5081)" href="#svg_56" y="150.70372" x="1461.76737" width="70" height="70" xlink:href="#svg_56" id="svg_135"/>
   <use stroke="null" transform="matrix(0.470014 0 0 0.470014 384.637 56.5081)" href="#svg_56" y="100.45372" x="1409.26637" width="70" height="70" xlink:href="#svg_56" id="svg_136"/>
   <g stroke="null" transform="matrix(-0.470014 0 0 -0.470014 948.653 394.918)" id="svg_137">
    <use stroke="null" href="#svg_57" y="378.29626" x="-358.66639" width="32" height="32" xlink:href="#svg_57" id="svg_138"/>
    <use stroke="black" href="#svg_56" stroke-linecap="round" stroke-linejoin="round" stroke-width="100" y="415.29626" x="-356.05039" width="26.769" height="26.769" xlink:href="#svg_56" id="svg_139"/>
    <use stroke="null" href="#svg_56" fill="#000000" y="415.29626" x="-356.05039" width="26.769" height="26.769" xlink:href="#svg_56" id="svg_140"/>
    <use stroke="null" href="#svg_56" y="398.79526" x="-331.76739" width="70" height="70" xlink:href="#svg_56" id="svg_141"/>
    <use stroke="null" href="#svg_56" y="398.79526" x="-226.76539" width="70" height="70" xlink:href="#svg_56" id="svg_142"/>
   </g>
  </g>
  <g stroke="null" id="svg_143">
   <defs stroke="null" transform="translate(-3.07693 56.9233) translate(1.53847 -47.6925) translate(31.6667 -141.667) translate(51.6667 -138.333) translate(600 0) translate(0 360) translate(532.167 54.1666) scale(0.672245 0.672245) translate(-532.167 -54.1666)">
    <symbol stroke="null" preserveAspectRatio="xMinYMid" viewBox="-600 -600 1200 1200" id="svg_58">
     <path stroke="null" d="m0,-300c0,-100 100,-200 200,-200c100,0 200,100 200,250c0,250 -400,650 -400,750c0,-100 -400,-500 -400,-750c0,-150 100,-250 200,-250c100,0 200,100 200,200z" id="svg_144"/>
    </symbol>
    <symbol stroke="null" preserveAspectRatio="xMinYMid" viewBox="-500 -500 1000 1000" id="svg_59">
     <path stroke="black" fill="none" stroke-miterlimit="1.5" stroke-linecap="square" stroke-width="80" d="m-1,-50a205,205 0 1 1 2,0l-2,0a255,255 0 1 0 2,0l-2,0z" id="svg_145"/>
    </symbol>
   </defs>
   <rect stroke="black" fill="white" ry="12" rx="12" y="-78.26929" x="562.29489" height="225.2022" width="160.66665" id="svg_146"/>
   <use transform="matrix(0.672245 0 0 0.672245 174.42 17.7534)" stroke="null" href="#svg_59" y="-131.33869" x="582.08396" width="32" height="32" xlink:href="#svg_59" id="svg_147"/>
   <use transform="matrix(0.672245 0 0 0.672245 174.42 17.7534)" stroke="black" href="#svg_58" stroke-linecap="round" stroke-linejoin="round" stroke-width="100" y="-94.33869" x="584.69996" width="26.769" height="26.769" xlink:href="#svg_58" id="svg_148"/>
   <use transform="matrix(0.672245 0 0 0.672245 174.42 17.7534)" stroke="null" href="#svg_58" fill="#000000" y="-94.33869" x="584.69996" width="26.769" height="26.769" xlink:href="#svg_58" id="svg_149"/>
   <use transform="matrix(0.672245 0 0 0.672245 174.42 17.7534)" stroke="null" href="#svg_58" y="-110.83969" x="608.98296" width="70" height="70" xlink:href="#svg_58" id="svg_150"/>
   <use transform="matrix(0.672245 0 0 0.672245 174.42 17.7534)" stroke="null" href="#svg_58" y="-110.83969" x="713.98496" width="70" height="70" xlink:href="#svg_58" id="svg_151"/>
   <use transform="matrix(0.672245 0 0 0.672245 174.42 17.7534)" stroke="null" href="#svg_58" y="-60.58869" x="661.48396" width="70" height="70" xlink:href="#svg_58" id="svg_152"/>
   <use transform="matrix(0.672245 0 0 0.672245 174.42 17.7534)" stroke="null" href="#svg_58" y="-10.33869" x="608.98296" width="70" height="70" xlink:href="#svg_58" id="svg_153"/>
   <use transform="matrix(0.672245 0 0 0.672245 174.42 17.7534)" stroke="null" href="#svg_58" y="-10.33869" x="713.98496" width="70" height="70" xlink:href="#svg_58" id="svg_154"/>
   <g stroke="null" transform="matrix(-0.672245 0 0 -0.672245 1050.58 315.782)" id="svg_155">
    <use stroke="null" href="#svg_59" y="262.67193" x="492.4494" width="32" height="32" xlink:href="#svg_59" id="svg_156"/>
    <use stroke="black" href="#svg_58" stroke-linecap="round" stroke-linejoin="round" stroke-width="100" y="299.67193" x="495.0654" width="26.769" height="26.769" xlink:href="#svg_58" id="svg_157"/>
    <use stroke="null" href="#svg_58" fill="#000000" y="299.67193" x="495.0654" width="26.769" height="26.769" xlink:href="#svg_58" id="svg_158"/>
    <use stroke="null" href="#svg_58" y="283.17093" x="519.3484" width="70" height="70" xlink:href="#svg_58" id="svg_159"/>
    <use stroke="null" href="#svg_58" y="283.17093" x="624.3504" width="70" height="70" xlink:href="#svg_58" id="svg_160"/>
    <use stroke="null" href="#svg_58" y="333.42193" x="571.8494" width="70" height="70" xlink:href="#svg_58" id="svg_161"/>
   </g>
  </g>
  <g transform="rotate(-17.8408 946.795 64.161)" stroke="null" id="svg_162">
   <defs stroke="null" transform="translate(-3.07693 56.9233) translate(1.53847 -47.6925) translate(390 -246.667) translate(600 0) translate(0 360) translate(480.5 192.5) scale(0.651325 0.651325) translate(-480.5 -192.5)">
    <symbol stroke="null" preserveAspectRatio="xMinYMid" viewBox="-600 -600 1200 1200" id="svg_60">
     <path stroke="null" d="m0,-500c100,250 355,400 355,685a150,150 0 0 1 -300,0a10,10 0 0 0 -20,0c0,200 50,215 95,315l-260,0c45,-100 95,-115 95,-315a10,10 0 0 0 -20,0a150,150 0 0 1 -300,0c0,-285 255,-435 355,-685z" id="svg_163"/>
    </symbol>
    <symbol stroke="null" preserveAspectRatio="xMinYMid" viewBox="-500 -500 1000 1000" id="svg_61">
     <path stroke="black" fill="none" stroke-miterlimit="1.5" stroke-linecap="square" stroke-width="80" d="m250,-100a250,250 0 0 1 -500,0l0,-110a250,250 0 0 1 500,0l0,420a250,250 0 0 1 -250,250c-150,0 -180,-60 -200,-85" id="svg_164"/>
    </symbol>
   </defs>
   <rect stroke="black" fill="white" ry="12" rx="12" y="-44.93595" x="868.96165" height="218.19383" width="155.66664" id="svg_165"/>
   <use transform="matrix(0.651325 0 0 0.651325 167.538 67.12)" stroke="null" href="#svg_61" y="-160.54304" x="1082.01766" width="32" height="32" xlink:href="#svg_61" id="svg_166"/>
   <use transform="matrix(0.651325 0 0 0.651325 167.538 67.12)" stroke="null" href="#svg_60" fill="black" y="-123.54304" x="1084.63366" width="26.769" height="26.769" xlink:href="#svg_60" id="svg_167"/>
   <use transform="matrix(0.651325 0 0 0.651325 167.538 67.12)" stroke="null" href="#svg_60" y="-140.04404" x="1108.91666" width="70" height="70" xlink:href="#svg_60" id="svg_168"/>
   <use transform="matrix(0.651325 0 0 0.651325 167.538 67.12)" stroke="null" href="#svg_60" y="-140.04404" x="1213.91866" width="70" height="70" xlink:href="#svg_60" id="svg_169"/>
   <use transform="matrix(0.651325 0 0 0.651325 167.538 67.12)" stroke="null" href="#svg_60" y="-73.04304" x="1108.91666" width="70" height="70" xlink:href="#svg_60" id="svg_170"/>
   <use transform="matrix(0.651325 0 0 0.651325 167.538 67.12)" stroke="null" href="#svg_60" y="-73.04304" x="1213.91866" width="70" height="70" xlink:href="#svg_60" id="svg_171"/>
   <use transform="matrix(0.651325 0 0 0.651325 167.538 67.12)" stroke="null" href="#svg_60" y="-39.54304" x="1161.41766" width="70" height="70" xlink:href="#svg_60" id="svg_172"/>
   <g stroke="null" transform="matrix(-0.651325 0 0 -0.651325 949.128 536.074)" id="svg_173">
    <use stroke="null" href="#svg_61" y="568.54305" x="-110.81766" width="32" height="32" xlink:href="#svg_61" id="svg_174"/>
    <use stroke="null" href="#svg_60" fill="black" y="605.54305" x="-108.20166" width="26.769" height="26.769" xlink:href="#svg_60" id="svg_175"/>
    <use stroke="null" href="#svg_60" y="589.04205" x="-83.91866" width="70" height="70" xlink:href="#svg_60" id="svg_176"/>
    <use stroke="null" href="#svg_60" y="589.04205" x="21.08334" width="70" height="70" xlink:href="#svg_60" id="svg_177"/>
    <use stroke="null" href="#svg_60" y="656.04305" x="-83.91866" width="70" height="70" xlink:href="#svg_60" id="svg_178"/>
    <use stroke="null" href="#svg_60" y="656.04305" x="21.08334" width="70" height="70" xlink:href="#svg_60" id="svg_179"/>
   </g>
  </g>
  <g transform="rotate(11.2319 254.321 194.176)" stroke="null" id="svg_180">
   <defs stroke="null" transform="translate(-3.07693 56.9233) translate(1.53847 -47.6925) translate(-121.414 -25.7111) translate(40 35) translate(6.6292 -3.81032) translate(-3.33333 -28.3333) translate(0 21.6667) translate(-205 -88.3334) translate(600 0) translate(0 360) translate(275.5 104.167) scale(0.679219 0.679219) translate(-275.5 -104.167) translate(400.705 143.547) scale(0.720459 0.720459) translate(-400.705 -143.547)">
    <symbol stroke="null" preserveAspectRatio="xMinYMid" viewBox="-500 -500 1000 1000" id="svg_63">
     <path stroke="black" fill="none" stroke-miterlimit="1.5" stroke-linecap="square" stroke-width="80" d="m-270,460l160,0m-90,-10l200,-910l200,910m-90,10l160,0m-390,-330l240,0" id="svg_181"/>
    </symbol>
    <symbol stroke="null" preserveAspectRatio="xMinYMid" viewBox="-600 -600 1200 1200" id="svg_62">
     <path stroke="null" d="m30,150c5,235 55,250 100,350l-260,0c45,-100 95,-115 100,-350a10,10 0 0 0 -20,0a210,210 0 1 1 -74,-201a10,10 0 0 0 14,-14a230,230 0 1 1 220,0a10,10 0 0 0 14,14a210,210 0 1 1 -74,201a10,10 0 0 0 -20,0z" id="svg_182"/>
    </symbol>
   </defs>
   <rect stroke="black" fill="white" ry="12" rx="12" y="112.20934" x="195.8437" height="163.93209" width="116.95453" id="svg_183"/>
   <use stroke="null" transform="matrix(0.48935 0 0 0.48935 146.382 47.5188)" href="#svg_62" y="264.697" x="185.57757" width="70" height="70" xlink:href="#svg_62" id="svg_184"/>
   <use stroke="null" transform="matrix(0.48935 0 0 0.48935 146.382 47.5188)" href="#svg_63" y="143.697" x="106.17757" width="32" height="32" xlink:href="#svg_63" id="svg_185"/>
   <use stroke="null" transform="matrix(0.48935 0 0 0.48935 146.382 47.5188)" href="#svg_62" fill="black" y="180.697" x="108.79357" width="26.769" height="26.769" xlink:href="#svg_62" id="svg_186"/>
   <g stroke="null" transform="matrix(-0.48935 0 0 -0.48935 526.338 317.209)" id="svg_187">
    <use stroke="null" href="#svg_63" y="95.42276" x="441.47532" width="32" height="32" xlink:href="#svg_63" id="svg_188"/>
    <use stroke="null" href="#svg_62" fill="black" y="132.42276" x="444.09132" width="26.769" height="26.769" xlink:href="#svg_62" id="svg_189"/>
   </g>
  </g>
  <g transform="rotate(-11.2569 88.8156 230.289)" stroke="null" id="svg_190">
   <defs stroke="null" transform="translate(-3.07693 56.9233) translate(1.53847 -47.6925) translate(22.8543 -19.9975) translate(10 1.66667) translate(-71.6667 23.3333) translate(-405 -51.6667) translate(600 0) translate(0 360) translate(75.4998 140.833) scale(0.658298 0.658298) translate(-75.4998 -140.833) translate(114.689 213.935) scale(0.682203 0.682203) translate(-114.689 -213.935)">
    <symbol stroke="null" preserveAspectRatio="xMinYMid" viewBox="-600 -600 1200 1200" id="svg_66">
     <path stroke="null" d="m0,-300c0,-100 100,-200 200,-200c100,0 200,100 200,250c0,250 -400,650 -400,750c0,-100 -400,-500 -400,-750c0,-150 100,-250 200,-250c100,0 200,100 200,200z" id="svg_191"/>
    </symbol>
    <symbol stroke="null" preserveAspectRatio="xMinYMid" viewBox="-500 -500 1000 1000" id="svg_67">
     <path stroke="black" fill="none" stroke-miterlimit="1.5" stroke-linecap="square" stroke-width="80" d="m-260,100c300,0 220,360 520,360m-435,-460l0,-285a175,175 0 0 1 350,0l0,570a175,175 0 0 1 -350,0l0,-285z" id="svg_192"/>
    </symbol>
   </defs>
   <rect stroke="black" fill="white" ry="12" rx="12" y="155.06658" x="35.14902" height="150.44625" width="107.33329" id="svg_193"/>
   <use stroke="null" transform="matrix(0.449093 0 0 0.449093 41.5934 77.586)" href="#svg_67" y="257.62665" x="22.75033" width="164.8" height="164.8" xlink:href="#svg_67" id="svg_194"/>
   <use stroke="null" transform="matrix(0.449093 0 0 0.449093 41.5934 77.586)" href="#svg_67" y="184.02665" x="-9.24967" width="32" height="32" xlink:href="#svg_67" id="svg_195"/>
   <use stroke="black" transform="matrix(0.449093 0 0 0.449093 41.5934 77.586)" href="#svg_66" stroke-linecap="round" stroke-linejoin="round" stroke-width="100" y="221.02665" x="-6.63367" width="26.769" height="26.769" xlink:href="#svg_66" id="svg_196"/>
   <use stroke="null" transform="matrix(0.449093 0 0 0.449093 41.5934 77.586)" href="#svg_66" fill="#000000" y="221.02665" x="-6.63367" width="26.769" height="26.769" xlink:href="#svg_66" id="svg_197"/>
   <g stroke="null" transform="matrix(-0.449093 0 0 -0.449093 216.74 354.527)" id="svg_198">
    <use stroke="null" href="#svg_67" y="120.63999" x="170.44937" width="32" height="32" xlink:href="#svg_67" id="svg_199"/>
    <use stroke="black" href="#svg_66" stroke-linecap="round" stroke-linejoin="round" stroke-width="100" y="157.63999" x="173.06537" width="26.769" height="26.769" xlink:href="#svg_66" id="svg_200"/>
    <use stroke="null" href="#svg_66" fill="#000000" y="157.63999" x="173.06537" width="26.769" height="26.769" xlink:href="#svg_66" id="svg_201"/>
   </g>
  </g>
  <g transform="rotate(12.9846 858.632 270.133)" stroke="null" id="svg_202">
   <defs stroke="null" transform="translate(-3.07693 56.9233) translate(1.53847 -47.6925) translate(0 16.6667) translate(303.333 -11.6667) translate(22.2861 -12.36) translate(600 0) translate(0 360) translate(480.5 192.5) scale(0.452309 0.452309) translate(-480.5 -192.5)">
    <symbol stroke="null" preserveAspectRatio="xMinYMid" viewBox="-600 -600 1200 1200" id="svg_68">
     <path stroke="null" d="m0,-500c100,250 355,400 355,685a150,150 0 0 1 -300,0a10,10 0 0 0 -20,0c0,200 50,215 95,315l-260,0c45,-100 95,-115 95,-315a10,10 0 0 0 -20,0a150,150 0 0 1 -300,0c0,-285 255,-435 355,-685z" id="svg_203"/>
    </symbol>
    <symbol stroke="null" preserveAspectRatio="xMinYMid" viewBox="-500 -500 1000 1000" id="svg_69">
     <path stroke="black" fill="none" stroke-miterlimit="1.5" stroke-linecap="square" stroke-width="80" d="m-260,430l0,-860m210,430l0,-310a150,150 0 0 1 300,0l0,620a150,150 0 0 1 -300,0l0,-310z" id="svg_204"/>
    </symbol>
   </defs>
   <rect stroke="black" fill="white" ry="12" rx="12" y="194.37078" x="804.5811" height="151.5235" width="108.10184" id="svg_205"/>
   <use transform="matrix(0.452309 0 0 0.452309 263.166 105.431)" stroke="null" href="#svg_69" y="208.13606" x="1202.10385" width="32" height="32" xlink:href="#svg_69" id="svg_206"/>
   <use transform="matrix(0.452309 0 0 0.452309 263.166 105.431)" stroke="null" href="#svg_68" fill="black" y="245.13606" x="1204.71985" width="26.769" height="26.769" xlink:href="#svg_68" id="svg_207"/>
   <use transform="matrix(0.452309 0 0 0.452309 263.166 105.431)" stroke="null" href="#svg_68" y="228.63506" x="1229.00285" width="70" height="70" xlink:href="#svg_68" id="svg_208"/>
   <use transform="matrix(0.452309 0 0 0.452309 263.166 105.431)" stroke="null" href="#svg_68" y="228.63506" x="1334.00485" width="70" height="70" xlink:href="#svg_68" id="svg_209"/>
   <use transform="matrix(0.452309 0 0 0.452309 263.166 105.431)" stroke="null" href="#svg_68" y="295.63606" x="1229.00285" width="70" height="70" xlink:href="#svg_68" id="svg_210"/>
   <use transform="matrix(0.452309 0 0 0.452309 263.166 105.431)" stroke="null" href="#svg_68" y="295.63606" x="1334.00485" width="70" height="70" xlink:href="#svg_68" id="svg_211"/>
   <use transform="matrix(0.452309 0 0 0.452309 263.166 105.431)" stroke="null" href="#svg_68" y="262.13606" x="1281.50385" width="70" height="70" xlink:href="#svg_68" id="svg_212"/>
   <g stroke="null" transform="matrix(-0.452309 0 0 -0.452309 805.936 431.093)" id="svg_213">
    <use stroke="null" href="#svg_69" y="199.86393" x="-230.90388" width="32" height="32" xlink:href="#svg_69" id="svg_214"/>
    <use stroke="null" href="#svg_68" fill="black" y="236.86393" x="-228.28788" width="26.769" height="26.769" xlink:href="#svg_68" id="svg_215"/>
    <use stroke="null" href="#svg_68" y="220.36293" x="-204.00488" width="70" height="70" xlink:href="#svg_68" id="svg_216"/>
    <use stroke="null" href="#svg_68" y="220.36293" x="-99.00288" width="70" height="70" xlink:href="#svg_68" id="svg_217"/>
    <use stroke="null" href="#svg_68" y="287.36393" x="-204.00488" width="70" height="70" xlink:href="#svg_68" id="svg_218"/>
    <use stroke="null" href="#svg_68" y="287.36393" x="-99.00288" width="70" height="70" xlink:href="#svg_68" id="svg_219"/>
    <use stroke="null" href="#svg_68" y="253.86393" x="-151.50388" width="70" height="70" xlink:href="#svg_68" id="svg_220"/>
   </g>
  </g>
  <g transform="rotate(-25.7519 512.758 71.7838)" id="svg_235" stroke="null">
   <defs transform="translate(-3.07693 56.9233) translate(1.53847 -47.6925) translate(0 11.4272) translate(22.8543 12.8556) translate(0 41.4235) translate(91.4173 -221.401) translate(-59.9926 7.14198) translate(0 1.4284) translate(118.557 -211.403) translate(-225.687 107.13) translate(600 0) translate(0 360) translate(313.378 96.7975) scale(0.725079 0.725079) translate(-313.378 -96.7975)" stroke="null">
    <symbol id="svg_221" viewBox="-600 -600 1200 1200" preserveAspectRatio="xMinYMid" stroke="null">
     <path id="svg_236" d="m-400,0c50,0 400,-450 400,-500c0,50 350,500 400,500c-50,0 -400,450 -400,500c0,-50 -350,-500 -400,-500z" stroke="null"/>
    </symbol>
    <symbol id="svg_222" viewBox="-500 -500 1000 1000" preserveAspectRatio="xMinYMid" stroke="null">
     <path id="svg_237" d="m-260,430l0,-860m210,430l0,-310a150,150 0 0 1 300,0l0,620a150,150 0 0 1 -300,0l0,-310z" stroke-width="80" stroke-linecap="square" stroke-miterlimit="1.5" fill="none" stroke="black"/>
    </symbol>
   </defs>
   <rect id="svg_238" width="173.2938" height="242.90135" x="426.11087" y="-49.66684" rx="12" ry="12" fill="white" stroke="black"/>
   <use id="svg_239" xlink:href="#svg_222" height="32" width="32" x="473.95488" y="-93.70038" href="#svg_222" stroke="null" transform="matrix(0.725079 0 0 0.725079 86.1542 26.6117)"/>
   <use id="svg_240" xlink:href="#svg_221" height="26.769" width="26.769" x="476.57088" y="-56.70038" stroke-width="100" stroke-linejoin="round" stroke-linecap="round" href="#svg_221" stroke="black" transform="matrix(0.725079 0 0 0.725079 86.1542 26.6117)"/>
   <use id="svg_241" xlink:href="#svg_221" height="26.769" width="26.769" x="476.57088" y="-56.70038" fill="#000000" href="#svg_221" stroke="null" transform="matrix(0.725079 0 0 0.725079 86.1542 26.6117)"/>
   <use id="svg_242" xlink:href="#svg_221" height="70" width="70" x="500.85388" y="-73.20138" href="#svg_221" stroke="null" transform="matrix(0.725079 0 0 0.725079 86.1542 26.6117)"/>
   <use id="svg_243" xlink:href="#svg_221" height="70" width="70" x="605.85588" y="-73.20138" href="#svg_221" stroke="null" transform="matrix(0.725079 0 0 0.725079 86.1542 26.6117)"/>
   <use id="svg_244" xlink:href="#svg_221" height="70" width="70" x="500.85388" y="-6.20038" href="#svg_221" stroke="null" transform="matrix(0.725079 0 0 0.725079 86.1542 26.6117)"/>
   <use id="svg_245" xlink:href="#svg_221" height="70" width="70" x="605.85588" y="-6.20038" href="#svg_221" stroke="null" transform="matrix(0.725079 0 0 0.725079 86.1542 26.6117)"/>
   <use id="svg_246" xlink:href="#svg_221" height="70" width="70" x="553.35488" y="-39.70038" href="#svg_221" stroke="null" transform="matrix(0.725079 0 0 0.725079 86.1542 26.6117)"/>
   <g id="svg_249" transform="matrix(-0.725079 0 0 -0.725079 713.895 409.885)" stroke="null">
    <use id="svg_250" xlink:href="#svg_222" height="32" width="32" x="163.00051" y="310.29536" href="#svg_222" stroke="null"/>
    <use id="svg_251" xlink:href="#svg_221" height="26.769" width="26.769" x="165.61651" y="347.29536" stroke-width="100" stroke-linejoin="round" stroke-linecap="round" href="#svg_221" stroke="black"/>
    <use id="svg_252" xlink:href="#svg_221" height="26.769" width="26.769" x="165.61651" y="347.29536" fill="#000000" href="#svg_221" stroke="null"/>
    <use id="svg_253" xlink:href="#svg_221" height="70" width="70" x="189.89951" y="330.79436" href="#svg_221" stroke="null"/>
    <use id="svg_254" xlink:href="#svg_221" height="70" width="70" x="294.90151" y="330.79436" href="#svg_221" stroke="null"/>
    <use id="svg_255" xlink:href="#svg_221" height="70" width="70" x="189.89951" y="397.79536" href="#svg_221" stroke="null"/>
    <use id="svg_256" xlink:href="#svg_221" height="70" width="70" x="294.90151" y="397.79536" href="#svg_221" stroke="null"/>
    <use id="svg_257" xlink:href="#svg_221" height="70" width="70" x="242.40051" y="364.29536" href="#svg_221" stroke="null"/>
   </g>
  </g>
  <g transform="rotate(7.13433 602.033 160.455)" id="svg_258" stroke="null">
   <defs transform="translate(-3.07693 56.9233) translate(1.53847 -47.6925) translate(0 -24.2827) translate(-4.28519 -18.5691) translate(45.7087 -5.71358) translate(75.705 19.9975) translate(-168.551 -199.975) translate(-1.4284 0) translate(-2.85679 2.85679) translate(-1.4284 1.4284) translate(112.843 88.5605) translate(600 0) translate(0 360) translate(587.63 285.346) scale(0.683243 0.683243) translate(-587.63 -285.346) translate(724.17 154.217) scale(0.825053 0.825053) translate(-724.17 -154.217)" stroke="null">
    <symbol id="svg_223" viewBox="-600 -600 1200 1200" preserveAspectRatio="xMinYMid" stroke="null">
     <path id="svg_259" d="m30,150c5,235 55,250 100,350l-260,0c45,-100 95,-115 100,-350a10,10 0 0 0 -20,0a210,210 0 1 1 -74,-201a10,10 0 0 0 14,-14a230,230 0 1 1 220,0a10,10 0 0 0 14,14a210,210 0 1 1 -74,201a10,10 0 0 0 -20,0z" stroke="null"/>
    </symbol>
    <symbol id="svg_224" viewBox="-500 -500 1000 1000" preserveAspectRatio="xMinYMid" stroke="null">
     <path id="svg_260" d="m-265,-320l0,-140l530,0c-130,260 -355,560 -355,920" stroke-width="80" stroke-linecap="square" stroke-miterlimit="1.5" fill="none" stroke="black"/>
    </symbol>
   </defs>
   <rect id="svg_261" width="134.72711" height="188.84344" x="534.66897" y="66.03322" rx="12" ry="12" fill="white" stroke="black"/>
   <use id="svg_262" xlink:href="#svg_224" height="32" width="32" x="527.59415" y="-36.34936" href="#svg_224" transform="matrix(0.563712 0 0 0.563712 240.133 93.0065)" stroke="null"/>
   <use id="svg_263" xlink:href="#svg_223" height="26.769" width="26.769" x="530.21015" y="0.65064" fill="black" href="#svg_223" transform="matrix(0.563712 0 0 0.563712 240.133 93.0065)" stroke="null"/>
   <use id="svg_264" xlink:href="#svg_223" height="70" width="70" x="554.49315" y="-15.93736" href="#svg_223" transform="matrix(0.563712 0 0 0.563712 240.133 93.0065)" stroke="null"/>
   <use id="svg_265" xlink:href="#svg_223" height="70" width="70" x="659.49515" y="-15.93736" href="#svg_223" transform="matrix(0.563712 0 0 0.563712 240.133 93.0065)" stroke="null"/>
   <use id="svg_266" xlink:href="#svg_223" height="70" width="70" x="554.49315" y="84.65064" href="#svg_223" transform="matrix(0.563712 0 0 0.563712 240.133 93.0065)" stroke="null"/>
   <use id="svg_267" xlink:href="#svg_223" height="70" width="70" x="659.49515" y="84.65064" href="#svg_223" transform="matrix(0.563712 0 0 0.563712 240.133 93.0065)" stroke="null"/>
   <use id="svg_268" xlink:href="#svg_223" height="70" width="70" x="606.99415" y="34.35664" href="#svg_223" transform="matrix(0.563712 0 0 0.563712 240.133 93.0065)" stroke="null"/>
   <g id="svg_269" transform="matrix(-0.563712 0 0 -0.563712 1037.37 603.555)" stroke="null">
    <use id="svg_270" xlink:href="#svg_224" height="32" width="32" x="657.8652" y="630.04082" href="#svg_224" stroke="null"/>
    <use id="svg_271" xlink:href="#svg_223" height="26.769" width="26.769" x="660.4812" y="667.04082" fill="black" href="#svg_223" stroke="null"/>
    <use id="svg_272" xlink:href="#svg_223" height="70" width="70" x="684.7642" y="650.45282" href="#svg_223" stroke="null"/>
    <use id="svg_273" xlink:href="#svg_223" height="70" width="70" x="789.7662" y="650.45282" href="#svg_223" stroke="null"/>
   </g>
  </g>
 </g>
</svg>