<svg width="1200" height="719.9999999999999" xmlns="http://www.w3.org/2000/svg" xmlns:xlink="http://www.w3.org/1999/xlink" version="1.2">
 <g id="Layer_1">
  <title>Layer 1</title>
  <g transform="rotate(-8.45388 959.241 197.495)" stroke="null">
   <defs stroke="null" transform="translate(15.7124 2.85679) translate(-12.8556 9.99877) translate(12.8556 31.4247) translate(401.379 -125.699) translate(600 0) translate(0 360) translate(881.879 66.8012) scale(0.683243 0.683243) translate(-881.879 -66.8012) translate(1309.54 143.764) scale(0.755075 0.755075) translate(-1309.54 -143.764)">
    <symbol stroke="null" preserveAspectRatio="xMinYMid" viewBox="-600 -600 1200 1200" id="svg_247">
     <path stroke="null" d="m0,-500c100,250 355,400 355,685a150,150 0 0 1 -300,0a10,10 0 0 0 -20,0c0,200 50,215 95,315l-260,0c45,-100 95,-115 95,-315a10,10 0 0 0 -20,0a150,150 0 0 1 -300,0c0,-285 255,-435 355,-685z"/>
    </symbol>
    <symbol stroke="null" preserveAspectRatio="xMinYMid" viewBox="-500 -500 1000 1000" id="svg_248">
     <path stroke="black" fill="none" stroke-miterlimit="1.5" stroke-linecap="square" stroke-width="80" d="m-285,-460l200,0m-100,0l0,920m-100,0l200,0m170,-920l200,0m-100,20l-355,595m255,305l200,0m-100,-20l-195,-510"/>
    </symbol>
   </defs>
   <rect stroke="black" fill="white" ry="12" rx="12" y="111.08144" x="897.59153" height="172.82629" width="123.29995"/>
   <use stroke="null" transform="matrix(0.515899 0 0 0.515899 432.924 52.8908)" xlink:href="#svg_248" y="197.89465" x="937.79469" width="164.8" height="164.8"/>
   <use stroke="null" transform="matrix(0.515899 0 0 0.515899 432.924 52.8908)" href="#svg_248" y="124.29465" x="905.79469" width="32" height="32" xlink:href="#svg_248"/>
   <use stroke="null" transform="matrix(0.515899 0 0 0.515899 432.924 52.8908)" href="#svg_247" fill="black" y="161.29465" x="908.41069" width="26.769" height="26.769" xlink:href="#svg_247"/>
   <g stroke="null" transform="matrix(-0.515899 0 0 -0.515899 1463.29 281.787)">
    <use stroke="null" href="#svg_248" y="7.38897" x="862.62617" width="32" height="32" xlink:href="#svg_248"/>
    <use stroke="null" href="#svg_247" fill="black" y="44.38897" x="865.24217" width="26.769" height="26.769" xlink:href="#svg_247"/>
   </g>
  </g>
  <g transform="rotate(-7.03129 62.7147 3.6213)" stroke="null" id="svg_7">
   <defs stroke="null" transform="translate(1.4284 1.4284) translate(-4.28519 -38.5667) translate(-1.4284 1.4284) translate(20 8.33334) translate(-392 -88) translate(0 2) translate(500 0) translate(0 202.5) translate(380.5 37) scale(0.48954 0.48954) translate(-380.5 -37)">
    <symbol stroke="null" preserveAspectRatio="xMinYMid" viewBox="-600 -600 1200 1200" id="svg_1">
     <path stroke="null" d="m30,150c5,235 55,250 100,350l-260,0c45,-100 95,-115 100,-350a10,10 0 0 0 -20,0a210,210 0 1 1 -74,-201a10,10 0 0 0 14,-14a230,230 0 1 1 220,0a10,10 0 0 0 14,14a210,210 0 1 1 -74,201a10,10 0 0 0 -20,0z" id="svg_8"/>
    </symbol>
    <symbol stroke="null" preserveAspectRatio="xMinYMid" viewBox="-500 -500 1000 1000" id="svg_2">
     <path stroke="black" fill="none" stroke-miterlimit="1.5" stroke-linecap="square" stroke-width="80" d="m-250,-320l0,-140l450,0l-310,380c10,-10 60,-40 110,-40c200,0 250,120 250,270c0,200 -80,310 -280,310c-200,0 -230,-160 -230,-160" id="svg_9"/>
    </symbol>
   </defs>
   <rect stroke="black" fill="white" ry="12" rx="12" y="-78.37657" x="4.21473" height="163.99577" width="116.99997" id="svg_10"/>
   <use transform="matrix(0.48954 0 0 0.48954 212.802 28.6487)" stroke="null" href="#svg_2" y="-207.12442" x="-420.9882" width="32" height="32" xlink:href="#svg_2" id="svg_11"/>
   <use transform="matrix(0.48954 0 0 0.48954 212.802 28.6487)" stroke="null" href="#svg_1" fill="black" y="-170.12442" x="-418.3722" width="26.769" height="26.769" xlink:href="#svg_1" id="svg_12"/>
   <use transform="matrix(0.48954 0 0 0.48954 212.802 28.6487)" stroke="null" href="#svg_1" y="-186.71242" x="-341.5882" width="70" height="70" xlink:href="#svg_1" id="svg_13"/>
   <use transform="matrix(0.48954 0 0 0.48954 212.802 28.6487)" stroke="null" href="#svg_1" y="-86.12442" x="-341.5882" width="70" height="70" xlink:href="#svg_1" id="svg_14"/>
   <g stroke="null" transform="matrix(-0.48954 0 0 -0.48954 683.77 219.109)" id="svg_15">
    <use stroke="null" href="#svg_2" y="284.18379" x="1154.25131" width="32" height="32" xlink:href="#svg_2" id="svg_16"/>
    <use stroke="null" href="#svg_1" fill="black" y="321.18379" x="1156.86731" width="26.769" height="26.769" xlink:href="#svg_1" id="svg_17"/>
    <use stroke="null" href="#svg_1" y="304.59579" x="1233.65131" width="70" height="70" xlink:href="#svg_1" id="svg_18"/>
   </g>
  </g>
  <g stroke="null" id="svg_19">
   <defs stroke="null" transform="translate(-2 0) translate(-122 -30) translate(-6 0) translate(402 -200) translate(600 0) translate(0 360) translate(876.5 -7.50005) scale(0.623431 0.623431) translate(-876.5 7.50005) translate(1207.03 -60.1511) scale(0.798658 0.798658) translate(-1207.03 60.1511)">
    <symbol stroke="null" preserveAspectRatio="xMinYMid" viewBox="-600 -600 1200 1200" id="svg_5">
     <path stroke="null" d="m-400,0c50,0 400,-450 400,-500c0,50 350,500 400,500c-50,0 -400,450 -400,500c0,-50 -350,-500 -400,-500z" id="svg_20"/>
    </symbol>
    <symbol stroke="null" preserveAspectRatio="xMinYMid" viewBox="-500 -500 1000 1000" id="svg_6">
     <path stroke="black" fill="none" stroke-miterlimit="1.5" stroke-linecap="square" stroke-width="80" d="m50,-460l200,0m-100,0l0,710a100,100 0 0 1 -400,0l0,-30" id="svg_21"/>
    </symbol>
   </defs>
   <rect stroke="black" fill="white" ry="12" rx="12" y="-37.50005" x="752.50005" height="166.79909" width="118.99995" id="svg_22"/>
   <use stroke="null" transform="matrix(0.497908 0 0 0.497908 415.117 -9.80599)" href="#svg_6" y="29.47912" x="714.70066" width="164.8" height="164.8" xlink:href="#svg_6" id="svg_23"/>
   <use stroke="null" transform="matrix(0.497908 0 0 0.497908 415.117 -9.80599)" href="#svg_6" y="-44.12088" x="682.70066" width="32" height="32" xlink:href="#svg_6" id="svg_24"/>
   <use stroke="black" transform="matrix(0.497908 0 0 0.497908 415.117 -9.80599)" href="#svg_5" stroke-linecap="round" stroke-linejoin="round" stroke-width="100" y="-7.12088" x="685.31666" width="26.769" height="26.769" xlink:href="#svg_5" id="svg_25"/>
   <use stroke="null" transform="matrix(0.497908 0 0 0.497908 415.117 -9.80599)" href="#svg_5" fill="#000000" y="-7.12088" x="685.31666" width="26.769" height="26.769" xlink:href="#svg_5" id="svg_26"/>
   <g stroke="null" transform="matrix(-0.497908 0 0 -0.497908 1406.95 149.524)" id="svg_27">
    <use stroke="null" href="#svg_6" y="52.12078" x="1080.49952" width="32" height="32" xlink:href="#svg_6" id="svg_28"/>
    <use stroke="black" href="#svg_5" stroke-linecap="round" stroke-linejoin="round" stroke-width="100" y="89.12078" x="1083.11552" width="26.769" height="26.769" xlink:href="#svg_5" id="svg_29"/>
    <use stroke="null" href="#svg_5" fill="#000000" y="89.12078" x="1083.11552" width="26.769" height="26.769" xlink:href="#svg_5" id="svg_30"/>
   </g>
  </g>
  <g transform="rotate(17.1042 743.913 157.429)" stroke="null" id="svg_31">
   <defs stroke="null" transform="translate(-160 36) translate(9.80007 -4.98331) translate(-12 6) translate(-56 30) translate(530 72) translate(8.89038 -5.57695) translate(-104 -234) translate(600 0) translate(0 360) translate(376.5 -41.5001) scale(0.570637 0.570637) translate(-376.5 41.5001) translate(1484.99 106.763) scale(0.685164 0.685164) translate(-1484.99 -106.763)">
    <symbol stroke="null" preserveAspectRatio="xMinYMid" viewBox="-600 -600 1200 1200" id="svg_3">
     <path stroke="null" d="m0,-300c0,-100 100,-200 200,-200c100,0 200,100 200,250c0,250 -400,650 -400,750c0,-100 -400,-500 -400,-750c0,-150 100,-250 200,-250c100,0 200,100 200,200z" id="svg_32"/>
    </symbol>
    <symbol stroke="null" preserveAspectRatio="xMinYMid" viewBox="-500 -500 1000 1000" id="svg_4">
     <path stroke="black" fill="none" stroke-miterlimit="1.5" stroke-linecap="square" stroke-width="80" d="m-250,100a250,250 0 0 1 500,0l0,110a250,250 0 0 1 -500,0l0,-420a250,250 0 0 1 250,-250c150,0 180,60 200,85" id="svg_33"/>
    </symbol>
   </defs>
   <rect stroke="black" fill="white" ry="12" rx="12" y="91.93971" x="697.19048" height="130.97815" width="93.44411" id="svg_34"/>
   <use stroke="null" transform="matrix(0.39098 0 0 0.39098 377.549 6.97209)" href="#svg_4" y="228.81986" x="822.63888" width="32" height="32" xlink:href="#svg_4" id="svg_35"/>
   <use stroke="black" transform="matrix(0.39098 0 0 0.39098 377.549 6.97209)" href="#svg_3" stroke-linecap="round" stroke-linejoin="round" stroke-width="100" y="265.81986" x="825.25488" width="26.769" height="26.769" xlink:href="#svg_3" id="svg_36"/>
   <use stroke="null" transform="matrix(0.39098 0 0 0.39098 377.549 6.97209)" href="#svg_3" fill="#000000" y="265.81986" x="825.25488" width="26.769" height="26.769" xlink:href="#svg_3" id="svg_37"/>
   <use stroke="null" transform="matrix(0.39098 0 0 0.39098 377.549 6.97209)" href="#svg_3" y="249.31886" x="849.53788" width="70" height="70" xlink:href="#svg_3" id="svg_38"/>
   <use stroke="null" transform="matrix(0.39098 0 0 0.39098 377.549 6.97209)" href="#svg_3" y="249.31886" x="954.53988" width="70" height="70" xlink:href="#svg_3" id="svg_39"/>
   <use stroke="null" transform="matrix(0.39098 0 0 0.39098 377.549 6.97209)" href="#svg_3" y="349.81986" x="849.53788" width="70" height="70" xlink:href="#svg_3" id="svg_40"/>
   <use stroke="null" transform="matrix(0.39098 0 0 0.39098 377.549 6.97209)" href="#svg_3" y="349.81986" x="954.53988" width="70" height="70" xlink:href="#svg_3" id="svg_41"/>
   <g stroke="null" transform="matrix(-0.39098 0 0 -0.39098 765.401 105.499)" id="svg_42">
    <use stroke="null" href="#svg_4" y="-288.81998" x="-59.4389" width="32" height="32" xlink:href="#svg_4" id="svg_43"/>
    <use stroke="black" href="#svg_3" stroke-linecap="round" stroke-linejoin="round" stroke-width="100" y="-251.81998" x="-56.8229" width="26.769" height="26.769" xlink:href="#svg_3" id="svg_44"/>
    <use stroke="null" href="#svg_3" fill="#000000" y="-251.81998" x="-56.8229" width="26.769" height="26.769" xlink:href="#svg_3" id="svg_45"/>
    <use stroke="null" href="#svg_3" y="-268.32098" x="-32.5399" width="70" height="70" xlink:href="#svg_3" id="svg_46"/>
    <use stroke="null" href="#svg_3" y="-268.32098" x="72.4621" width="70" height="70" xlink:href="#svg_3" id="svg_47"/>
   </g>
  </g>
  <g id="svg_64" stroke="null" transform="rotate(20.9371 1130 66.8827)">
   <defs transform="translate(-40 0) translate(180 -46.6667) translate(460 -148.333) translate(600 0) translate(0 360) translate(940.5 44.1666) scale(0.414226 0.414226) translate(-940.5 -44.1666)" stroke="null">
    <symbol id="svg_48" viewBox="-600 -600 1200 1200" preserveAspectRatio="xMinYMid" stroke="null">
     <path id="svg_65" d="m0,-500c100,250 355,400 355,685a150,150 0 0 1 -300,0a10,10 0 0 0 -20,0c0,200 50,215 95,315l-260,0c45,-100 95,-115 95,-315a10,10 0 0 0 -20,0a150,150 0 0 1 -300,0c0,-285 255,-435 355,-685z" stroke="null"/>
    </symbol>
    <symbol id="svg_49" viewBox="-500 -500 1000 1000" preserveAspectRatio="xMinYMid" stroke="null">
     <path id="svg_70" d="m-225,-225c-20,-40 25,-235 225,-235c200,0 225,135 225,235c0,200 -450,385 -450,685l450,0l0,-160" stroke-width="80" stroke-linecap="square" stroke-miterlimit="1.5" fill="none" stroke="black"/>
    </symbol>
   </defs>
   <rect id="svg_71" width="98.99996" height="138.76563" x="1080.50018" y="-2.50007" rx="12" ry="12" fill="white" stroke="black"/>
   <use id="svg_72" xlink:href="#svg_49" height="32" width="32" x="849.03442" y="55.66661" href="#svg_49" transform="matrix(0.414226 0 0 0.414226 730.921 -20.795)" stroke="null"/>
   <use id="svg_73" xlink:href="#svg_48" height="26.769" width="26.769" x="851.65042" y="92.66661" fill="black" href="#svg_48" transform="matrix(0.414226 0 0 0.414226 730.921 -20.795)" stroke="null"/>
   <use id="svg_74" xlink:href="#svg_48" height="70" width="70" x="928.43442" y="76.16561" href="#svg_48" transform="matrix(0.414226 0 0 0.414226 730.921 -20.795)" stroke="null"/>
   <g id="svg_75" transform="matrix(-0.414226 0 0 -0.414226 1429.08 201.227)" stroke="null">
    <use id="svg_76" xlink:href="#svg_49" height="32" width="32" x="607.62008" y="168.32663" href="#svg_49" stroke="null"/>
    <use id="svg_77" xlink:href="#svg_48" height="26.769" width="26.769" x="610.23608" y="205.32663" fill="black" href="#svg_48" stroke="null"/>
    <use id="svg_78" xlink:href="#svg_48" height="70" width="70" x="687.02008" y="188.82563" href="#svg_48" stroke="null"/>
   </g>
  </g>
  <g id="svg_79" stroke="null">
   <defs transform="translate(-9.99877 2.85679) translate(-51.4222 -15.7124) translate(10 -8.33334) translate(-113.333 48.3334) translate(-208.333 -236.667) translate(600 0) translate(0 360) translate(272.167 -44.1667) scale(0.637378 0.637378) translate(-272.167 44.1667)" stroke="null">
    <symbol id="svg_50" viewBox="-600 -600 1200 1200" preserveAspectRatio="xMinYMid" stroke="null">
     <path id="svg_80" d="m-400,0c50,0 400,-450 400,-500c0,50 350,500 400,500c-50,0 -400,450 -400,500c0,-50 -350,-500 -400,-500z" stroke="null"/>
    </symbol>
    <symbol id="svg_51" viewBox="-500 -500 1000 1000" preserveAspectRatio="xMinYMid" stroke="null">
     <path id="svg_81" d="m50,460l200,0m-100,0l0,-920l-450,635l0,25l570,0" stroke-width="80" stroke-linecap="square" stroke-miterlimit="1.5" fill="none" stroke="black"/>
    </symbol>
   </defs>
   <rect id="svg_82" width="152.33331" height="213.52158" x="107.41222" y="-17.02229" rx="12" ry="12" fill="white" stroke="black"/>
   <use id="svg_83" xlink:href="#svg_51" height="32" width="32" x="18.77884" y="9.92095" href="#svg_51" stroke="null" transform="matrix(0.637378 0 0 0.637378 98.6936 -16.0158)"/>
   <use id="svg_84" xlink:href="#svg_50" height="26.769" width="26.769" x="21.39484" y="46.92095" stroke-width="100" stroke-linejoin="round" stroke-linecap="round" href="#svg_50" stroke="black" transform="matrix(0.637378 0 0 0.637378 98.6936 -16.0158)"/>
   <use id="svg_85" xlink:href="#svg_50" height="26.769" width="26.769" x="21.39484" y="46.92095" fill="#000000" href="#svg_50" stroke="null" transform="matrix(0.637378 0 0 0.637378 98.6936 -16.0158)"/>
   <use id="svg_86" xlink:href="#svg_50" height="70" width="70" x="45.67784" y="30.41995" href="#svg_50" stroke="null" transform="matrix(0.637378 0 0 0.637378 98.6936 -16.0158)"/>
   <use id="svg_87" xlink:href="#svg_50" height="70" width="70" x="150.67984" y="30.41995" href="#svg_50" stroke="null" transform="matrix(0.637378 0 0 0.637378 98.6936 -16.0158)"/>
   <g id="svg_88" transform="matrix(-0.637378 0 0 -0.637378 597.973 141.204)" stroke="null">
    <use id="svg_89" xlink:href="#svg_51" height="32" width="32" x="535.75435" y="-75.25444" href="#svg_51" stroke="null"/>
    <use id="svg_90" xlink:href="#svg_50" height="26.769" width="26.769" x="538.37035" y="-38.25444" stroke-width="100" stroke-linejoin="round" stroke-linecap="round" href="#svg_50" stroke="black"/>
    <use id="svg_91" xlink:href="#svg_50" height="26.769" width="26.769" x="538.37035" y="-38.25444" fill="#000000" href="#svg_50" stroke="null"/>
    <use id="svg_92" xlink:href="#svg_50" height="70" width="70" x="562.65335" y="-54.75544" href="#svg_50" stroke="null"/>
    <use id="svg_93" xlink:href="#svg_50" height="70" width="70" x="667.65535" y="-54.75544" href="#svg_50" stroke="null"/>
   </g>
  </g>
  <g transform="rotate(10.7888 62.5424 133.724)" id="svg_94" stroke="null">
   <defs transform="translate(-67.1346 -12.8556) translate(23.3333 -6.66667) translate(-2.53261 -2.18247) translate(-331.667 -13.3333) translate(-3.54537 3.10139) translate(-20 -65) translate(-66.6667 -61.6667) translate(600 0) translate(0 360) translate(413.833 130.833) scale(0.637378 0.637378) translate(-413.833 -130.833) translate(617.896 103.288) scale(0.794906 0.799227) translate(-617.896 -103.288) translate(115.702 444.149) scale(0.830048 0.830048) translate(-115.702 -444.149)" stroke="null">
    <symbol id="svg_52" viewBox="-600 -600 1200 1200" preserveAspectRatio="xMinYMid" stroke="null">
     <path id="svg_95" d="m0,-300c0,-100 100,-200 200,-200c100,0 200,100 200,250c0,250 -400,650 -400,750c0,-100 -400,-500 -400,-750c0,-150 100,-250 200,-250c100,0 200,100 200,200z" stroke="null"/>
    </symbol>
    <symbol id="svg_53" viewBox="-500 -500 1000 1000" preserveAspectRatio="xMinYMid" stroke="null">
     <path id="svg_96" d="m170,-460l-345,0l-35,345c0,0 10,-85 210,-85c100,0 255,120 255,320c0,200 -75,340 -275,340c-200,0 -235,-175 -235,-175" stroke-width="80" stroke-linecap="square" stroke-miterlimit="1.5" fill="none" stroke="black"/>
    </symbol>
   </defs>
   <rect id="svg_97" width="100.51105" height="141.64941" x="12.28729" y="62.89937" rx="12" ry="12" fill="white" stroke="black"/>
   <use id="svg_98" xlink:href="#svg_53" height="32" width="32" x="-218.57947" y="4.50041" href="#svg_53" transform="matrix(0.420548 0 0 0.422834 106.355 65.859)" stroke="null"/>
   <use id="svg_99" xlink:href="#svg_52" height="26.769" width="26.769" x="-215.96347" y="41.50041" stroke-width="100" stroke-linejoin="round" stroke-linecap="round" href="#svg_52" transform="matrix(0.420548 0 0 0.422834 106.355 65.859)" stroke="black"/>
   <use id="svg_100" xlink:href="#svg_52" height="26.769" width="26.769" x="-215.96347" y="41.50041" fill="#000000" href="#svg_52" transform="matrix(0.420548 0 0 0.422834 106.355 65.859)" stroke="null"/>
   <use id="svg_101" xlink:href="#svg_52" height="70" width="70" x="-191.68047" y="24.99941" href="#svg_52" transform="matrix(0.420548 0 0 0.422834 106.355 65.859)" stroke="null"/>
   <use id="svg_102" xlink:href="#svg_52" height="70" width="70" x="-86.67847" y="24.99941" href="#svg_52" transform="matrix(0.420548 0 0 0.422834 106.355 65.859)" stroke="null"/>
   <use id="svg_103" xlink:href="#svg_52" height="70" width="70" x="-139.17947" y="125.50041" href="#svg_52" transform="matrix(0.420548 0 0 0.422834 106.355 65.859)" stroke="null"/>
   <g id="svg_104" transform="matrix(-0.420548 0 0 -0.422834 624.607 333.188)" stroke="null">
    <use id="svg_105" xlink:href="#svg_53" height="32" width="32" x="1222.10425" y="315.73107" href="#svg_53" stroke="null"/>
    <use id="svg_106" xlink:href="#svg_52" height="26.769" width="26.769" x="1224.72025" y="352.73107" stroke-width="100" stroke-linejoin="round" stroke-linecap="round" href="#svg_52" stroke="black"/>
    <use id="svg_107" xlink:href="#svg_52" height="26.769" width="26.769" x="1224.72025" y="352.73107" fill="#000000" href="#svg_52" stroke="null"/>
    <use id="svg_108" xlink:href="#svg_52" height="70" width="70" x="1249.00325" y="336.23007" href="#svg_52" stroke="null"/>
    <use id="svg_109" xlink:href="#svg_52" height="70" width="70" x="1354.00525" y="336.23007" href="#svg_52" stroke="null"/>
   </g>
  </g>
  <g transform="rotate(-12.6397 344.577 82.6557)" id="svg_110" stroke="null">
   <defs transform="translate(-132.841 -28.5679) translate(0 -1.4284) translate(-7.54365 6.75077) translate(45 -75) translate(-133.333 -141.667) translate(600 0) translate(0 360) translate(392.167 -24.1667) scale(0.776525 0.776525) translate(-392.167 24.1667)" stroke="null">
    <symbol id="svg_54" viewBox="-600 -600 1200 1200" preserveAspectRatio="xMinYMid" stroke="null">
     <path id="svg_111" d="m30,150c5,235 55,250 100,350l-260,0c45,-100 95,-115 100,-350a10,10 0 0 0 -20,0a210,210 0 1 1 -74,-201a10,10 0 0 0 14,-14a230,230 0 1 1 220,0a10,10 0 0 0 14,14a210,210 0 1 1 -74,201a10,10 0 0 0 -20,0z" stroke="null"/>
    </symbol>
    <symbol id="svg_55" viewBox="-500 -500 1000 1000" preserveAspectRatio="xMinYMid" stroke="null">
     <path id="svg_112" d="m-250,100a250,250 0 0 1 500,0l0,110a250,250 0 0 1 -500,0l0,-420a250,250 0 0 1 250,-250c150,0 180,60 200,85" stroke-width="80" stroke-linecap="square" stroke-miterlimit="1.5" fill="none" stroke="black"/>
    </symbol>
   </defs>
   <rect id="svg_113" width="185.58957" height="260.136" x="251.78218" y="-47.41228" rx="12" ry="12" fill="white" stroke="black"/>
   <use id="svg_114" xlink:href="#svg_55" height="32" width="32" x="216.48116" y="-42.60208" href="#svg_55" stroke="null" transform="matrix(0.776525 0 0 0.776525 87.6393 -5.40065)"/>
   <use id="svg_115" xlink:href="#svg_54" height="26.769" width="26.769" x="219.09716" y="-5.60208" fill="black" href="#svg_54" stroke="null" transform="matrix(0.776525 0 0 0.776525 87.6393 -5.40065)"/>
   <use id="svg_116" xlink:href="#svg_54" height="70" width="70" x="243.38016" y="-22.19008" href="#svg_54" stroke="null" transform="matrix(0.776525 0 0 0.776525 87.6393 -5.40065)"/>
   <use id="svg_117" xlink:href="#svg_54" height="70" width="70" x="348.38216" y="-22.19008" href="#svg_54" stroke="null" transform="matrix(0.776525 0 0 0.776525 87.6393 -5.40065)"/>
   <use id="svg_118" xlink:href="#svg_54" height="70" width="70" x="243.38016" y="78.39792" href="#svg_54" stroke="null" transform="matrix(0.776525 0 0 0.776525 87.6393 -5.40065)"/>
   <use id="svg_119" xlink:href="#svg_54" height="70" width="70" x="348.38216" y="78.39792" href="#svg_54" stroke="null" transform="matrix(0.776525 0 0 0.776525 87.6393 -5.40065)"/>
   <g id="svg_120" transform="matrix(-0.776525 0 0 -0.776525 882.284 217.203)" stroke="null">
    <use id="svg_121" xlink:href="#svg_55" height="32" width="32" x="578.05212" y="17.2686" href="#svg_55" stroke="null"/>
    <use id="svg_122" xlink:href="#svg_54" height="26.769" width="26.769" x="580.66812" y="54.2686" fill="black" href="#svg_54" stroke="null"/>
    <use id="svg_123" xlink:href="#svg_54" height="70" width="70" x="604.95112" y="37.6806" href="#svg_54" stroke="null"/>
    <use id="svg_124" xlink:href="#svg_54" height="70" width="70" x="709.95312" y="37.6806" href="#svg_54" stroke="null"/>
   </g>
  </g>
  <g id="svg_125" stroke="null">
   <defs transform="translate(33.3333 36.6667) translate(495 -173.333) translate(600 0) translate(0 360) translate(480.5 192.5) scale(0.637378 0.637378) translate(-480.5 -192.5) translate(1530.49 30.071) scale(0.737418 0.737418) translate(-1530.49 -30.071)" stroke="null">
    <symbol id="svg_56" viewBox="-600 -600 1200 1200" preserveAspectRatio="xMinYMid" stroke="null">
     <path id="svg_126" d="m-400,0c50,0 400,-450 400,-500c0,50 350,500 400,500c-50,0 -400,450 -400,500c0,-50 -350,-500 -400,-500z" stroke="null"/>
    </symbol>
    <symbol id="svg_57" viewBox="-500 -500 1000 1000" preserveAspectRatio="xMinYMid" stroke="null">
     <path id="svg_127" d="m-265,-320l0,-140l530,0c-130,260 -355,560 -355,920" stroke-width="80" stroke-linecap="square" stroke-miterlimit="1.5" fill="none" stroke="black"/>
    </symbol>
   </defs>
   <rect id="svg_128" width="112.3333" height="157.45462" x="1008.83353" y="55.83329" rx="12" ry="12" fill="white" stroke="black"/>
   <use id="svg_129" xlink:href="#svg_57" height="32" width="32" x="1333.1396" y="10.06431" href="#svg_57" transform="matrix(0.470014 0 0 0.470014 384.637 56.5081)" stroke="null"/>
   <use id="svg_130" xlink:href="#svg_56" height="26.769" width="26.769" x="1335.7556" y="47.06431" stroke-width="100" stroke-linejoin="round" stroke-linecap="round" href="#svg_56" transform="matrix(0.470014 0 0 0.470014 384.637 56.5081)" stroke="black"/>
   <use id="svg_131" xlink:href="#svg_56" height="26.769" width="26.769" x="1335.7556" y="47.06431" fill="#000000" href="#svg_56" transform="matrix(0.470014 0 0 0.470014 384.637 56.5081)" stroke="null"/>
   <use id="svg_132" xlink:href="#svg_56" height="70" width="70" x="1360.0386" y="30.56331" href="#svg_56" transform="matrix(0.470014 0 0 0.470014 384.637 56.5081)" stroke="null"/>
   <use id="svg_133" xlink:href="#svg_56" height="70" width="70" x="1465.0406" y="30.56331" href="#svg_56" transform="matrix(0.470014 0 0 0.470014 384.637 56.5081)" stroke="null"/>
   <use id="svg_134" xlink:href="#svg_56" height="70" width="70" x="1360.0386" y="131.06431" href="#svg_56" transform="matrix(0.470014 0 0 0.470014 384.637 56.5081)" stroke="null"/>
   <use id="svg_135" xlink:href="#svg_56" height="70" width="70" x="1465.0406" y="131.06431" href="#svg_56" transform="matrix(0.470014 0 0 0.470014 384.637 56.5081)" stroke="null"/>
   <use id="svg_136" xlink:href="#svg_56" height="70" width="70" x="1412.5396" y="80.81431" href="#svg_56" transform="matrix(0.470014 0 0 0.470014 384.637 56.5081)" stroke="null"/>
   <g id="svg_137" transform="matrix(-0.470014 0 0 -0.470014 948.653 394.918)" stroke="null">
    <use id="svg_138" xlink:href="#svg_57" height="32" width="32" x="-361.93962" y="397.93568" href="#svg_57" stroke="null"/>
    <use id="svg_139" xlink:href="#svg_56" height="26.769" width="26.769" x="-359.32362" y="434.93568" stroke-width="100" stroke-linejoin="round" stroke-linecap="round" href="#svg_56" stroke="black"/>
    <use id="svg_140" xlink:href="#svg_56" height="26.769" width="26.769" x="-359.32362" y="434.93568" fill="#000000" href="#svg_56" stroke="null"/>
    <use id="svg_141" xlink:href="#svg_56" height="70" width="70" x="-335.04062" y="418.43468" href="#svg_56" stroke="null"/>
    <use id="svg_142" xlink:href="#svg_56" height="70" width="70" x="-230.03862" y="418.43468" href="#svg_56" stroke="null"/>
   </g>
  </g>
  <g id="svg_143" stroke="null">
   <defs transform="translate(31.6667 -141.667) translate(51.6667 -138.333) translate(600 0) translate(0 360) translate(532.167 54.1666) scale(0.672245 0.672245) translate(-532.167 -54.1666)" stroke="null">
    <symbol id="svg_58" viewBox="-600 -600 1200 1200" preserveAspectRatio="xMinYMid" stroke="null">
     <path id="svg_144" d="m0,-300c0,-100 100,-200 200,-200c100,0 200,100 200,250c0,250 -400,650 -400,750c0,-100 -400,-500 -400,-750c0,-150 100,-250 200,-250c100,0 200,100 200,200z" stroke="null"/>
    </symbol>
    <symbol id="svg_59" viewBox="-500 -500 1000 1000" preserveAspectRatio="xMinYMid" stroke="null">
     <path id="svg_145" d="m-1,-50a205,205 0 1 1 2,0l-2,0a255,255 0 1 0 2,0l-2,0z" stroke-width="80" stroke-linecap="square" stroke-miterlimit="1.5" fill="none" stroke="black"/>
    </symbol>
   </defs>
   <rect id="svg_146" width="160.66665" height="225.2022" x="563.83336" y="-87.50009" rx="12" ry="12" fill="white" stroke="black"/>
   <use id="svg_147" xlink:href="#svg_59" height="32" width="32" x="584.37251" y="-145.06999" href="#svg_59" stroke="null" transform="matrix(0.672245 0 0 0.672245 174.42 17.7534)"/>
   <use id="svg_148" xlink:href="#svg_58" height="26.769" width="26.769" x="586.98851" y="-108.06999" stroke-width="100" stroke-linejoin="round" stroke-linecap="round" href="#svg_58" stroke="black" transform="matrix(0.672245 0 0 0.672245 174.42 17.7534)"/>
   <use id="svg_149" xlink:href="#svg_58" height="26.769" width="26.769" x="586.98851" y="-108.06999" fill="#000000" href="#svg_58" stroke="null" transform="matrix(0.672245 0 0 0.672245 174.42 17.7534)"/>
   <use id="svg_150" xlink:href="#svg_58" height="70" width="70" x="611.27151" y="-124.57099" href="#svg_58" stroke="null" transform="matrix(0.672245 0 0 0.672245 174.42 17.7534)"/>
   <use id="svg_151" xlink:href="#svg_58" height="70" width="70" x="716.27351" y="-124.57099" href="#svg_58" stroke="null" transform="matrix(0.672245 0 0 0.672245 174.42 17.7534)"/>
   <use id="svg_152" xlink:href="#svg_58" height="70" width="70" x="663.77251" y="-74.31999" href="#svg_58" stroke="null" transform="matrix(0.672245 0 0 0.672245 174.42 17.7534)"/>
   <use id="svg_153" xlink:href="#svg_58" height="70" width="70" x="611.27151" y="-24.06999" href="#svg_58" stroke="null" transform="matrix(0.672245 0 0 0.672245 174.42 17.7534)"/>
   <use id="svg_154" xlink:href="#svg_58" height="70" width="70" x="716.27351" y="-24.06999" href="#svg_58" stroke="null" transform="matrix(0.672245 0 0 0.672245 174.42 17.7534)"/>
   <g id="svg_155" transform="matrix(-0.672245 0 0 -0.672245 1050.58 315.782)" stroke="null">
    <use id="svg_156" xlink:href="#svg_59" height="32" width="32" x="490.16085" y="276.40324" href="#svg_59" stroke="null"/>
    <use id="svg_157" xlink:href="#svg_58" height="26.769" width="26.769" x="492.77685" y="313.40324" stroke-width="100" stroke-linejoin="round" stroke-linecap="round" href="#svg_58" stroke="black"/>
    <use id="svg_158" xlink:href="#svg_58" height="26.769" width="26.769" x="492.77685" y="313.40324" fill="#000000" href="#svg_58" stroke="null"/>
    <use id="svg_159" xlink:href="#svg_58" height="70" width="70" x="517.05985" y="296.90224" href="#svg_58" stroke="null"/>
    <use id="svg_160" xlink:href="#svg_58" height="70" width="70" x="622.06185" y="296.90224" href="#svg_58" stroke="null"/>
    <use id="svg_161" xlink:href="#svg_58" height="70" width="70" x="569.56085" y="347.15324" href="#svg_58" stroke="null"/>
   </g>
  </g>
  <g id="svg_162" stroke="null" transform="rotate(-17.8408 948.333 54.9302)">
   <defs transform="translate(390 -246.667) translate(600 0) translate(0 360) translate(480.5 192.5) scale(0.651325 0.651325) translate(-480.5 -192.5)" stroke="null">
    <symbol id="svg_60" viewBox="-600 -600 1200 1200" preserveAspectRatio="xMinYMid" stroke="null">
     <path id="svg_163" d="m0,-500c100,250 355,400 355,685a150,150 0 0 1 -300,0a10,10 0 0 0 -20,0c0,200 50,215 95,315l-260,0c45,-100 95,-115 95,-315a10,10 0 0 0 -20,0a150,150 0 0 1 -300,0c0,-285 255,-435 355,-685z" stroke="null"/>
    </symbol>
    <symbol id="svg_61" viewBox="-500 -500 1000 1000" preserveAspectRatio="xMinYMid" stroke="null">
     <path id="svg_164" d="m250,-100a250,250 0 0 1 -500,0l0,-110a250,250 0 0 1 500,0l0,420a250,250 0 0 1 -250,250c-150,0 -180,-60 -200,-85" stroke-width="80" stroke-linecap="square" stroke-miterlimit="1.5" fill="none" stroke="black"/>
    </symbol>
   </defs>
   <rect id="svg_165" width="155.66664" height="218.19383" x="870.50012" y="-54.16675" rx="12" ry="12" fill="white" stroke="black"/>
   <use id="svg_166" xlink:href="#svg_61" height="32" width="32" x="1084.37972" y="-174.71538" href="#svg_61" stroke="null" transform="matrix(0.651325 0 0 0.651325 167.538 67.12)"/>
   <use id="svg_167" xlink:href="#svg_60" height="26.769" width="26.769" x="1086.99572" y="-137.71538" fill="black" href="#svg_60" stroke="null" transform="matrix(0.651325 0 0 0.651325 167.538 67.12)"/>
   <use id="svg_168" xlink:href="#svg_60" height="70" width="70" x="1111.27872" y="-154.21638" href="#svg_60" stroke="null" transform="matrix(0.651325 0 0 0.651325 167.538 67.12)"/>
   <use id="svg_169" xlink:href="#svg_60" height="70" width="70" x="1216.28072" y="-154.21638" href="#svg_60" stroke="null" transform="matrix(0.651325 0 0 0.651325 167.538 67.12)"/>
   <use id="svg_170" xlink:href="#svg_60" height="70" width="70" x="1111.27872" y="-87.21538" href="#svg_60" stroke="null" transform="matrix(0.651325 0 0 0.651325 167.538 67.12)"/>
   <use id="svg_171" xlink:href="#svg_60" height="70" width="70" x="1216.28072" y="-87.21538" href="#svg_60" stroke="null" transform="matrix(0.651325 0 0 0.651325 167.538 67.12)"/>
   <use id="svg_172" xlink:href="#svg_60" height="70" width="70" x="1163.77972" y="-53.71538" href="#svg_60" stroke="null" transform="matrix(0.651325 0 0 0.651325 167.538 67.12)"/>
   <g id="svg_173" transform="matrix(-0.651325 0 0 -0.651325 949.128 536.074)" stroke="null">
    <use id="svg_174" xlink:href="#svg_61" height="32" width="32" x="-113.17972" y="582.71539" href="#svg_61" stroke="null"/>
    <use id="svg_175" xlink:href="#svg_60" height="26.769" width="26.769" x="-110.56372" y="619.71539" fill="black" href="#svg_60" stroke="null"/>
    <use id="svg_176" xlink:href="#svg_60" height="70" width="70" x="-86.28072" y="603.21439" href="#svg_60" stroke="null"/>
    <use id="svg_177" xlink:href="#svg_60" height="70" width="70" x="18.72128" y="603.21439" href="#svg_60" stroke="null"/>
    <use id="svg_178" xlink:href="#svg_60" height="70" width="70" x="-86.28072" y="670.21539" href="#svg_60" stroke="null"/>
    <use id="svg_179" xlink:href="#svg_60" height="70" width="70" x="18.72128" y="670.21539" href="#svg_60" stroke="null"/>
   </g>
  </g>
  <g transform="rotate(11.2319 255.859 184.945)" id="svg_180" stroke="null">
   <defs transform="translate(-121.414 -25.7111) translate(40 35) translate(6.6292 -3.81032) translate(-3.33333 -28.3333) translate(0 21.6667) translate(-205 -88.3334) translate(600 0) translate(0 360) translate(275.5 104.167) scale(0.679219 0.679219) translate(-275.5 -104.167) translate(400.705 143.547) scale(0.720459 0.720459) translate(-400.705 -143.547)" stroke="null">
    <symbol id="svg_63" viewBox="-500 -500 1000 1000" preserveAspectRatio="xMinYMid" stroke="null">
     <path id="svg_181" d="m-270,460l160,0m-90,-10l200,-910l200,910m-90,10l160,0m-390,-330l240,0" stroke-width="80" stroke-linecap="square" stroke-miterlimit="1.5" fill="none" stroke="black"/>
    </symbol>
    <symbol id="svg_62" viewBox="-600 -600 1200 1200" preserveAspectRatio="xMinYMid" stroke="null">
     <path id="svg_182" d="m30,150c5,235 55,250 100,350l-260,0c45,-100 95,-115 100,-350a10,10 0 0 0 -20,0a210,210 0 1 1 -74,-201a10,10 0 0 0 14,-14a230,230 0 1 1 220,0a10,10 0 0 0 14,14a210,210 0 1 1 -74,201a10,10 0 0 0 -20,0z" stroke="null"/>
    </symbol>
   </defs>
   <rect id="svg_183" width="116.95453" height="163.93209" x="197.38217" y="102.97854" rx="12" ry="12" fill="white" stroke="black"/>
   <use id="svg_184" xlink:href="#svg_62" height="70" width="70" x="188.72147" y="245.83361" href="#svg_62" transform="matrix(0.48935 0 0 0.48935 146.382 47.5188)" stroke="null"/>
   <use id="svg_185" xlink:href="#svg_63" height="32" width="32" x="109.32147" y="124.83361" href="#svg_63" transform="matrix(0.48935 0 0 0.48935 146.382 47.5188)" stroke="null"/>
   <use id="svg_186" xlink:href="#svg_62" height="26.769" width="26.769" x="111.93747" y="161.83361" fill="black" href="#svg_62" transform="matrix(0.48935 0 0 0.48935 146.382 47.5188)" stroke="null"/>
   <g id="svg_187" transform="matrix(-0.48935 0 0 -0.48935 526.338 317.209)" stroke="null">
    <use id="svg_188" xlink:href="#svg_63" height="32" width="32" x="438.33142" y="114.28615" href="#svg_63" stroke="null"/>
    <use id="svg_189" xlink:href="#svg_62" height="26.769" width="26.769" x="440.94742" y="151.28615" fill="black" href="#svg_62" stroke="null"/>
   </g>
  </g>
  <g transform="rotate(-11.2569 90.3541 221.058)" id="svg_190" stroke="null">
   <defs transform="translate(22.8543 -19.9975) translate(10 1.66667) translate(-71.6667 23.3333) translate(-405 -51.6667) translate(600 0) translate(0 360) translate(75.4998 140.833) scale(0.658298 0.658298) translate(-75.4998 -140.833) translate(114.689 213.935) scale(0.682203 0.682203) translate(-114.689 -213.935)" stroke="null">
    <symbol id="svg_66" viewBox="-600 -600 1200 1200" preserveAspectRatio="xMinYMid" stroke="null">
     <path id="svg_191" d="m0,-300c0,-100 100,-200 200,-200c100,0 200,100 200,250c0,250 -400,650 -400,750c0,-100 -400,-500 -400,-750c0,-150 100,-250 200,-250c100,0 200,100 200,200z" stroke="null"/>
    </symbol>
    <symbol id="svg_67" viewBox="-500 -500 1000 1000" preserveAspectRatio="xMinYMid" stroke="null">
     <path id="svg_192" d="m-260,100c300,0 220,360 520,360m-435,-460l0,-285a175,175 0 0 1 350,0l0,570a175,175 0 0 1 -350,0l0,-285z" stroke-width="80" stroke-linecap="square" stroke-miterlimit="1.5" fill="none" stroke="black"/>
    </symbol>
   </defs>
   <rect id="svg_193" width="107.33329" height="150.44625" x="36.68749" y="145.83578" rx="12" ry="12" fill="white" stroke="black"/>
   <use id="svg_194" xlink:href="#svg_67" height="164.8" width="164.8" x="26.17605" y="237.07233" href="#svg_67" transform="matrix(0.449093 0 0 0.449093 41.5934 77.586)" stroke="null"/>
   <use id="svg_195" xlink:href="#svg_67" height="32" width="32" x="-5.82395" y="163.47233" href="#svg_67" transform="matrix(0.449093 0 0 0.449093 41.5934 77.586)" stroke="null"/>
   <use id="svg_196" xlink:href="#svg_66" height="26.769" width="26.769" x="-3.20795" y="200.47233" stroke-width="100" stroke-linejoin="round" stroke-linecap="round" href="#svg_66" transform="matrix(0.449093 0 0 0.449093 41.5934 77.586)" stroke="black"/>
   <use id="svg_197" xlink:href="#svg_66" height="26.769" width="26.769" x="-3.20795" y="200.47233" fill="#000000" href="#svg_66" transform="matrix(0.449093 0 0 0.449093 41.5934 77.586)" stroke="null"/>
   <g id="svg_198" transform="matrix(-0.449093 0 0 -0.449093 216.74 354.527)" stroke="null">
    <use id="svg_199" xlink:href="#svg_67" height="32" width="32" x="167.02365" y="141.1943" href="#svg_67" stroke="null"/>
    <use id="svg_200" xlink:href="#svg_66" height="26.769" width="26.769" x="169.63965" y="178.1943" stroke-width="100" stroke-linejoin="round" stroke-linecap="round" href="#svg_66" stroke="black"/>
    <use id="svg_201" xlink:href="#svg_66" height="26.769" width="26.769" x="169.63965" y="178.1943" fill="#000000" href="#svg_66" stroke="null"/>
   </g>
  </g>
  <g id="svg_202" stroke="null" transform="rotate(12.9846 860.17 260.902)">
   <defs transform="translate(0 16.6667) translate(303.333 -11.6667) translate(22.2861 -12.36) translate(600 0) translate(0 360) translate(480.5 192.5) scale(0.452309 0.452309) translate(-480.5 -192.5)" stroke="null">
    <symbol id="svg_68" viewBox="-600 -600 1200 1200" preserveAspectRatio="xMinYMid" stroke="null">
     <path id="svg_203" d="m0,-500c100,250 355,400 355,685a150,150 0 0 1 -300,0a10,10 0 0 0 -20,0c0,200 50,215 95,315l-260,0c45,-100 95,-115 95,-315a10,10 0 0 0 -20,0a150,150 0 0 1 -300,0c0,-285 255,-435 355,-685z" stroke="null"/>
    </symbol>
    <symbol id="svg_69" viewBox="-500 -500 1000 1000" preserveAspectRatio="xMinYMid" stroke="null">
     <path id="svg_204" d="m-260,430l0,-860m210,430l0,-310a150,150 0 0 1 300,0l0,620a150,150 0 0 1 -300,0l0,-310z" stroke-width="80" stroke-linecap="square" stroke-miterlimit="1.5" fill="none" stroke="black"/>
    </symbol>
   </defs>
   <rect id="svg_205" width="108.10184" height="151.5235" x="806.11957" y="185.13998" rx="12" ry="12" fill="white" stroke="black"/>
   <use id="svg_206" xlink:href="#svg_69" height="32" width="32" x="1205.50521" y="187.72789" href="#svg_69" stroke="null" transform="matrix(0.452309 0 0 0.452309 263.166 105.431)"/>
   <use id="svg_207" xlink:href="#svg_68" height="26.769" width="26.769" x="1208.12121" y="224.72789" fill="black" href="#svg_68" stroke="null" transform="matrix(0.452309 0 0 0.452309 263.166 105.431)"/>
   <use id="svg_208" xlink:href="#svg_68" height="70" width="70" x="1232.40421" y="208.22689" href="#svg_68" stroke="null" transform="matrix(0.452309 0 0 0.452309 263.166 105.431)"/>
   <use id="svg_209" xlink:href="#svg_68" height="70" width="70" x="1337.40621" y="208.22689" href="#svg_68" stroke="null" transform="matrix(0.452309 0 0 0.452309 263.166 105.431)"/>
   <use id="svg_210" xlink:href="#svg_68" height="70" width="70" x="1232.40421" y="275.22789" href="#svg_68" stroke="null" transform="matrix(0.452309 0 0 0.452309 263.166 105.431)"/>
   <use id="svg_211" xlink:href="#svg_68" height="70" width="70" x="1337.40621" y="275.22789" href="#svg_68" stroke="null" transform="matrix(0.452309 0 0 0.452309 263.166 105.431)"/>
   <use id="svg_212" xlink:href="#svg_68" height="70" width="70" x="1284.90521" y="241.72789" href="#svg_68" stroke="null" transform="matrix(0.452309 0 0 0.452309 263.166 105.431)"/>
   <g id="svg_213" transform="matrix(-0.452309 0 0 -0.452309 805.936 431.093)" stroke="null">
    <use id="svg_214" xlink:href="#svg_69" height="32" width="32" x="-234.30524" y="220.27211" href="#svg_69" stroke="null"/>
    <use id="svg_215" xlink:href="#svg_68" height="26.769" width="26.769" x="-231.68924" y="257.27211" fill="black" href="#svg_68" stroke="null"/>
    <use id="svg_216" xlink:href="#svg_68" height="70" width="70" x="-207.40624" y="240.77111" href="#svg_68" stroke="null"/>
    <use id="svg_217" xlink:href="#svg_68" height="70" width="70" x="-102.40424" y="240.77111" href="#svg_68" stroke="null"/>
    <use id="svg_218" xlink:href="#svg_68" height="70" width="70" x="-207.40624" y="307.77211" href="#svg_68" stroke="null"/>
    <use id="svg_219" xlink:href="#svg_68" height="70" width="70" x="-102.40424" y="307.77211" href="#svg_68" stroke="null"/>
    <use id="svg_220" xlink:href="#svg_68" height="70" width="70" x="-154.90524" y="274.27211" href="#svg_68" stroke="null"/>
   </g>
  </g>
  <g transform="rotate(-25.7519 514.296 62.553)" stroke="null">
   <defs stroke="null" transform="translate(0 11.4272) translate(22.8543 12.8556) translate(0 41.4235) translate(91.4173 -221.401) translate(-59.9926 7.14198) translate(0 1.4284) translate(118.557 -211.403) translate(-225.687 107.13) translate(600 0) translate(0 360) translate(313.378 96.7975) scale(0.725079 0.725079) translate(-313.378 -96.7975)">
    <symbol stroke="null" preserveAspectRatio="xMinYMid" viewBox="-600 -600 1200 1200" id="svg_221">
     <path stroke="null" d="m-400,0c50,0 400,-450 400,-500c0,50 350,500 400,500c-50,0 -400,450 -400,500c0,-50 -350,-500 -400,-500z"/>
    </symbol>
    <symbol stroke="null" preserveAspectRatio="xMinYMid" viewBox="-500 -500 1000 1000" id="svg_222">
     <path stroke="black" fill="none" stroke-miterlimit="1.5" stroke-linecap="square" stroke-width="80" d="m-260,430l0,-860m210,430l0,-310a150,150 0 0 1 300,0l0,620a150,150 0 0 1 -300,0l0,-310z"/>
    </symbol>
   </defs>
   <rect stroke="black" fill="white" ry="12" rx="12" y="-58.89764" x="427.64934" height="242.90135" width="173.2938"/>
   <use transform="matrix(0.725079 0 0 0.725079 86.1542 26.6117)" stroke="null" href="#svg_222" y="-106.43113" x="476.07667" width="32" height="32" xlink:href="#svg_222"/>
   <use transform="matrix(0.725079 0 0 0.725079 86.1542 26.6117)" stroke="black" href="#svg_221" stroke-linecap="round" stroke-linejoin="round" stroke-width="100" y="-69.43113" x="478.69267" width="26.769" height="26.769" xlink:href="#svg_221"/>
   <use transform="matrix(0.725079 0 0 0.725079 86.1542 26.6117)" stroke="null" href="#svg_221" fill="#000000" y="-69.43113" x="478.69267" width="26.769" height="26.769" xlink:href="#svg_221"/>
   <use transform="matrix(0.725079 0 0 0.725079 86.1542 26.6117)" stroke="null" href="#svg_221" y="-85.93213" x="502.97567" width="70" height="70" xlink:href="#svg_221"/>
   <use transform="matrix(0.725079 0 0 0.725079 86.1542 26.6117)" stroke="null" href="#svg_221" y="-85.93213" x="607.97767" width="70" height="70" xlink:href="#svg_221"/>
   <use transform="matrix(0.725079 0 0 0.725079 86.1542 26.6117)" stroke="null" href="#svg_221" y="-18.93113" x="502.97567" width="70" height="70" xlink:href="#svg_221"/>
   <use transform="matrix(0.725079 0 0 0.725079 86.1542 26.6117)" stroke="null" href="#svg_221" y="-18.93113" x="607.97767" width="70" height="70" xlink:href="#svg_221"/>
   <use transform="matrix(0.725079 0 0 0.725079 86.1542 26.6117)" stroke="null" href="#svg_221" y="-52.43113" x="555.47667" width="70" height="70" xlink:href="#svg_221"/>
   <g stroke="null" transform="matrix(-0.725079 0 0 -0.725079 713.895 409.885)">
    <use stroke="null" href="#svg_222" y="323.02611" x="160.87872" width="32" height="32" xlink:href="#svg_222"/>
    <use stroke="black" href="#svg_221" stroke-linecap="round" stroke-linejoin="round" stroke-width="100" y="360.02611" x="163.49472" width="26.769" height="26.769" xlink:href="#svg_221"/>
    <use stroke="null" href="#svg_221" fill="#000000" y="360.02611" x="163.49472" width="26.769" height="26.769" xlink:href="#svg_221"/>
    <use stroke="null" href="#svg_221" y="343.52511" x="187.77772" width="70" height="70" xlink:href="#svg_221"/>
    <use stroke="null" href="#svg_221" y="343.52511" x="292.77972" width="70" height="70" xlink:href="#svg_221"/>
    <use stroke="null" href="#svg_221" y="410.52611" x="187.77772" width="70" height="70" xlink:href="#svg_221"/>
    <use stroke="null" href="#svg_221" y="410.52611" x="292.77972" width="70" height="70" xlink:href="#svg_221"/>
    <use stroke="null" href="#svg_221" y="377.02611" x="240.27872" width="70" height="70" xlink:href="#svg_221"/>
   </g>
  </g>
  <g transform="rotate(7.13433 603.571 151.224)" stroke="null">
   <defs stroke="null" transform="translate(0 -24.2827) translate(-4.28519 -18.5691) translate(45.7087 -5.71358) translate(75.705 19.9975) translate(-168.551 -199.975) translate(-1.4284 0) translate(-2.85679 2.85679) translate(-1.4284 1.4284) translate(112.843 88.5605) translate(600 0) translate(0 360) translate(587.63 285.346) scale(0.683243 0.683243) translate(-587.63 -285.346) translate(724.17 154.217) scale(0.825053 0.825053) translate(-724.17 -154.217)">
    <symbol stroke="null" preserveAspectRatio="xMinYMid" viewBox="-600 -600 1200 1200" id="svg_223">
     <path stroke="null" d="m30,150c5,235 55,250 100,350l-260,0c45,-100 95,-115 100,-350a10,10 0 0 0 -20,0a210,210 0 1 1 -74,-201a10,10 0 0 0 14,-14a230,230 0 1 1 220,0a10,10 0 0 0 14,14a210,210 0 1 1 -74,201a10,10 0 0 0 -20,0z"/>
    </symbol>
    <symbol stroke="null" preserveAspectRatio="xMinYMid" viewBox="-500 -500 1000 1000" id="svg_224">
     <path stroke="black" fill="none" stroke-miterlimit="1.5" stroke-linecap="square" stroke-width="80" d="m-265,-320l0,-140l530,0c-130,260 -355,560 -355,920"/>
    </symbol>
   </defs>
   <rect stroke="black" fill="white" ry="12" rx="12" y="56.80242" x="536.20744" height="188.84344" width="134.72711"/>
   <use stroke="null" transform="matrix(0.563712 0 0 0.563712 240.133 93.0065)" href="#svg_224" y="-52.72439" x="530.32332" width="32" height="32" xlink:href="#svg_224"/>
   <use stroke="null" transform="matrix(0.563712 0 0 0.563712 240.133 93.0065)" href="#svg_223" fill="black" y="-15.72439" x="532.93932" width="26.769" height="26.769" xlink:href="#svg_223"/>
   <use stroke="null" transform="matrix(0.563712 0 0 0.563712 240.133 93.0065)" href="#svg_223" y="-32.31239" x="557.22232" width="70" height="70" xlink:href="#svg_223"/>
   <use stroke="null" transform="matrix(0.563712 0 0 0.563712 240.133 93.0065)" href="#svg_223" y="-32.31239" x="662.22432" width="70" height="70" xlink:href="#svg_223"/>
   <use stroke="null" transform="matrix(0.563712 0 0 0.563712 240.133 93.0065)" href="#svg_223" y="68.27561" x="557.22232" width="70" height="70" xlink:href="#svg_223"/>
   <use stroke="null" transform="matrix(0.563712 0 0 0.563712 240.133 93.0065)" href="#svg_223" y="68.27561" x="662.22432" width="70" height="70" xlink:href="#svg_223"/>
   <use stroke="null" transform="matrix(0.563712 0 0 0.563712 240.133 93.0065)" href="#svg_223" y="17.98161" x="609.72332" width="70" height="70" xlink:href="#svg_223"/>
   <g stroke="null" transform="matrix(-0.563712 0 0 -0.563712 1037.37 603.555)">
    <use stroke="null" href="#svg_224" y="646.41584" x="655.13603" width="32" height="32" xlink:href="#svg_224"/>
    <use stroke="null" href="#svg_223" fill="black" y="683.41584" x="657.75203" width="26.769" height="26.769" xlink:href="#svg_223"/>
    <use stroke="null" href="#svg_223" y="666.82784" x="682.03503" width="70" height="70" xlink:href="#svg_223"/>
    <use stroke="null" href="#svg_223" y="666.82784" x="787.03703" width="70" height="70" xlink:href="#svg_223"/>
   </g>
  </g>
 </g>
</svg>