<svg width="1200" height="719.9999999999999" xmlns="http://www.w3.org/2000/svg" xmlns:xlink="http://www.w3.org/1999/xlink" version="1.2">
 <g id="Layer_1">
  <title>Layer 1</title>
  <g transform="rotate(-7.03129 66.9999 39.3312)" id="svg_7" stroke="null">
   <defs transform="translate(20 8.33334) translate(-392 -88) translate(0 2) translate(500 0) translate(0 202.5) translate(380.5 37) scale(0.48954 0.48954) translate(-380.5 -37)" stroke="null">
    <symbol id="svg_1" viewBox="-600 -600 1200 1200" preserveAspectRatio="xMinYMid" stroke="null">
     <path id="svg_8" d="m30,150c5,235 55,250 100,350l-260,0c45,-100 95,-115 100,-350a10,10 0 0 0 -20,0a210,210 0 1 1 -74,-201a10,10 0 0 0 14,-14a230,230 0 1 1 220,0a10,10 0 0 0 14,14a210,210 0 1 1 -74,201a10,10 0 0 0 -20,0z" stroke="null"/>
    </symbol>
    <symbol id="svg_2" viewBox="-500 -500 1000 1000" preserveAspectRatio="xMinYMid" stroke="null">
     <path id="svg_9" d="m-250,-320l0,-140l450,0l-310,380c10,-10 60,-40 110,-40c200,0 250,120 250,270c0,200 -80,310 -280,310c-200,0 -230,-160 -230,-160" stroke-width="80" stroke-linecap="square" stroke-miterlimit="1.5" fill="none" stroke="black"/>
    </symbol>
   </defs>
   <rect id="svg_10" width="116.99997" height="163.99577" x="8.49992" y="-42.66668" rx="12" ry="12" fill="white" stroke="black"/>
   <use id="svg_11" xlink:href="#svg_2" height="32" width="32" x="-415.15253" y="-131.26078" stroke="null" transform="matrix(0.48954 0 0 0.48954 214.23 27.2203)"/>
   <use id="svg_12" xlink:href="#svg_1" height="26.769" width="26.769" x="-412.53653" y="-94.26078" fill="black" href="#svg_1" stroke="null" transform="matrix(0.48954 0 0 0.48954 214.23 27.2203)"/>
   <use id="svg_13" xlink:href="#svg_1" height="70" width="70" x="-335.75253" y="-110.84878" href="#svg_1" stroke="null" transform="matrix(0.48954 0 0 0.48954 214.23 27.2203)"/>
   <use id="svg_14" xlink:href="#svg_1" height="70" width="70" x="-335.75253" y="-10.26078" href="#svg_1" stroke="null" transform="matrix(0.48954 0 0 0.48954 214.23 27.2203)"/>
   <g id="svg_15" transform="matrix(-0.48954 0 0 -0.48954 683.77 219.109)" stroke="null">
    <use id="svg_16" xlink:href="#svg_2" height="32" width="32" x="1145.49781" y="211.23798" href="#svg_2" stroke="null"/>
    <use id="svg_17" xlink:href="#svg_1" height="26.769" width="26.769" x="1148.11381" y="248.23798" fill="black" href="#svg_1" stroke="null"/>
    <use id="svg_18" xlink:href="#svg_1" height="70" width="70" x="1224.89781" y="231.64998" href="#svg_1" stroke="null"/>
   </g>
  </g>
  <g id="svg_19" stroke="null">
   <defs transform="translate(-2 0) translate(-122 -30) translate(-6 0) translate(402 -200) translate(600 0) translate(0 360) translate(876.5 -7.50005) scale(0.623431 0.623431) translate(-876.5 7.50005) translate(1207.03 -60.1511) scale(0.798658 0.798658) translate(-1207.03 60.1511)" stroke="null">
    <symbol id="svg_5" viewBox="-600 -600 1200 1200" preserveAspectRatio="xMinYMid" stroke="null">
     <path id="svg_20" d="m-400,0c50,0 400,-450 400,-500c0,50 350,500 400,500c-50,0 -400,450 -400,500c0,-50 -350,-500 -400,-500z" stroke="null"/>
    </symbol>
    <symbol id="svg_6" viewBox="-500 -500 1000 1000" preserveAspectRatio="xMinYMid" stroke="null">
     <path id="svg_21" d="m50,-460l200,0m-100,0l0,710a100,100 0 0 1 -400,0l0,-30" stroke-width="80" stroke-linecap="square" stroke-miterlimit="1.5" fill="none" stroke="black"/>
    </symbol>
   </defs>
   <rect id="svg_22" width="118.99995" height="166.79909" x="752.50005" y="-37.50005" rx="12" ry="12" fill="white" stroke="black"/>
   <use id="svg_23" xlink:href="#svg_6" height="164.8" width="164.8" x="714.70066" y="29.47912" href="#svg_6" transform="matrix(0.497908 0 0 0.497908 415.117 -9.80599)" stroke="null"/>
   <use id="svg_24" xlink:href="#svg_6" height="32" width="32" x="682.70066" y="-44.12088" href="#svg_6" transform="matrix(0.497908 0 0 0.497908 415.117 -9.80599)" stroke="null"/>
   <use id="svg_25" xlink:href="#svg_5" height="26.769" width="26.769" x="685.31666" y="-7.12088" stroke-width="100" stroke-linejoin="round" stroke-linecap="round" href="#svg_5" transform="matrix(0.497908 0 0 0.497908 415.117 -9.80599)" stroke="black"/>
   <use id="svg_26" xlink:href="#svg_5" height="26.769" width="26.769" x="685.31666" y="-7.12088" fill="#000000" href="#svg_5" transform="matrix(0.497908 0 0 0.497908 415.117 -9.80599)" stroke="null"/>
   <g id="svg_27" transform="matrix(-0.497908 0 0 -0.497908 1406.95 149.524)" stroke="null">
    <use id="svg_28" xlink:href="#svg_6" height="32" width="32" x="1080.49952" y="52.12078" href="#svg_6" stroke="null"/>
    <use id="svg_29" xlink:href="#svg_5" height="26.769" width="26.769" x="1083.11552" y="89.12078" stroke-width="100" stroke-linejoin="round" stroke-linecap="round" href="#svg_5" stroke="black"/>
    <use id="svg_30" xlink:href="#svg_5" height="26.769" width="26.769" x="1083.11552" y="89.12078" fill="#000000" href="#svg_5" stroke="null"/>
   </g>
  </g>
  <g id="svg_31" stroke="null" transform="rotate(17.1042 743.913 157.429)">
   <defs transform="translate(-160 36) translate(9.80007 -4.98331) translate(-12 6) translate(-56 30) translate(530 72) translate(8.89038 -5.57695) translate(-104 -234) translate(600 0) translate(0 360) translate(376.5 -41.5001) scale(0.570637 0.570637) translate(-376.5 41.5001) translate(1484.99 106.763) scale(0.685164 0.685164) translate(-1484.99 -106.763)" stroke="null">
    <symbol id="svg_3" viewBox="-600 -600 1200 1200" preserveAspectRatio="xMinYMid" stroke="null">
     <path id="svg_32" d="m0,-300c0,-100 100,-200 200,-200c100,0 200,100 200,250c0,250 -400,650 -400,750c0,-100 -400,-500 -400,-750c0,-150 100,-250 200,-250c100,0 200,100 200,200z" stroke="null"/>
    </symbol>
    <symbol id="svg_4" viewBox="-500 -500 1000 1000" preserveAspectRatio="xMinYMid" stroke="null">
     <path id="svg_33" d="m-250,100a250,250 0 0 1 500,0l0,110a250,250 0 0 1 -500,0l0,-420a250,250 0 0 1 250,-250c150,0 180,60 200,85" stroke-width="80" stroke-linecap="square" stroke-miterlimit="1.5" fill="none" stroke="black"/>
    </symbol>
   </defs>
   <rect id="svg_34" width="93.44411" height="130.97815" x="697.19048" y="91.93971" rx="12" ry="12" fill="white" stroke="black"/>
   <use id="svg_35" xlink:href="#svg_4" height="32" width="32" x="822.63888" y="228.81986" href="#svg_4" transform="matrix(0.39098 0 0 0.39098 377.549 6.97209)" stroke="null"/>
   <use id="svg_36" xlink:href="#svg_3" height="26.769" width="26.769" x="825.25488" y="265.81986" stroke-width="100" stroke-linejoin="round" stroke-linecap="round" href="#svg_3" transform="matrix(0.39098 0 0 0.39098 377.549 6.97209)" stroke="black"/>
   <use id="svg_37" xlink:href="#svg_3" height="26.769" width="26.769" x="825.25488" y="265.81986" fill="#000000" href="#svg_3" transform="matrix(0.39098 0 0 0.39098 377.549 6.97209)" stroke="null"/>
   <use id="svg_38" xlink:href="#svg_3" height="70" width="70" x="849.53788" y="249.31886" href="#svg_3" transform="matrix(0.39098 0 0 0.39098 377.549 6.97209)" stroke="null"/>
   <use id="svg_39" xlink:href="#svg_3" height="70" width="70" x="954.53988" y="249.31886" href="#svg_3" transform="matrix(0.39098 0 0 0.39098 377.549 6.97209)" stroke="null"/>
   <use id="svg_40" xlink:href="#svg_3" height="70" width="70" x="849.53788" y="349.81986" href="#svg_3" transform="matrix(0.39098 0 0 0.39098 377.549 6.97209)" stroke="null"/>
   <use id="svg_41" xlink:href="#svg_3" height="70" width="70" x="954.53988" y="349.81986" href="#svg_3" transform="matrix(0.39098 0 0 0.39098 377.549 6.97209)" stroke="null"/>
   <g id="svg_42" transform="matrix(-0.39098 0 0 -0.39098 765.401 105.499)" stroke="null">
    <use id="svg_43" xlink:href="#svg_4" height="32" width="32" x="-59.4389" y="-288.81998" href="#svg_4" stroke="null"/>
    <use id="svg_44" xlink:href="#svg_3" height="26.769" width="26.769" x="-56.8229" y="-251.81998" stroke-width="100" stroke-linejoin="round" stroke-linecap="round" href="#svg_3" stroke="black"/>
    <use id="svg_45" xlink:href="#svg_3" height="26.769" width="26.769" x="-56.8229" y="-251.81998" fill="#000000" href="#svg_3" stroke="null"/>
    <use id="svg_46" xlink:href="#svg_3" height="70" width="70" x="-32.5399" y="-268.32098" href="#svg_3" stroke="null"/>
    <use id="svg_47" xlink:href="#svg_3" height="70" width="70" x="72.4621" y="-268.32098" href="#svg_3" stroke="null"/>
   </g>
  </g>
  <g transform="rotate(20.9371 1130 66.8827)" stroke="null">
   <defs stroke="null" transform="translate(-40 0) translate(180 -46.6667) translate(460 -148.333) translate(600 0) translate(0 360) translate(940.5 44.1666) scale(0.414226 0.414226) translate(-940.5 -44.1666)">
    <symbol stroke="null" preserveAspectRatio="xMinYMid" viewBox="-600 -600 1200 1200" id="svg_48">
     <path stroke="null" d="m0,-500c100,250 355,400 355,685a150,150 0 0 1 -300,0a10,10 0 0 0 -20,0c0,200 50,215 95,315l-260,0c45,-100 95,-115 95,-315a10,10 0 0 0 -20,0a150,150 0 0 1 -300,0c0,-285 255,-435 355,-685z"/>
    </symbol>
    <symbol stroke="null" preserveAspectRatio="xMinYMid" viewBox="-500 -500 1000 1000" id="svg_49">
     <path stroke="black" fill="none" stroke-miterlimit="1.5" stroke-linecap="square" stroke-width="80" d="m-225,-225c-20,-40 25,-235 225,-235c200,0 225,135 225,235c0,200 -450,385 -450,685l450,0l0,-160"/>
    </symbol>
   </defs>
   <rect stroke="black" fill="white" ry="12" rx="12" y="-2.50007" x="1080.50018" height="138.76563" width="98.99996"/>
   <use stroke="null" transform="matrix(0.414226 0 0 0.414226 730.921 -20.795)" href="#svg_49" y="55.66661" x="849.03442" width="32" height="32" xlink:href="#svg_49"/>
   <use stroke="null" transform="matrix(0.414226 0 0 0.414226 730.921 -20.795)" href="#svg_48" fill="black" y="92.66661" x="851.65042" width="26.769" height="26.769" xlink:href="#svg_48"/>
   <use stroke="null" transform="matrix(0.414226 0 0 0.414226 730.921 -20.795)" href="#svg_48" y="76.16561" x="928.43442" width="70" height="70" xlink:href="#svg_48"/>
   <g stroke="null" transform="matrix(-0.414226 0 0 -0.414226 1429.08 201.227)">
    <use stroke="null" href="#svg_49" y="168.32663" x="607.62008" width="32" height="32" xlink:href="#svg_49"/>
    <use stroke="null" href="#svg_48" fill="black" y="205.32663" x="610.23608" width="26.769" height="26.769" xlink:href="#svg_48"/>
    <use stroke="null" href="#svg_48" y="188.82563" x="687.02008" width="70" height="70" xlink:href="#svg_48"/>
   </g>
  </g>
  <g stroke="null">
   <defs stroke="null" transform="translate(10 -8.33334) translate(-113.333 48.3334) translate(-208.333 -236.667) translate(600 0) translate(0 360) translate(272.167 -44.1667) scale(0.637378 0.637378) translate(-272.167 44.1667)">
    <symbol stroke="null" preserveAspectRatio="xMinYMid" viewBox="-600 -600 1200 1200" id="svg_50">
     <path stroke="null" d="m-400,0c50,0 400,-450 400,-500c0,50 350,500 400,500c-50,0 -400,450 -400,500c0,-50 -350,-500 -400,-500z"/>
    </symbol>
    <symbol stroke="null" preserveAspectRatio="xMinYMid" viewBox="-500 -500 1000 1000" id="svg_51">
     <path stroke="black" fill="none" stroke-miterlimit="1.5" stroke-linecap="square" stroke-width="80" d="m50,460l200,0m-100,0l0,-920l-450,635l0,25l570,0"/>
    </symbol>
   </defs>
   <rect stroke="black" fill="white" ry="12" rx="12" y="-4.16673" x="168.83323" height="213.52158" width="152.33331"/>
   <use transform="matrix(0.637378 0 0 0.637378 98.6936 -16.0158)" stroke="null" href="#svg_51" y="30.0904" x="115.14397" width="32" height="32" xlink:href="#svg_51"/>
   <use transform="matrix(0.637378 0 0 0.637378 98.6936 -16.0158)" stroke="black" href="#svg_50" stroke-linecap="round" stroke-linejoin="round" stroke-width="100" y="67.0904" x="117.75997" width="26.769" height="26.769" xlink:href="#svg_50"/>
   <use transform="matrix(0.637378 0 0 0.637378 98.6936 -16.0158)" stroke="null" href="#svg_50" fill="#000000" y="67.0904" x="117.75997" width="26.769" height="26.769" xlink:href="#svg_50"/>
   <use transform="matrix(0.637378 0 0 0.637378 98.6936 -16.0158)" stroke="null" href="#svg_50" y="50.5894" x="142.04297" width="70" height="70" xlink:href="#svg_50"/>
   <use transform="matrix(0.637378 0 0 0.637378 98.6936 -16.0158)" stroke="null" href="#svg_50" y="50.5894" x="247.04497" width="70" height="70" xlink:href="#svg_50"/>
   <g stroke="null" transform="matrix(-0.637378 0 0 -0.637378 597.973 141.204)">
    <use stroke="null" href="#svg_51" y="-95.42389" x="439.38921" width="32" height="32" xlink:href="#svg_51"/>
    <use stroke="black" href="#svg_50" stroke-linecap="round" stroke-linejoin="round" stroke-width="100" y="-58.42389" x="442.00521" width="26.769" height="26.769" xlink:href="#svg_50"/>
    <use stroke="null" href="#svg_50" fill="#000000" y="-58.42389" x="442.00521" width="26.769" height="26.769" xlink:href="#svg_50"/>
    <use stroke="null" href="#svg_50" y="-74.92489" x="466.28821" width="70" height="70" xlink:href="#svg_50"/>
    <use stroke="null" href="#svg_50" y="-74.92489" x="571.29021" width="70" height="70" xlink:href="#svg_50"/>
   </g>
  </g>
  <g transform="rotate(10.7888 129.677 146.58)" stroke="null">
   <defs stroke="null" transform="translate(23.3333 -6.66667) translate(-2.53261 -2.18247) translate(-331.667 -13.3333) translate(-3.54537 3.10139) translate(-20 -65) translate(-66.6667 -61.6667) translate(600 0) translate(0 360) translate(413.833 130.833) scale(0.637378 0.637378) translate(-413.833 -130.833) translate(617.896 103.288) scale(0.794906 0.799227) translate(-617.896 -103.288) translate(115.702 444.149) scale(0.830048 0.830048) translate(-115.702 -444.149)">
    <symbol stroke="null" preserveAspectRatio="xMinYMid" viewBox="-600 -600 1200 1200" id="svg_52">
     <path stroke="null" d="m0,-300c0,-100 100,-200 200,-200c100,0 200,100 200,250c0,250 -400,650 -400,750c0,-100 -400,-500 -400,-750c0,-150 100,-250 200,-250c100,0 200,100 200,200z"/>
    </symbol>
    <symbol stroke="null" preserveAspectRatio="xMinYMid" viewBox="-500 -500 1000 1000" id="svg_53">
     <path stroke="black" fill="none" stroke-miterlimit="1.5" stroke-linecap="square" stroke-width="80" d="m170,-460l-345,0l-35,345c0,0 10,-85 210,-85c100,0 255,120 255,320c0,200 -75,340 -275,340c-200,0 -235,-175 -235,-175"/>
    </symbol>
   </defs>
   <rect stroke="black" fill="white" ry="12" rx="12" y="75.75493" x="79.42189" height="141.64941" width="100.51105"/>
   <use stroke="null" transform="matrix(0.420548 0 0 0.422834 173.49 78.7146)" href="#svg_53" y="4.50041" x="-218.57947" width="32" height="32" xlink:href="#svg_53"/>
   <use stroke="black" transform="matrix(0.420548 0 0 0.422834 173.49 78.7146)" href="#svg_52" stroke-linecap="round" stroke-linejoin="round" stroke-width="100" y="41.50041" x="-215.96347" width="26.769" height="26.769" xlink:href="#svg_52"/>
   <use stroke="null" transform="matrix(0.420548 0 0 0.422834 173.49 78.7146)" href="#svg_52" fill="#000000" y="41.50041" x="-215.96347" width="26.769" height="26.769" xlink:href="#svg_52"/>
   <use stroke="null" transform="matrix(0.420548 0 0 0.422834 173.49 78.7146)" href="#svg_52" y="24.99941" x="-191.68047" width="70" height="70" xlink:href="#svg_52"/>
   <use stroke="null" transform="matrix(0.420548 0 0 0.422834 173.49 78.7146)" href="#svg_52" y="24.99941" x="-86.67847" width="70" height="70" xlink:href="#svg_52"/>
   <use stroke="null" transform="matrix(0.420548 0 0 0.422834 173.49 78.7146)" href="#svg_52" y="125.50041" x="-139.17947" width="70" height="70" xlink:href="#svg_52"/>
   <g stroke="null" transform="matrix(-0.420548 0 0 -0.422834 624.607 333.188)">
    <use stroke="null" href="#svg_53" y="285.32774" x="1062.46825" width="32" height="32" xlink:href="#svg_53"/>
    <use stroke="black" href="#svg_52" stroke-linecap="round" stroke-linejoin="round" stroke-width="100" y="322.32774" x="1065.08425" width="26.769" height="26.769" xlink:href="#svg_52"/>
    <use stroke="null" href="#svg_52" fill="#000000" y="322.32774" x="1065.08425" width="26.769" height="26.769" xlink:href="#svg_52"/>
    <use stroke="null" href="#svg_52" y="305.82674" x="1089.36725" width="70" height="70" xlink:href="#svg_52"/>
    <use stroke="null" href="#svg_52" y="305.82674" x="1194.36925" width="70" height="70" xlink:href="#svg_52"/>
   </g>
  </g>
  <g transform="rotate(-12.6397 477.418 112.652)" stroke="null">
   <defs stroke="null" transform="translate(-7.54365 6.75077) translate(45 -75) translate(-133.333 -141.667) translate(600 0) translate(0 360) translate(392.167 -24.1667) scale(0.776525 0.776525) translate(-392.167 24.1667)">
    <symbol stroke="null" preserveAspectRatio="xMinYMid" viewBox="-600 -600 1200 1200" id="svg_54">
     <path stroke="null" d="m30,150c5,235 55,250 100,350l-260,0c45,-100 95,-115 100,-350a10,10 0 0 0 -20,0a210,210 0 1 1 -74,-201a10,10 0 0 0 14,-14a230,230 0 1 1 220,0a10,10 0 0 0 14,14a210,210 0 1 1 -74,201a10,10 0 0 0 -20,0z"/>
    </symbol>
    <symbol stroke="null" preserveAspectRatio="xMinYMid" viewBox="-500 -500 1000 1000" id="svg_55">
     <path stroke="black" fill="none" stroke-miterlimit="1.5" stroke-linecap="square" stroke-width="80" d="m-250,100a250,250 0 0 1 500,0l0,110a250,250 0 0 1 -500,0l0,-420a250,250 0 0 1 250,-250c150,0 180,60 200,85"/>
    </symbol>
   </defs>
   <rect stroke="black" fill="white" ry="12" rx="12" y="-17.41597" x="384.62299" height="260.136" width="185.58957"/>
   <use transform="matrix(0.776525 0 0 0.776525 87.6393 -5.40065)" stroke="null" href="#svg_55" y="-3.97318" x="387.55202" width="32" height="32" xlink:href="#svg_55"/>
   <use transform="matrix(0.776525 0 0 0.776525 87.6393 -5.40065)" stroke="null" href="#svg_54" fill="black" y="33.02682" x="390.16802" width="26.769" height="26.769" xlink:href="#svg_54"/>
   <use transform="matrix(0.776525 0 0 0.776525 87.6393 -5.40065)" stroke="null" href="#svg_54" y="16.43882" x="414.45102" width="70" height="70" xlink:href="#svg_54"/>
   <use transform="matrix(0.776525 0 0 0.776525 87.6393 -5.40065)" stroke="null" href="#svg_54" y="16.43882" x="519.45302" width="70" height="70" xlink:href="#svg_54"/>
   <use transform="matrix(0.776525 0 0 0.776525 87.6393 -5.40065)" stroke="null" href="#svg_54" y="117.02682" x="414.45102" width="70" height="70" xlink:href="#svg_54"/>
   <use transform="matrix(0.776525 0 0 0.776525 87.6393 -5.40065)" stroke="null" href="#svg_54" y="117.02682" x="519.45302" width="70" height="70" xlink:href="#svg_54"/>
   <g stroke="null" transform="matrix(-0.776525 0 0 -0.776525 882.284 217.203)">
    <use stroke="null" href="#svg_55" y="-21.3603" x="406.98126" width="32" height="32" xlink:href="#svg_55"/>
    <use stroke="null" href="#svg_54" fill="black" y="15.6397" x="409.59726" width="26.769" height="26.769" xlink:href="#svg_54"/>
    <use stroke="null" href="#svg_54" y="-0.9483" x="433.88026" width="70" height="70" xlink:href="#svg_54"/>
    <use stroke="null" href="#svg_54" y="-0.9483" x="538.88226" width="70" height="70" xlink:href="#svg_54"/>
   </g>
  </g>
  <g stroke="null">
   <defs stroke="null" transform="translate(33.3333 36.6667) translate(495 -173.333) translate(600 0) translate(0 360) translate(480.5 192.5) scale(0.637378 0.637378) translate(-480.5 -192.5) translate(1530.49 30.071) scale(0.737418 0.737418) translate(-1530.49 -30.071)">
    <symbol stroke="null" preserveAspectRatio="xMinYMid" viewBox="-600 -600 1200 1200" id="svg_56">
     <path stroke="null" d="m-400,0c50,0 400,-450 400,-500c0,50 350,500 400,500c-50,0 -400,450 -400,500c0,-50 -350,-500 -400,-500z"/>
    </symbol>
    <symbol stroke="null" preserveAspectRatio="xMinYMid" viewBox="-500 -500 1000 1000" id="svg_57">
     <path stroke="black" fill="none" stroke-miterlimit="1.5" stroke-linecap="square" stroke-width="80" d="m-265,-320l0,-140l530,0c-130,260 -355,560 -355,920"/>
    </symbol>
   </defs>
   <rect stroke="black" fill="white" ry="12" rx="12" y="55.83329" x="1008.83353" height="157.45462" width="112.3333"/>
   <use stroke="null" transform="matrix(0.470014 0 0 0.470014 384.637 56.5081)" href="#svg_57" y="10.06431" x="1333.1396" width="32" height="32" xlink:href="#svg_57"/>
   <use stroke="black" transform="matrix(0.470014 0 0 0.470014 384.637 56.5081)" href="#svg_56" stroke-linecap="round" stroke-linejoin="round" stroke-width="100" y="47.06431" x="1335.7556" width="26.769" height="26.769" xlink:href="#svg_56"/>
   <use stroke="null" transform="matrix(0.470014 0 0 0.470014 384.637 56.5081)" href="#svg_56" fill="#000000" y="47.06431" x="1335.7556" width="26.769" height="26.769" xlink:href="#svg_56"/>
   <use stroke="null" transform="matrix(0.470014 0 0 0.470014 384.637 56.5081)" href="#svg_56" y="30.56331" x="1360.0386" width="70" height="70" xlink:href="#svg_56"/>
   <use stroke="null" transform="matrix(0.470014 0 0 0.470014 384.637 56.5081)" href="#svg_56" y="30.56331" x="1465.0406" width="70" height="70" xlink:href="#svg_56"/>
   <use stroke="null" transform="matrix(0.470014 0 0 0.470014 384.637 56.5081)" href="#svg_56" y="131.06431" x="1360.0386" width="70" height="70" xlink:href="#svg_56"/>
   <use stroke="null" transform="matrix(0.470014 0 0 0.470014 384.637 56.5081)" href="#svg_56" y="131.06431" x="1465.0406" width="70" height="70" xlink:href="#svg_56"/>
   <use stroke="null" transform="matrix(0.470014 0 0 0.470014 384.637 56.5081)" href="#svg_56" y="80.81431" x="1412.5396" width="70" height="70" xlink:href="#svg_56"/>
   <g stroke="null" transform="matrix(-0.470014 0 0 -0.470014 948.653 394.918)">
    <use stroke="null" href="#svg_57" y="397.93568" x="-361.93962" width="32" height="32" xlink:href="#svg_57"/>
    <use stroke="black" href="#svg_56" stroke-linecap="round" stroke-linejoin="round" stroke-width="100" y="434.93568" x="-359.32362" width="26.769" height="26.769" xlink:href="#svg_56"/>
    <use stroke="null" href="#svg_56" fill="#000000" y="434.93568" x="-359.32362" width="26.769" height="26.769" xlink:href="#svg_56"/>
    <use stroke="null" href="#svg_56" y="418.43468" x="-335.04062" width="70" height="70" xlink:href="#svg_56"/>
    <use stroke="null" href="#svg_56" y="418.43468" x="-230.03862" width="70" height="70" xlink:href="#svg_56"/>
   </g>
  </g>
  <g stroke="null">
   <defs stroke="null" transform="translate(31.6667 -141.667) translate(51.6667 -138.333) translate(600 0) translate(0 360) translate(532.167 54.1666) scale(0.672245 0.672245) translate(-532.167 -54.1666)">
    <symbol stroke="null" preserveAspectRatio="xMinYMid" viewBox="-600 -600 1200 1200" id="svg_58">
     <path stroke="null" d="m0,-300c0,-100 100,-200 200,-200c100,0 200,100 200,250c0,250 -400,650 -400,750c0,-100 -400,-500 -400,-750c0,-150 100,-250 200,-250c100,0 200,100 200,200z"/>
    </symbol>
    <symbol stroke="null" preserveAspectRatio="xMinYMid" viewBox="-500 -500 1000 1000" id="svg_59">
     <path stroke="black" fill="none" stroke-miterlimit="1.5" stroke-linecap="square" stroke-width="80" d="m-1,-50a205,205 0 1 1 2,0l-2,0a255,255 0 1 0 2,0l-2,0z"/>
    </symbol>
   </defs>
   <rect stroke="black" fill="white" ry="12" rx="12" y="-87.50009" x="563.83336" height="225.2022" width="160.66665"/>
   <use transform="matrix(0.672245 0 0 0.672245 174.42 17.7534)" stroke="null" href="#svg_59" y="-145.06999" x="584.37251" width="32" height="32" xlink:href="#svg_59"/>
   <use transform="matrix(0.672245 0 0 0.672245 174.42 17.7534)" stroke="black" href="#svg_58" stroke-linecap="round" stroke-linejoin="round" stroke-width="100" y="-108.06999" x="586.98851" width="26.769" height="26.769" xlink:href="#svg_58"/>
   <use transform="matrix(0.672245 0 0 0.672245 174.42 17.7534)" stroke="null" href="#svg_58" fill="#000000" y="-108.06999" x="586.98851" width="26.769" height="26.769" xlink:href="#svg_58"/>
   <use transform="matrix(0.672245 0 0 0.672245 174.42 17.7534)" stroke="null" href="#svg_58" y="-124.57099" x="611.27151" width="70" height="70" xlink:href="#svg_58"/>
   <use transform="matrix(0.672245 0 0 0.672245 174.42 17.7534)" stroke="null" href="#svg_58" y="-124.57099" x="716.27351" width="70" height="70" xlink:href="#svg_58"/>
   <use transform="matrix(0.672245 0 0 0.672245 174.42 17.7534)" stroke="null" href="#svg_58" y="-74.31999" x="663.77251" width="70" height="70" xlink:href="#svg_58"/>
   <use transform="matrix(0.672245 0 0 0.672245 174.42 17.7534)" stroke="null" href="#svg_58" y="-24.06999" x="611.27151" width="70" height="70" xlink:href="#svg_58"/>
   <use transform="matrix(0.672245 0 0 0.672245 174.42 17.7534)" stroke="null" href="#svg_58" y="-24.06999" x="716.27351" width="70" height="70" xlink:href="#svg_58"/>
   <g stroke="null" transform="matrix(-0.672245 0 0 -0.672245 1050.58 315.782)">
    <use stroke="null" href="#svg_59" y="276.40324" x="490.16085" width="32" height="32" xlink:href="#svg_59"/>
    <use stroke="black" href="#svg_58" stroke-linecap="round" stroke-linejoin="round" stroke-width="100" y="313.40324" x="492.77685" width="26.769" height="26.769" xlink:href="#svg_58"/>
    <use stroke="null" href="#svg_58" fill="#000000" y="313.40324" x="492.77685" width="26.769" height="26.769" xlink:href="#svg_58"/>
    <use stroke="null" href="#svg_58" y="296.90224" x="517.05985" width="70" height="70" xlink:href="#svg_58"/>
    <use stroke="null" href="#svg_58" y="296.90224" x="622.06185" width="70" height="70" xlink:href="#svg_58"/>
    <use stroke="null" href="#svg_58" y="347.15324" x="569.56085" width="70" height="70" xlink:href="#svg_58"/>
   </g>
  </g>
  <g transform="rotate(-17.8408 948.333 54.9302)" stroke="null">
   <defs stroke="null" transform="translate(390 -246.667) translate(600 0) translate(0 360) translate(480.5 192.5) scale(0.651325 0.651325) translate(-480.5 -192.5)">
    <symbol stroke="null" preserveAspectRatio="xMinYMid" viewBox="-600 -600 1200 1200" id="svg_60">
     <path stroke="null" d="m0,-500c100,250 355,400 355,685a150,150 0 0 1 -300,0a10,10 0 0 0 -20,0c0,200 50,215 95,315l-260,0c45,-100 95,-115 95,-315a10,10 0 0 0 -20,0a150,150 0 0 1 -300,0c0,-285 255,-435 355,-685z"/>
    </symbol>
    <symbol stroke="null" preserveAspectRatio="xMinYMid" viewBox="-500 -500 1000 1000" id="svg_61">
     <path stroke="black" fill="none" stroke-miterlimit="1.5" stroke-linecap="square" stroke-width="80" d="m250,-100a250,250 0 0 1 -500,0l0,-110a250,250 0 0 1 500,0l0,420a250,250 0 0 1 -250,250c-150,0 -180,-60 -200,-85"/>
    </symbol>
   </defs>
   <rect stroke="black" fill="white" ry="12" rx="12" y="-54.16675" x="870.50012" height="218.19383" width="155.66664"/>
   <use transform="matrix(0.651325 0 0 0.651325 167.538 67.12)" stroke="null" href="#svg_61" y="-174.71538" x="1084.37972" width="32" height="32" xlink:href="#svg_61"/>
   <use transform="matrix(0.651325 0 0 0.651325 167.538 67.12)" stroke="null" href="#svg_60" fill="black" y="-137.71538" x="1086.99572" width="26.769" height="26.769" xlink:href="#svg_60"/>
   <use transform="matrix(0.651325 0 0 0.651325 167.538 67.12)" stroke="null" href="#svg_60" y="-154.21638" x="1111.27872" width="70" height="70" xlink:href="#svg_60"/>
   <use transform="matrix(0.651325 0 0 0.651325 167.538 67.12)" stroke="null" href="#svg_60" y="-154.21638" x="1216.28072" width="70" height="70" xlink:href="#svg_60"/>
   <use transform="matrix(0.651325 0 0 0.651325 167.538 67.12)" stroke="null" href="#svg_60" y="-87.21538" x="1111.27872" width="70" height="70" xlink:href="#svg_60"/>
   <use transform="matrix(0.651325 0 0 0.651325 167.538 67.12)" stroke="null" href="#svg_60" y="-87.21538" x="1216.28072" width="70" height="70" xlink:href="#svg_60"/>
   <use transform="matrix(0.651325 0 0 0.651325 167.538 67.12)" stroke="null" href="#svg_60" y="-53.71538" x="1163.77972" width="70" height="70" xlink:href="#svg_60"/>
   <g stroke="null" transform="matrix(-0.651325 0 0 -0.651325 949.128 536.074)">
    <use stroke="null" href="#svg_61" y="582.71539" x="-113.17972" width="32" height="32" xlink:href="#svg_61"/>
    <use stroke="null" href="#svg_60" fill="black" y="619.71539" x="-110.56372" width="26.769" height="26.769" xlink:href="#svg_60"/>
    <use stroke="null" href="#svg_60" y="603.21439" x="-86.28072" width="70" height="70" xlink:href="#svg_60"/>
    <use stroke="null" href="#svg_60" y="603.21439" x="18.72128" width="70" height="70" xlink:href="#svg_60"/>
    <use stroke="null" href="#svg_60" y="670.21539" x="-86.28072" width="70" height="70" xlink:href="#svg_60"/>
    <use stroke="null" href="#svg_60" y="670.21539" x="18.72128" width="70" height="70" xlink:href="#svg_60"/>
   </g>
  </g>
  <g transform="rotate(11.2319 377.273 210.656)" stroke="null">
   <defs stroke="null" transform="translate(40 35) translate(6.6292 -3.81032) translate(-3.33333 -28.3333) translate(0 21.6667) translate(-205 -88.3334) translate(600 0) translate(0 360) translate(275.5 104.167) scale(0.679219 0.679219) translate(-275.5 -104.167) translate(400.705 143.547) scale(0.720459 0.720459) translate(-400.705 -143.547)">
    <symbol stroke="null" preserveAspectRatio="xMinYMid" viewBox="-500 -500 1000 1000" id="svg_63">
     <path stroke="black" fill="none" stroke-miterlimit="1.5" stroke-linecap="square" stroke-width="80" d="m-270,460l160,0m-90,-10l200,-910l200,910m-90,10l160,0m-390,-330l240,0"/>
    </symbol>
    <symbol stroke="null" preserveAspectRatio="xMinYMid" viewBox="-600 -600 1200 1200" id="svg_62">
     <path stroke="null" d="m30,150c5,235 55,250 100,350l-260,0c45,-100 95,-115 100,-350a10,10 0 0 0 -20,0a210,210 0 1 1 -74,-201a10,10 0 0 0 14,-14a230,230 0 1 1 220,0a10,10 0 0 0 14,14a210,210 0 1 1 -74,201a10,10 0 0 0 -20,0z"/>
    </symbol>
   </defs>
   <rect stroke="black" fill="white" ry="12" rx="12" y="128.68966" x="318.79581" height="163.93209" width="116.95453"/>
   <use stroke="null" transform="matrix(0.48935 0 0 0.48935 146.382 47.5188)" href="#svg_62" y="298.37498" x="436.83352" width="70" height="70" xlink:href="#svg_62"/>
   <use stroke="null" transform="matrix(0.48935 0 0 0.48935 146.382 47.5188)" href="#svg_63" y="177.37498" x="357.43352" width="32" height="32" xlink:href="#svg_63"/>
   <use stroke="null" transform="matrix(0.48935 0 0 0.48935 146.382 47.5188)" href="#svg_62" fill="black" y="214.37498" x="360.04952" width="26.769" height="26.769" xlink:href="#svg_62"/>
   <g stroke="null" transform="matrix(-0.48935 0 0 -0.48935 526.338 317.209)">
    <use stroke="null" href="#svg_63" y="61.74478" x="190.21937" width="32" height="32" xlink:href="#svg_63"/>
    <use stroke="null" href="#svg_62" fill="black" y="98.74478" x="192.83537" width="26.769" height="26.769" xlink:href="#svg_62"/>
   </g>
  </g>
  <g transform="rotate(-11.2569 67.4998 241.056)" stroke="null">
   <defs stroke="null" transform="translate(10 1.66667) translate(-71.6667 23.3333) translate(-405 -51.6667) translate(600 0) translate(0 360) translate(75.4998 140.833) scale(0.658298 0.658298) translate(-75.4998 -140.833) translate(114.689 213.935) scale(0.682203 0.682203) translate(-114.689 -213.935)">
    <symbol stroke="null" preserveAspectRatio="xMinYMid" viewBox="-600 -600 1200 1200" id="svg_66">
     <path stroke="null" d="m0,-300c0,-100 100,-200 200,-200c100,0 200,100 200,250c0,250 -400,650 -400,750c0,-100 -400,-500 -400,-750c0,-150 100,-250 200,-250c100,0 200,100 200,200z"/>
    </symbol>
    <symbol stroke="null" preserveAspectRatio="xMinYMid" viewBox="-500 -500 1000 1000" id="svg_67">
     <path stroke="black" fill="none" stroke-miterlimit="1.5" stroke-linecap="square" stroke-width="80" d="m-260,100c300,0 220,360 520,360m-435,-460l0,-285a175,175 0 0 1 350,0l0,570a175,175 0 0 1 -350,0l0,-285z"/>
    </symbol>
   </defs>
   <rect stroke="black" fill="white" ry="12" rx="12" y="165.83332" x="13.83316" height="150.44625" width="107.33329"/>
   <use stroke="null" transform="matrix(0.449093 0 0 0.449093 41.5934 77.586)" href="#svg_67" y="281.60106" x="-24.71392" width="164.8" height="164.8" xlink:href="#svg_67"/>
   <use stroke="null" transform="matrix(0.449093 0 0 0.449093 41.5934 77.586)" href="#svg_67" y="208.00106" x="-56.71392" width="32" height="32" xlink:href="#svg_67"/>
   <use stroke="black" transform="matrix(0.449093 0 0 0.449093 41.5934 77.586)" href="#svg_66" stroke-linecap="round" stroke-linejoin="round" stroke-width="100" y="245.00106" x="-54.09792" width="26.769" height="26.769" xlink:href="#svg_66"/>
   <use stroke="null" transform="matrix(0.449093 0 0 0.449093 41.5934 77.586)" href="#svg_66" fill="#000000" y="245.00106" x="-54.09792" width="26.769" height="26.769" xlink:href="#svg_66"/>
   <g stroke="null" transform="matrix(-0.449093 0 0 -0.449093 216.74 354.527)">
    <use stroke="null" href="#svg_67" y="96.66558" x="217.91362" width="32" height="32" xlink:href="#svg_67"/>
    <use stroke="black" href="#svg_66" stroke-linecap="round" stroke-linejoin="round" stroke-width="100" y="133.66558" x="220.52962" width="26.769" height="26.769" xlink:href="#svg_66"/>
    <use stroke="null" href="#svg_66" fill="#000000" y="133.66558" x="220.52962" width="26.769" height="26.769" xlink:href="#svg_66"/>
   </g>
  </g>
  <g transform="rotate(12.9846 860.17 260.902)" stroke="null">
   <defs stroke="null" transform="translate(0 16.6667) translate(303.333 -11.6667) translate(22.2861 -12.36) translate(600 0) translate(0 360) translate(480.5 192.5) scale(0.452309 0.452309) translate(-480.5 -192.5)">
    <symbol stroke="null" preserveAspectRatio="xMinYMid" viewBox="-600 -600 1200 1200" id="svg_68">
     <path stroke="null" d="m0,-500c100,250 355,400 355,685a150,150 0 0 1 -300,0a10,10 0 0 0 -20,0c0,200 50,215 95,315l-260,0c45,-100 95,-115 95,-315a10,10 0 0 0 -20,0a150,150 0 0 1 -300,0c0,-285 255,-435 355,-685z"/>
    </symbol>
    <symbol stroke="null" preserveAspectRatio="xMinYMid" viewBox="-500 -500 1000 1000" id="svg_69">
     <path stroke="black" fill="none" stroke-miterlimit="1.5" stroke-linecap="square" stroke-width="80" d="m-260,430l0,-860m210,430l0,-310a150,150 0 0 1 300,0l0,620a150,150 0 0 1 -300,0l0,-310z"/>
    </symbol>
   </defs>
   <rect stroke="black" fill="white" ry="12" rx="12" y="185.13998" x="806.11957" height="151.5235" width="108.10184"/>
   <use transform="matrix(0.452309 0 0 0.452309 263.166 105.431)" stroke="null" href="#svg_69" y="187.72789" x="1205.50521" width="32" height="32" xlink:href="#svg_69"/>
   <use transform="matrix(0.452309 0 0 0.452309 263.166 105.431)" stroke="null" href="#svg_68" fill="black" y="224.72789" x="1208.12121" width="26.769" height="26.769" xlink:href="#svg_68"/>
   <use transform="matrix(0.452309 0 0 0.452309 263.166 105.431)" stroke="null" href="#svg_68" y="208.22689" x="1232.40421" width="70" height="70" xlink:href="#svg_68"/>
   <use transform="matrix(0.452309 0 0 0.452309 263.166 105.431)" stroke="null" href="#svg_68" y="208.22689" x="1337.40621" width="70" height="70" xlink:href="#svg_68"/>
   <use transform="matrix(0.452309 0 0 0.452309 263.166 105.431)" stroke="null" href="#svg_68" y="275.22789" x="1232.40421" width="70" height="70" xlink:href="#svg_68"/>
   <use transform="matrix(0.452309 0 0 0.452309 263.166 105.431)" stroke="null" href="#svg_68" y="275.22789" x="1337.40621" width="70" height="70" xlink:href="#svg_68"/>
   <use transform="matrix(0.452309 0 0 0.452309 263.166 105.431)" stroke="null" href="#svg_68" y="241.72789" x="1284.90521" width="70" height="70" xlink:href="#svg_68"/>
   <g stroke="null" transform="matrix(-0.452309 0 0 -0.452309 805.936 431.093)">
    <use stroke="null" href="#svg_69" y="220.27211" x="-234.30524" width="32" height="32" xlink:href="#svg_69"/>
    <use stroke="null" href="#svg_68" fill="black" y="257.27211" x="-231.68924" width="26.769" height="26.769" xlink:href="#svg_68"/>
    <use stroke="null" href="#svg_68" y="240.77111" x="-207.40624" width="70" height="70" xlink:href="#svg_68"/>
    <use stroke="null" href="#svg_68" y="240.77111" x="-102.40424" width="70" height="70" xlink:href="#svg_68"/>
    <use stroke="null" href="#svg_68" y="307.77211" x="-207.40624" width="70" height="70" xlink:href="#svg_68"/>
    <use stroke="null" href="#svg_68" y="307.77211" x="-102.40424" width="70" height="70" xlink:href="#svg_68"/>
    <use stroke="null" href="#svg_68" y="274.27211" x="-154.90524" width="70" height="70" xlink:href="#svg_68"/>
   </g>
  </g>
 </g>
</svg>