<svg xmlns="http://www.w3.org/2000/svg"  version="1.2" viewBox="0 0 76 76" preserveAspectRatio="xMidYMid meet" class="svg-content" viewBox="0 0 76 76"><circle cx="39.19231" cy="39.38461" r="36" fill="none"/><circle cx="38" cy="38.19231" r="35" stroke="#000"/><circle cx="38" cy="38.19231" r="32" fill="#fff" stroke="#000"/><circle cx="38" cy="38.19231" r="25" stroke="#000"/><circle cx="38" cy="38.38461" r="25" fill="#fff" stroke="#000" stroke-width="2"/><text xml:space="preserve" x="33" y="46" stroke="#000" stroke-width="0" font-family="'Besley'" font-size="20" font-weight="bold">1</text><path stroke="#000" d="m50.61539 6.52245-4.61538 6.80135H30.61543l-4.61537-6.80135h24.61533zM26.38461 70.7531l4.61538-7.30768h15.38458l4.61537 7.30768H26.38461zM16.4081717 11.38939646l3.97952453 7.62696133-7.69229 13.3234371-8.59489952.36710267 12.307665-21.3175011zM59.3066057 65.8351239l-4.26201336-7.79005633 7.69229-13.3234371 8.87738836-.20400767-12.307665 21.3175011zM71.74563175 33.86071122l-8.08491948-.66155133-7.69229-13.3234371 3.46954448-7.33251267 12.307665 21.3175011zM4.67741642 43.66167414l8.0566351.67788133 7.69229 13.3234371-3.4412601 7.31618267-12.307665-21.3175011z"/><path fill="none" stroke="#000" stroke-width="3" d="M38 58.16667c-11.04972 0-20-8.95028-20-20s8.95028-20 20-20 20 8.95028 20 20-8.95028 20-20 20z" opacity="undefined"/></svg>