<svg width="76" height="76" xmlns="http://www.w3.org/2000/svg" version="1.2">
 <g id="Layer_1">
  <title>Layer 1</title>
  <ellipse ry="36" rx="36" id="svg_6" cy="39.38461" cx="39.19231" fill="none"/>
  <ellipse ry="35" rx="35" id="svg_1" cy="38.19231" cx="38" stroke="#000" fill="#000000"/>
  <ellipse ry="32" rx="32" id="svg_2" cy="38.19231" cx="38" stroke="#000" fill="#fff"/>
  <ellipse ry="25" rx="25" id="svg_3" cy="38.19231" cx="38" stroke="#000" fill="#000000"/>
  <ellipse stroke-width="2" ry="25" rx="25" id="svg_4" cy="38.38461" cx="38" stroke="#000" fill="#ffffff"/>
  <text style="cursor: move;" font-weight="bold" xml:space="preserve" text-anchor="start" font-family="'Besley'" font-size="20" stroke-width="0" id="svg_5" y="46" x="21" stroke="#000" fill="#000000">100</text>
  <path transform="rotate(180 38.3077 9.92313)" stroke="#000" id="svg_10" d="m26.00001,13.32381l4.61538,-6.80135l15.38458,0l4.61537,6.80135l-24.61533,0z" fill="#000000"/>
  <path stroke="#000" id="svg_16" d="m26.38461,70.7531l4.61538,-7.30768l15.38458,0l4.61537,7.30768l-24.61533,0z" fill="#000000"/>
  <path transform="rotate(120 13.3979 23.8631)" stroke="#000" id="svg_17" d="m1.09022,27.49298l4.61538,-7.25985l15.38458,0l4.61537,7.25985l-24.61533,0z" fill="#000000"/>
  <path transform="rotate(-60 62.1756 53.2799)" stroke="#000" id="svg_18" d="m49.86796,57.07289l4.61538,-7.58604l15.38458,0l4.61537,7.58604l-24.61533,0z" fill="#000000"/>
  <path transform="rotate(-120 62.7032 24.8697)" stroke="#000" id="svg_19" d="m50.39554,28.20517l4.61538,-6.67097l15.38458,0l4.61537,6.67097l-24.61533,0z" fill="#000000"/>
  <path transform="rotate(60 13.7057 52.6609)" stroke="#000" id="svg_20" d="m1.398,55.98001l4.61538,-6.63831l15.38458,0l4.61537,6.63831l-24.61533,0z" fill="#000000"/>
  <path id="svg_21" d="m38,58.16667c-11.04972,0 -20,-8.95028 -20,-20c0,-11.04972 8.95028,-20 20,-20c11.04972,0 20,8.95028 20,20c0,11.04972 -8.95028,20 -20,20z" opacity="undefined" stroke-width="3" stroke="#000000" fill="none"/>
 </g>
</svg>