<?xml version="1.0" encoding="UTF-8"?>
<svg xmlns="http://www.w3.org/2000/svg" xmlns:xlink="http://www.w3.org/1999/xlink" width="80px" height="px" viewBox="0 0 80 112" version="1.1">
<defs>
<clipPath id="clip1">
  <path d="M 2 4 L 12 4 L 12 14.667969 L 2 14.667969 Z M 2 4 "/>
</clipPath>
<clipPath id="clip2">
  <path d="M 68 97.332031 L 78 97.332031 L 78 108 L 68 108 Z M 68 97.332031 "/>
</clipPath>
</defs>
<g id="surface1">
<path style="fill-rule:nonzero;fill:rgb(100%,100%,100%);fill-opacity:1;stroke-width:1;stroke-linecap:butt;stroke-linejoin:miter;stroke:rgb(0%,0%,0%);stroke-opacity:1;stroke-miterlimit:4;" d="M -107.496094 -167.496094 L 107.496094 -167.496094 C 114.128906 -167.496094 119.496094 -162.128906 119.496094 -155.496094 L 119.496094 155.496094 C 119.496094 162.128906 114.128906 167.496094 107.496094 167.496094 L -107.496094 167.496094 C -114.128906 167.496094 -119.496094 162.128906 -119.496094 155.496094 L -119.496094 -155.496094 C -119.496094 -162.128906 -114.128906 -167.496094 -107.496094 -167.496094 Z M -107.496094 -167.496094 " transform="matrix(0.333333,0,0,0.333333,40,56)"/>
<g clip-path="url(#clip1)" clip-rule="nonzero">
<path style="fill:none;stroke-width:80;stroke-linecap:square;stroke-linejoin:miter;stroke:rgb(0%,0%,0%);stroke-opacity:1;stroke-miterlimit:1.5;" d="M 50.097656 459.838867 L 250.048828 459.838867 M 150.073242 459.838867 L 150.073242 -460.083008 L -300 174.926758 L -300 199.829102 L 269.824219 199.829102 " transform="matrix(0.0106667,0,0,0.0106667,7.2,9.333333)"/>
</g>
<path style=" stroke:none;fill-rule:nonzero;fill:rgb(0%,0%,0%);fill-opacity:1;" d="M 7.421875 21.910156 C 7.460938 23.65625 7.832031 23.769531 8.167969 24.511719 L 6.234375 24.511719 C 6.566406 23.769531 6.941406 23.65625 6.976562 21.910156 C 6.976562 21.871094 6.945312 21.835938 6.902344 21.835938 C 6.863281 21.835938 6.828125 21.871094 6.828125 21.910156 C 6.699219 22.601562 6.125 23.121094 5.425781 23.183594 C 4.726562 23.242188 4.070312 22.828125 3.828125 22.167969 C 3.585938 21.507812 3.8125 20.765625 4.386719 20.355469 C 4.957031 19.949219 5.734375 19.972656 6.277344 20.414062 C 6.308594 20.4375 6.347656 20.433594 6.375 20.410156 C 6.402344 20.382812 6.40625 20.339844 6.382812 20.3125 C 5.695312 19.9375 5.351562 19.144531 5.542969 18.386719 C 5.734375 17.628906 6.417969 17.097656 7.199219 17.097656 C 7.980469 17.097656 8.664062 17.628906 8.859375 18.386719 C 9.050781 19.144531 8.703125 19.9375 8.019531 20.3125 C 7.996094 20.339844 8 20.382812 8.023438 20.410156 C 8.050781 20.433594 8.09375 20.4375 8.121094 20.414062 C 8.667969 19.972656 9.441406 19.949219 10.015625 20.355469 C 10.585938 20.765625 10.816406 21.507812 10.574219 22.167969 C 10.328125 22.828125 9.675781 23.242188 8.976562 23.183594 C 8.273438 23.121094 7.699219 22.601562 7.570312 21.910156 C 7.570312 21.871094 7.539062 21.835938 7.496094 21.835938 C 7.457031 21.835938 7.421875 21.871094 7.421875 21.910156 Z M 7.421875 21.910156 "/>
<path style=" stroke:none;fill-rule:nonzero;fill:rgb(0%,0%,0%);fill-opacity:1;" d="M 23.082031 25.386719 C 23.179688 29.957031 24.152344 30.25 25.027344 32.191406 L 19.972656 32.191406 C 20.847656 30.25 21.820312 29.957031 21.917969 25.386719 C 21.917969 25.28125 21.828125 25.191406 21.722656 25.191406 C 21.613281 25.191406 21.527344 25.28125 21.527344 25.386719 C 21.195312 27.195312 19.691406 28.558594 17.859375 28.714844 C 16.027344 28.871094 14.316406 27.785156 13.679688 26.058594 C 13.042969 24.332031 13.640625 22.394531 15.136719 21.324219 C 16.636719 20.253906 18.660156 20.316406 20.089844 21.480469 C 20.164062 21.535156 20.273438 21.53125 20.34375 21.460938 C 20.410156 21.390625 20.417969 21.285156 20.359375 21.207031 C 18.566406 20.230469 17.660156 18.15625 18.164062 16.175781 C 18.671875 14.195312 20.453125 12.808594 22.5 12.808594 C 24.542969 12.808594 26.328125 14.195312 26.832031 16.175781 C 27.339844 18.15625 26.433594 20.230469 24.636719 21.207031 C 24.582031 21.285156 24.589844 21.390625 24.65625 21.460938 C 24.726562 21.53125 24.832031 21.535156 24.910156 21.480469 C 26.335938 20.316406 28.363281 20.253906 29.859375 21.324219 C 31.359375 22.394531 31.953125 24.332031 31.320312 26.058594 C 30.683594 27.785156 28.972656 28.871094 27.140625 28.714844 C 25.308594 28.558594 23.804688 27.195312 23.472656 25.386719 C 23.472656 25.28125 23.386719 25.191406 23.277344 25.191406 C 23.171875 25.191406 23.082031 25.28125 23.082031 25.386719 Z M 23.082031 25.386719 "/>
<path style=" stroke:none;fill-rule:nonzero;fill:rgb(0%,0%,0%);fill-opacity:1;" d="M 58.082031 25.386719 C 58.179688 29.957031 59.152344 30.25 60.027344 32.191406 L 54.972656 32.191406 C 55.847656 30.25 56.820312 29.957031 56.917969 25.386719 C 56.917969 25.28125 56.828125 25.191406 56.722656 25.191406 C 56.613281 25.191406 56.527344 25.28125 56.527344 25.386719 C 56.195312 27.195312 54.691406 28.558594 52.859375 28.714844 C 51.027344 28.871094 49.316406 27.785156 48.679688 26.058594 C 48.046875 24.332031 48.640625 22.394531 50.140625 21.324219 C 51.636719 20.253906 53.664062 20.316406 55.089844 21.480469 C 55.167969 21.535156 55.273438 21.53125 55.34375 21.460938 C 55.410156 21.390625 55.417969 21.285156 55.363281 21.207031 C 53.566406 20.230469 52.660156 18.15625 53.167969 16.175781 C 53.671875 14.195312 55.457031 12.808594 57.5 12.808594 C 59.546875 12.808594 61.328125 14.195312 61.835938 16.175781 C 62.339844 18.15625 61.433594 20.230469 59.640625 21.207031 C 59.582031 21.285156 59.589844 21.390625 59.65625 21.460938 C 59.726562 21.53125 59.835938 21.535156 59.910156 21.480469 C 61.339844 20.316406 63.363281 20.253906 64.863281 21.324219 C 66.359375 22.394531 66.957031 24.332031 66.320312 26.058594 C 65.683594 27.785156 63.972656 28.871094 62.140625 28.714844 C 60.308594 28.558594 58.804688 27.195312 58.472656 25.386719 C 58.472656 25.28125 58.386719 25.191406 58.277344 25.191406 C 58.171875 25.191406 58.082031 25.28125 58.082031 25.386719 Z M 58.082031 25.386719 "/>
<g clip-path="url(#clip2)" clip-rule="nonzero">
<path style="fill:none;stroke-width:80;stroke-linecap:square;stroke-linejoin:miter;stroke:rgb(0%,0%,0%);stroke-opacity:1;stroke-miterlimit:1.5;" d="M 50.097656 459.838867 L 250.048828 459.838867 M 150.073242 459.838867 L 150.073242 -460.083008 L -300 174.926758 L -300 199.829102 L 269.824219 199.829102 " transform="matrix(-0.0106667,0.000000000000000001,-0.000000000000000001,-0.0106667,72.8,102.666667)"/>
</g>
<path style=" stroke:none;fill-rule:nonzero;fill:rgb(0%,0%,0%);fill-opacity:1;" d="M 72.578125 90.089844 C 72.539062 88.34375 72.167969 88.230469 71.832031 87.488281 L 73.765625 87.488281 C 73.433594 88.230469 73.058594 88.34375 73.023438 90.089844 C 73.023438 90.128906 73.054688 90.164062 73.097656 90.164062 C 73.136719 90.164062 73.171875 90.128906 73.171875 90.089844 C 73.300781 89.398438 73.875 88.878906 74.574219 88.816406 C 75.273438 88.757812 75.929688 89.171875 76.171875 89.832031 C 76.414062 90.492188 76.1875 91.234375 75.613281 91.644531 C 75.042969 92.050781 74.265625 92.027344 73.722656 91.585938 C 73.691406 91.5625 73.652344 91.566406 73.625 91.589844 C 73.597656 91.617188 73.59375 91.660156 73.617188 91.6875 C 74.304688 92.0625 74.648438 92.855469 74.457031 93.613281 C 74.265625 94.371094 73.582031 94.902344 72.800781 94.902344 C 72.019531 94.902344 71.335938 94.371094 71.140625 93.613281 C 70.949219 92.855469 71.296875 92.0625 71.980469 91.6875 C 72.003906 91.660156 72 91.617188 71.976562 91.589844 C 71.949219 91.566406 71.90625 91.5625 71.878906 91.585938 C 71.332031 92.027344 70.558594 92.050781 69.984375 91.644531 C 69.414062 91.234375 69.183594 90.492188 69.425781 89.832031 C 69.671875 89.171875 70.324219 88.757812 71.023438 88.816406 C 71.726562 88.878906 72.300781 89.398438 72.429688 90.089844 C 72.429688 90.128906 72.460938 90.164062 72.503906 90.164062 C 72.542969 90.164062 72.578125 90.128906 72.578125 90.089844 Z M 72.578125 90.089844 "/>
<path style=" stroke:none;fill-rule:nonzero;fill:rgb(0%,0%,0%);fill-opacity:1;" d="M 56.917969 86.613281 C 56.820312 82.042969 55.847656 81.75 54.972656 79.808594 L 60.027344 79.808594 C 59.152344 81.75 58.179688 82.042969 58.082031 86.613281 C 58.082031 86.71875 58.171875 86.808594 58.277344 86.808594 C 58.386719 86.808594 58.472656 86.71875 58.472656 86.613281 C 58.804688 84.804688 60.308594 83.441406 62.140625 83.285156 C 63.972656 83.128906 65.683594 84.214844 66.320312 85.941406 C 66.957031 87.667969 66.359375 89.605469 64.863281 90.675781 C 63.363281 91.746094 61.339844 91.683594 59.910156 90.519531 C 59.835938 90.464844 59.726562 90.46875 59.65625 90.539062 C 59.589844 90.609375 59.582031 90.714844 59.640625 90.792969 C 61.433594 91.769531 62.339844 93.84375 61.835938 95.824219 C 61.328125 97.804688 59.546875 99.191406 57.5 99.191406 C 55.457031 99.191406 53.671875 97.804688 53.167969 95.824219 C 52.660156 93.84375 53.566406 91.769531 55.363281 90.792969 C 55.417969 90.714844 55.410156 90.609375 55.34375 90.539062 C 55.273438 90.46875 55.167969 90.464844 55.089844 90.519531 C 53.664062 91.683594 51.636719 91.746094 50.140625 90.675781 C 48.640625 89.605469 48.046875 87.667969 48.679688 85.941406 C 49.316406 84.214844 51.027344 83.128906 52.859375 83.285156 C 54.691406 83.441406 56.195312 84.804688 56.527344 86.613281 C 56.527344 86.71875 56.613281 86.808594 56.722656 86.808594 C 56.828125 86.808594 56.917969 86.71875 56.917969 86.613281 Z M 56.917969 86.613281 "/>
<path style=" stroke:none;fill-rule:nonzero;fill:rgb(0%,0%,0%);fill-opacity:1;" d="M 21.917969 86.613281 C 21.820312 82.042969 20.847656 81.75 19.972656 79.808594 L 25.027344 79.808594 C 24.152344 81.75 23.179688 82.042969 23.082031 86.613281 C 23.082031 86.71875 23.171875 86.808594 23.277344 86.808594 C 23.386719 86.808594 23.472656 86.71875 23.472656 86.613281 C 23.804688 84.804688 25.308594 83.441406 27.140625 83.285156 C 28.972656 83.128906 30.683594 84.214844 31.320312 85.941406 C 31.953125 87.667969 31.359375 89.605469 29.859375 90.675781 C 28.363281 91.746094 26.335938 91.683594 24.910156 90.519531 C 24.832031 90.464844 24.726562 90.46875 24.65625 90.539062 C 24.589844 90.609375 24.582031 90.714844 24.636719 90.792969 C 26.433594 91.769531 27.339844 93.84375 26.832031 95.824219 C 26.328125 97.804688 24.542969 99.191406 22.5 99.191406 C 20.453125 99.191406 18.671875 97.804688 18.164062 95.824219 C 17.660156 93.84375 18.566406 91.769531 20.359375 90.792969 C 20.417969 90.714844 20.410156 90.609375 20.34375 90.539062 C 20.273438 90.46875 20.164062 90.464844 20.089844 90.519531 C 18.660156 91.683594 16.636719 91.746094 15.136719 90.675781 C 13.640625 89.605469 13.042969 87.667969 13.679688 85.941406 C 14.316406 84.214844 16.027344 83.128906 17.859375 83.285156 C 19.691406 83.441406 21.195312 84.804688 21.527344 86.613281 C 21.527344 86.71875 21.613281 86.808594 21.722656 86.808594 C 21.828125 86.808594 21.917969 86.71875 21.917969 86.613281 Z M 21.917969 86.613281 "/>
</g>
</svg>
