<?xml version="1.0" encoding="UTF-8"?>
<svg xmlns="http://www.w3.org/2000/svg" xmlns:xlink="http://www.w3.org/1999/xlink" width="80px" height="px" viewBox="0 0 80 112" version="1.1">
<defs>
<clipPath id="clip1">
  <path d="M 2 4 L 12 4 L 12 14.667969 L 2 14.667969 Z M 2 4 "/>
</clipPath>
<clipPath id="clip2">
  <path d="M 68 97.332031 L 78 97.332031 L 78 108 L 68 108 Z M 68 97.332031 "/>
</clipPath>
</defs>
<g id="surface1">
<path style="fill-rule:nonzero;fill:rgb(100%,100%,100%);fill-opacity:1;stroke-width:1;stroke-linecap:butt;stroke-linejoin:miter;stroke:rgb(0%,0%,0%);stroke-opacity:1;stroke-miterlimit:4;" d="M -107.496094 -167.496094 L 107.496094 -167.496094 C 114.128906 -167.496094 119.496094 -162.128906 119.496094 -155.496094 L 119.496094 155.496094 C 119.496094 162.128906 114.128906 167.496094 107.496094 167.496094 L -107.496094 167.496094 C -114.128906 167.496094 -119.496094 162.128906 -119.496094 155.496094 L -119.496094 -155.496094 C -119.496094 -162.128906 -114.128906 -167.496094 -107.496094 -167.496094 Z M -107.496094 -167.496094 " transform="matrix(0.333333,0,0,0.333333,40,56)"/>
<g clip-path="url(#clip1)" clip-rule="nonzero">
<path style="fill:none;stroke-width:80;stroke-linecap:square;stroke-linejoin:miter;stroke:rgb(0%,0%,0%);stroke-opacity:1;stroke-miterlimit:1.5;" d="M -249.829102 99.853516 C -249.829102 -38.208008 -138.134766 -149.902344 -0.0732422 -149.902344 C 137.988281 -149.902344 250.048828 -38.208008 250.048828 99.853516 L 250.048828 210.083008 C 250.048828 348.144531 137.988281 459.838867 -0.0732422 459.838867 C -138.134766 459.838867 -249.829102 348.144531 -249.829102 210.083008 L -249.829102 -209.960937 C -249.829102 -348.022461 -138.134766 -460.083008 -0.0732422 -460.083008 C 150.073242 -460.083008 180.102539 -400.024414 199.87793 -375.12207 " transform="matrix(0.0106667,0,0,0.0106667,7.2,9.333333)"/>
</g>
<path style=" stroke:none;fill-rule:nonzero;fill:rgb(0%,0%,0%);fill-opacity:1;" d="M 7.199219 17.078125 C 7.945312 18.9375 9.839844 20.050781 9.839844 22.171875 C 9.839844 22.785156 9.339844 23.285156 8.722656 23.285156 C 8.109375 23.285156 7.609375 22.785156 7.609375 22.171875 C 7.609375 22.128906 7.574219 22.097656 7.535156 22.097656 C 7.492188 22.097656 7.460938 22.128906 7.460938 22.171875 C 7.460938 23.65625 7.832031 23.769531 8.167969 24.511719 L 6.234375 24.511719 C 6.566406 23.769531 6.941406 23.65625 6.941406 22.171875 C 6.941406 22.128906 6.90625 22.097656 6.867188 22.097656 C 6.824219 22.097656 6.792969 22.128906 6.792969 22.171875 C 6.792969 22.785156 6.292969 23.285156 5.675781 23.285156 C 5.058594 23.285156 4.558594 22.785156 4.558594 22.171875 C 4.558594 20.050781 6.457031 18.9375 7.199219 17.078125 Z M 7.199219 17.078125 "/>
<path style=" stroke:none;fill-rule:nonzero;fill:rgb(0%,0%,0%);fill-opacity:1;" d="M 22.5 12.777344 C 24.445312 17.636719 29.402344 20.554688 29.402344 26.097656 C 29.402344 27.707031 28.097656 29.011719 26.484375 29.011719 C 24.875 29.011719 23.570312 27.707031 23.570312 26.097656 C 23.570312 25.988281 23.480469 25.902344 23.375 25.902344 C 23.265625 25.902344 23.179688 25.988281 23.179688 26.097656 C 23.179688 29.984375 24.152344 30.277344 25.027344 32.222656 L 19.972656 32.222656 C 20.847656 30.277344 21.820312 29.984375 21.820312 26.097656 C 21.820312 25.988281 21.730469 25.902344 21.625 25.902344 C 21.515625 25.902344 21.429688 25.988281 21.429688 26.097656 C 21.429688 27.707031 20.125 29.011719 18.511719 29.011719 C 16.902344 29.011719 15.597656 27.707031 15.597656 26.097656 C 15.597656 20.554688 20.554688 17.636719 22.5 12.777344 Z M 22.5 12.777344 "/>
<path style=" stroke:none;fill-rule:nonzero;fill:rgb(0%,0%,0%);fill-opacity:1;" d="M 57.5 12.777344 C 59.445312 17.636719 64.402344 20.554688 64.402344 26.097656 C 64.402344 27.707031 63.097656 29.011719 61.488281 29.011719 C 59.875 29.011719 58.570312 27.707031 58.570312 26.097656 C 58.570312 25.988281 58.484375 25.902344 58.375 25.902344 C 58.269531 25.902344 58.179688 25.988281 58.179688 26.097656 C 58.179688 29.984375 59.152344 30.277344 60.027344 32.222656 L 54.972656 32.222656 C 55.847656 30.277344 56.820312 29.984375 56.820312 26.097656 C 56.820312 25.988281 56.734375 25.902344 56.625 25.902344 C 56.519531 25.902344 56.429688 25.988281 56.429688 26.097656 C 56.429688 27.707031 55.125 29.011719 53.515625 29.011719 C 51.902344 29.011719 50.597656 27.707031 50.597656 26.097656 C 50.597656 20.554688 55.554688 17.636719 57.5 12.777344 Z M 57.5 12.777344 "/>
<path style=" stroke:none;fill-rule:nonzero;fill:rgb(0%,0%,0%);fill-opacity:1;" d="M 22.5 46.277344 C 24.445312 51.140625 29.402344 54.054688 29.402344 59.597656 C 29.402344 61.207031 28.097656 62.515625 26.484375 62.515625 C 24.875 62.515625 23.570312 61.207031 23.570312 59.597656 C 23.570312 59.488281 23.480469 59.402344 23.375 59.402344 C 23.265625 59.402344 23.179688 59.488281 23.179688 59.597656 C 23.179688 63.484375 24.152344 63.777344 25.027344 65.722656 L 19.972656 65.722656 C 20.847656 63.777344 21.820312 63.484375 21.820312 59.597656 C 21.820312 59.488281 21.730469 59.402344 21.625 59.402344 C 21.515625 59.402344 21.429688 59.488281 21.429688 59.597656 C 21.429688 61.207031 20.125 62.515625 18.511719 62.515625 C 16.902344 62.515625 15.597656 61.207031 15.597656 59.597656 C 15.597656 54.054688 20.554688 51.140625 22.5 46.277344 Z M 22.5 46.277344 "/>
<path style=" stroke:none;fill-rule:nonzero;fill:rgb(0%,0%,0%);fill-opacity:1;" d="M 57.5 46.277344 C 59.445312 51.140625 64.402344 54.054688 64.402344 59.597656 C 64.402344 61.207031 63.097656 62.515625 61.488281 62.515625 C 59.875 62.515625 58.570312 61.207031 58.570312 59.597656 C 58.570312 59.488281 58.484375 59.402344 58.375 59.402344 C 58.269531 59.402344 58.179688 59.488281 58.179688 59.597656 C 58.179688 63.484375 59.152344 63.777344 60.027344 65.722656 L 54.972656 65.722656 C 55.847656 63.777344 56.820312 63.484375 56.820312 59.597656 C 56.820312 59.488281 56.734375 59.402344 56.625 59.402344 C 56.519531 59.402344 56.429688 59.488281 56.429688 59.597656 C 56.429688 61.207031 55.125 62.515625 53.515625 62.515625 C 51.902344 62.515625 50.597656 61.207031 50.597656 59.597656 C 50.597656 54.054688 55.554688 51.140625 57.5 46.277344 Z M 57.5 46.277344 "/>
<g clip-path="url(#clip2)" clip-rule="nonzero">
<path style="fill:none;stroke-width:80;stroke-linecap:square;stroke-linejoin:miter;stroke:rgb(0%,0%,0%);stroke-opacity:1;stroke-miterlimit:1.5;" d="M -249.829102 99.853516 C -249.829102 -38.208008 -138.134766 -149.902344 -0.0732422 -149.902344 C 137.988281 -149.902344 250.048828 -38.208008 250.048828 99.853516 L 250.048828 210.083008 C 250.048828 348.144531 137.988281 459.838867 -0.0732422 459.838867 C -138.134766 459.838867 -249.829102 348.144531 -249.829102 210.083008 L -249.829102 -209.960937 C -249.829102 -348.022461 -138.134766 -460.083008 -0.0732422 -460.083008 C 150.073242 -460.083008 180.102539 -400.024414 199.87793 -375.12207 " transform="matrix(-0.0106667,0.000000000000000001,-0.000000000000000001,-0.0106667,72.8,102.666667)"/>
</g>
<path style=" stroke:none;fill-rule:nonzero;fill:rgb(0%,0%,0%);fill-opacity:1;" d="M 72.800781 94.921875 C 72.054688 93.0625 70.160156 91.949219 70.160156 89.828125 C 70.160156 89.214844 70.660156 88.714844 71.277344 88.714844 C 71.890625 88.714844 72.390625 89.214844 72.390625 89.828125 C 72.390625 89.871094 72.425781 89.902344 72.464844 89.902344 C 72.507812 89.902344 72.539062 89.871094 72.539062 89.828125 C 72.539062 88.34375 72.167969 88.230469 71.832031 87.488281 L 73.765625 87.488281 C 73.433594 88.230469 73.058594 88.34375 73.058594 89.828125 C 73.058594 89.871094 73.09375 89.902344 73.132812 89.902344 C 73.175781 89.902344 73.207031 89.871094 73.207031 89.828125 C 73.207031 89.214844 73.707031 88.714844 74.324219 88.714844 C 74.941406 88.714844 75.441406 89.214844 75.441406 89.828125 C 75.441406 91.949219 73.542969 93.0625 72.800781 94.921875 Z M 72.800781 94.921875 "/>
<path style=" stroke:none;fill-rule:nonzero;fill:rgb(0%,0%,0%);fill-opacity:1;" d="M 57.5 99.222656 C 55.554688 94.363281 50.597656 91.445312 50.597656 85.902344 C 50.597656 84.292969 51.902344 82.988281 53.515625 82.988281 C 55.125 82.988281 56.429688 84.292969 56.429688 85.902344 C 56.429688 86.011719 56.519531 86.097656 56.625 86.097656 C 56.734375 86.097656 56.820312 86.011719 56.820312 85.902344 C 56.820312 82.015625 55.847656 81.722656 54.972656 79.777344 L 60.027344 79.777344 C 59.152344 81.722656 58.179688 82.015625 58.179688 85.902344 C 58.179688 86.011719 58.269531 86.097656 58.375 86.097656 C 58.484375 86.097656 58.570312 86.011719 58.570312 85.902344 C 58.570312 84.292969 59.875 82.988281 61.488281 82.988281 C 63.097656 82.988281 64.402344 84.292969 64.402344 85.902344 C 64.402344 91.445312 59.445312 94.363281 57.5 99.222656 Z M 57.5 99.222656 "/>
<path style=" stroke:none;fill-rule:nonzero;fill:rgb(0%,0%,0%);fill-opacity:1;" d="M 22.5 99.222656 C 20.554688 94.363281 15.597656 91.445312 15.597656 85.902344 C 15.597656 84.292969 16.902344 82.988281 18.511719 82.988281 C 20.125 82.988281 21.429688 84.292969 21.429688 85.902344 C 21.429688 86.011719 21.515625 86.097656 21.625 86.097656 C 21.730469 86.097656 21.820312 86.011719 21.820312 85.902344 C 21.820312 82.015625 20.847656 81.722656 19.972656 79.777344 L 25.027344 79.777344 C 24.152344 81.722656 23.179688 82.015625 23.179688 85.902344 C 23.179688 86.011719 23.265625 86.097656 23.375 86.097656 C 23.480469 86.097656 23.570312 86.011719 23.570312 85.902344 C 23.570312 84.292969 24.875 82.988281 26.484375 82.988281 C 28.097656 82.988281 29.402344 84.292969 29.402344 85.902344 C 29.402344 91.445312 24.445312 94.363281 22.5 99.222656 Z M 22.5 99.222656 "/>
</g>
</svg>
