<?xml version="1.0" encoding="UTF-8"?>
<svg xmlns="http://www.w3.org/2000/svg" xmlns:xlink="http://www.w3.org/1999/xlink" width="80px" height="px" viewBox="0 0 80 112" version="1.1">
<defs>
<clipPath id="clip1">
  <path d="M 2 4 L 12 4 L 12 14.667969 L 2 14.667969 Z M 2 4 "/>
</clipPath>
<clipPath id="clip2">
  <path d="M 68 97.332031 L 78 97.332031 L 78 108 L 68 108 Z M 68 97.332031 "/>
</clipPath>
</defs>
<g id="surface1">
<path style="fill-rule:nonzero;fill:rgb(100%,100%,100%);fill-opacity:1;stroke-width:1;stroke-linecap:butt;stroke-linejoin:miter;stroke:rgb(0%,0%,0%);stroke-opacity:1;stroke-miterlimit:4;" d="M -107.496094 -167.496094 L 107.496094 -167.496094 C 114.128906 -167.496094 119.496094 -162.128906 119.496094 -155.496094 L 119.496094 155.496094 C 119.496094 162.128906 114.128906 167.496094 107.496094 167.496094 L -107.496094 167.496094 C -114.128906 167.496094 -119.496094 162.128906 -119.496094 155.496094 L -119.496094 -155.496094 C -119.496094 -162.128906 -114.128906 -167.496094 -107.496094 -167.496094 Z M -107.496094 -167.496094 " transform="matrix(0.333333,0,0,0.333333,40,56)"/>
<path style=" stroke:none;fill-rule:nonzero;fill:rgb(0%,0%,0%);fill-opacity:1;" d="M 40.582031 58.917969 C 40.679688 63.484375 41.652344 63.777344 42.527344 65.722656 L 37.472656 65.722656 C 38.347656 63.777344 39.320312 63.484375 39.417969 58.917969 C 39.417969 58.808594 39.328125 58.722656 39.222656 58.722656 C 39.113281 58.722656 39.027344 58.808594 39.027344 58.917969 C 38.695312 60.726562 37.191406 62.089844 35.359375 62.246094 C 33.527344 62.402344 31.816406 61.3125 31.179688 59.585938 C 30.542969 57.859375 31.140625 55.921875 32.636719 54.851562 C 34.136719 53.785156 36.160156 53.847656 37.589844 55.007812 C 37.667969 55.066406 37.773438 55.058594 37.84375 54.992188 C 37.910156 54.921875 37.917969 54.8125 37.859375 54.734375 C 36.066406 53.757812 35.160156 51.6875 35.667969 49.703125 C 36.171875 47.722656 37.957031 46.335938 40 46.335938 C 42.042969 46.335938 43.828125 47.722656 44.332031 49.703125 C 44.839844 51.6875 43.933594 53.757812 42.140625 54.734375 C 42.082031 54.8125 42.089844 54.921875 42.15625 54.992188 C 42.226562 55.058594 42.332031 55.066406 42.410156 55.007812 C 43.839844 53.847656 45.863281 53.785156 47.363281 54.851562 C 48.859375 55.921875 49.457031 57.859375 48.820312 59.585938 C 48.183594 61.3125 46.472656 62.402344 44.640625 62.246094 C 42.808594 62.089844 41.304688 60.726562 40.972656 58.917969 C 40.972656 58.808594 40.886719 58.722656 40.777344 58.722656 C 40.671875 58.722656 40.582031 58.808594 40.582031 58.917969 Z M 40.582031 58.917969 "/>
<g clip-path="url(#clip1)" clip-rule="nonzero">
<path style="fill:none;stroke-width:80;stroke-linecap:square;stroke-linejoin:miter;stroke:rgb(0%,0%,0%);stroke-opacity:1;stroke-miterlimit:1.5;" d="M -269.970703 459.838867 L -109.936523 459.838867 M -200.024414 449.951172 L -0.0732422 -460.083008 L 199.87793 449.951172 M 110.15625 459.838867 L 269.824219 459.838867 M -119.824219 129.882813 L 120.043945 129.882813 " transform="matrix(0.0106667,0,0,0.0106667,7.2,9.333333)"/>
</g>
<path style=" stroke:none;fill-rule:nonzero;fill:rgb(0%,0%,0%);fill-opacity:1;" d="M 7.421875 21.910156 C 7.460938 23.65625 7.832031 23.769531 8.167969 24.511719 L 6.234375 24.511719 C 6.566406 23.769531 6.941406 23.65625 6.976562 21.910156 C 6.976562 21.871094 6.945312 21.835938 6.902344 21.835938 C 6.863281 21.835938 6.828125 21.871094 6.828125 21.910156 C 6.699219 22.601562 6.125 23.121094 5.425781 23.183594 C 4.726562 23.242188 4.070312 22.828125 3.828125 22.167969 C 3.585938 21.507812 3.8125 20.765625 4.386719 20.355469 C 4.957031 19.949219 5.734375 19.972656 6.277344 20.414062 C 6.308594 20.4375 6.347656 20.433594 6.375 20.410156 C 6.402344 20.382812 6.40625 20.339844 6.382812 20.3125 C 5.695312 19.9375 5.351562 19.144531 5.542969 18.386719 C 5.734375 17.628906 6.417969 17.097656 7.199219 17.097656 C 7.980469 17.097656 8.664062 17.628906 8.859375 18.386719 C 9.050781 19.144531 8.703125 19.9375 8.019531 20.3125 C 7.996094 20.339844 8 20.382812 8.023438 20.410156 C 8.050781 20.433594 8.09375 20.4375 8.121094 20.414062 C 8.667969 19.972656 9.441406 19.949219 10.015625 20.355469 C 10.585938 20.765625 10.816406 21.507812 10.574219 22.167969 C 10.328125 22.828125 9.675781 23.242188 8.976562 23.183594 C 8.273438 23.121094 7.699219 22.601562 7.570312 21.910156 C 7.570312 21.871094 7.539062 21.835938 7.496094 21.835938 C 7.457031 21.835938 7.421875 21.871094 7.421875 21.910156 Z M 7.421875 21.910156 "/>
<g clip-path="url(#clip2)" clip-rule="nonzero">
<path style="fill:none;stroke-width:80;stroke-linecap:square;stroke-linejoin:miter;stroke:rgb(0%,0%,0%);stroke-opacity:1;stroke-miterlimit:1.5;" d="M -269.970703 459.838867 L -109.936523 459.838867 M -200.024414 449.951172 L -0.0732422 -460.083008 L 199.87793 449.951172 M 110.15625 459.838867 L 269.824219 459.838867 M -119.824219 129.882813 L 120.043945 129.882813 " transform="matrix(-0.0106667,0.000000000000000001,-0.000000000000000001,-0.0106667,72.8,102.666667)"/>
</g>
<path style=" stroke:none;fill-rule:nonzero;fill:rgb(0%,0%,0%);fill-opacity:1;" d="M 72.578125 90.089844 C 72.539062 88.34375 72.167969 88.230469 71.832031 87.488281 L 73.765625 87.488281 C 73.433594 88.230469 73.058594 88.34375 73.023438 90.089844 C 73.023438 90.128906 73.054688 90.164062 73.097656 90.164062 C 73.136719 90.164062 73.171875 90.128906 73.171875 90.089844 C 73.300781 89.398438 73.875 88.878906 74.574219 88.816406 C 75.273438 88.757812 75.929688 89.171875 76.171875 89.832031 C 76.414062 90.492188 76.1875 91.234375 75.613281 91.644531 C 75.042969 92.050781 74.265625 92.027344 73.722656 91.585938 C 73.691406 91.5625 73.652344 91.566406 73.625 91.589844 C 73.597656 91.617188 73.59375 91.660156 73.617188 91.6875 C 74.304688 92.0625 74.648438 92.855469 74.457031 93.613281 C 74.265625 94.371094 73.582031 94.902344 72.800781 94.902344 C 72.019531 94.902344 71.335938 94.371094 71.140625 93.613281 C 70.949219 92.855469 71.296875 92.0625 71.980469 91.6875 C 72.003906 91.660156 72 91.617188 71.976562 91.589844 C 71.949219 91.566406 71.90625 91.5625 71.878906 91.585938 C 71.332031 92.027344 70.558594 92.050781 69.984375 91.644531 C 69.414062 91.234375 69.183594 90.492188 69.425781 89.832031 C 69.671875 89.171875 70.324219 88.757812 71.023438 88.816406 C 71.726562 88.878906 72.300781 89.398438 72.429688 90.089844 C 72.429688 90.128906 72.460938 90.164062 72.503906 90.164062 C 72.542969 90.164062 72.578125 90.128906 72.578125 90.089844 Z M 72.578125 90.089844 "/>
</g>
</svg>
