<?xml version="1.0" encoding="UTF-8"?>
<svg xmlns="http://www.w3.org/2000/svg" xmlns:xlink="http://www.w3.org/1999/xlink" width="80px" height="px" viewBox="0 0 80 112" version="1.1">
<defs>
<clipPath id="clip1">
  <path d="M 16 28.535156 L 64 28.535156 L 64 83.46875 L 16 83.46875 Z M 16 28.535156 "/>
</clipPath>
<clipPath id="clip2">
  <path d="M 2 4 L 12 4 L 12 14.667969 L 2 14.667969 Z M 2 4 "/>
</clipPath>
<clipPath id="clip3">
  <path d="M 68 97.332031 L 78 97.332031 L 78 108 L 68 108 Z M 68 97.332031 "/>
</clipPath>
</defs>
<g id="surface1">
<path style="fill-rule:nonzero;fill:rgb(100%,100%,100%);fill-opacity:1;stroke-width:1;stroke-linecap:butt;stroke-linejoin:miter;stroke:rgb(0%,0%,0%);stroke-opacity:1;stroke-miterlimit:4;" d="M -107.496094 -167.496094 L 107.496094 -167.496094 C 114.128906 -167.496094 119.496094 -162.128906 119.496094 -155.496094 L 119.496094 155.496094 C 119.496094 162.128906 114.128906 167.496094 107.496094 167.496094 L -107.496094 167.496094 C -114.128906 167.496094 -119.496094 162.128906 -119.496094 155.496094 L -119.496094 -155.496094 C -119.496094 -162.128906 -114.128906 -167.496094 -107.496094 -167.496094 Z M -107.496094 -167.496094 " transform="matrix(0.333333,0,0,0.333333,40,56)"/>
<g clip-path="url(#clip1)" clip-rule="nonzero">
<path style="fill:none;stroke-width:80;stroke-linecap:square;stroke-linejoin:miter;stroke:rgb(0%,0%,0%);stroke-opacity:1;stroke-miterlimit:1.5;" d="M -259.974211 99.979141 C 40.034322 99.979141 -40.034322 460.003603 259.974211 460.003603 M -174.999052 0 L -174.999052 -285.004551 C -174.999052 -381.641573 -96.637022 -460.003603 0 -460.003603 C 96.637022 -460.003603 174.999052 -381.641573 174.999052 -285.004551 L 174.999052 285.004551 C 174.999052 381.641573 96.637022 460.003603 0 460.003603 C -96.637022 460.003603 -174.999052 381.641573 -174.999052 285.004551 Z M -174.999052 0 " transform="matrix(0.0549333,0,0,0.0549333,40,56)"/>
</g>
<g clip-path="url(#clip2)" clip-rule="nonzero">
<path style="fill:none;stroke-width:80;stroke-linecap:square;stroke-linejoin:miter;stroke:rgb(0%,0%,0%);stroke-opacity:1;stroke-miterlimit:1.5;" d="M -260.083008 99.853516 C 39.84375 99.853516 -39.990234 459.838867 259.936523 459.838867 M -175.12207 -0.12207 L -175.12207 -285.03418 C -175.12207 -381.713867 -96.75293 -460.083008 -0.0732422 -460.083008 C 96.606445 -460.083008 174.975586 -381.713867 174.975586 -285.03418 L 174.975586 285.15625 C 174.975586 381.469727 96.606445 459.838867 -0.0732422 459.838867 C -96.75293 459.838867 -175.12207 381.469727 -175.12207 285.15625 Z M -175.12207 -0.12207 " transform="matrix(0.0106667,0,0,0.0106667,7.2,9.333333)"/>
</g>
<path style=" stroke:none;fill-rule:nonzero;fill:rgb(0%,0%,0%);fill-opacity:1;" d="M 7.199219 17.078125 C 7.945312 18.9375 9.839844 20.050781 9.839844 22.171875 C 9.839844 22.785156 9.339844 23.285156 8.722656 23.285156 C 8.109375 23.285156 7.609375 22.785156 7.609375 22.171875 C 7.609375 22.128906 7.574219 22.097656 7.535156 22.097656 C 7.492188 22.097656 7.460938 22.128906 7.460938 22.171875 C 7.460938 23.65625 7.832031 23.769531 8.167969 24.511719 L 6.234375 24.511719 C 6.566406 23.769531 6.941406 23.65625 6.941406 22.171875 C 6.941406 22.128906 6.90625 22.097656 6.867188 22.097656 C 6.824219 22.097656 6.792969 22.128906 6.792969 22.171875 C 6.792969 22.785156 6.292969 23.285156 5.675781 23.285156 C 5.058594 23.285156 4.558594 22.785156 4.558594 22.171875 C 4.558594 20.050781 6.457031 18.9375 7.199219 17.078125 Z M 7.199219 17.078125 "/>
<g clip-path="url(#clip3)" clip-rule="nonzero">
<path style="fill:none;stroke-width:80;stroke-linecap:square;stroke-linejoin:miter;stroke:rgb(0%,0%,0%);stroke-opacity:1;stroke-miterlimit:1.5;" d="M -260.083008 99.853516 C 39.84375 99.853516 -39.990234 459.838867 259.936523 459.838867 M -175.12207 -0.12207 L -175.12207 -285.03418 C -175.12207 -381.713867 -96.75293 -460.083008 -0.0732422 -460.083008 C 96.606445 -460.083008 174.975586 -381.713867 174.975586 -285.03418 L 174.975586 285.15625 C 174.975586 381.469727 96.606445 459.838867 -0.0732422 459.838867 C -96.75293 459.838867 -175.12207 381.469727 -175.12207 285.15625 Z M -175.12207 -0.12207 " transform="matrix(-0.0106667,0.000000000000000001,-0.000000000000000001,-0.0106667,72.8,102.666667)"/>
</g>
<path style=" stroke:none;fill-rule:nonzero;fill:rgb(0%,0%,0%);fill-opacity:1;" d="M 72.800781 94.921875 C 72.054688 93.0625 70.160156 91.949219 70.160156 89.828125 C 70.160156 89.214844 70.660156 88.714844 71.277344 88.714844 C 71.890625 88.714844 72.390625 89.214844 72.390625 89.828125 C 72.390625 89.871094 72.425781 89.902344 72.464844 89.902344 C 72.507812 89.902344 72.539062 89.871094 72.539062 89.828125 C 72.539062 88.34375 72.167969 88.230469 71.832031 87.488281 L 73.765625 87.488281 C 73.433594 88.230469 73.058594 88.34375 73.058594 89.828125 C 73.058594 89.871094 73.09375 89.902344 73.132812 89.902344 C 73.175781 89.902344 73.207031 89.871094 73.207031 89.828125 C 73.207031 89.214844 73.707031 88.714844 74.324219 88.714844 C 74.941406 88.714844 75.441406 89.214844 75.441406 89.828125 C 75.441406 91.949219 73.542969 93.0625 72.800781 94.921875 Z M 72.800781 94.921875 "/>
</g>
</svg>
