<svg width="80" height="112" xmlns="http://www.w3.org/2000/svg" version="1.1" class="svg-icon">

 <g>
  <title>Layer 1</title>
  <path fill-opacity="0.4" stroke="null" id="svg_1" fill="#000000" d="m54.32079,34.27371l0,-3.73421c0,-2.03684 1.21614,-3.39473 3.04035,-3.39473s3.04035,1.35789 3.04035,3.39473l0,13.57893c0,2.03684 -1.21614,3.39473 -3.04035,3.39473l-12.16139,0c-1.82421,0 -3.04035,-1.35789 -3.04035,-3.39473s1.21614,-3.39473 3.04035,-3.39473l6.68876,0c-3.34438,-3.05526 -7.60087,-5.0921 -12.16139,-5.0921c-10.33718,0 -18.85016,9.50525 -18.85016,21.04734c0,11.54209 8.51297,21.04734 18.85016,21.04734c8.20894,0 15.20174,-5.77105 17.93805,-14.25788c0.60807,-1.69737 2.12824,-2.71579 3.95245,-2.03684c1.52017,0.67895 2.43228,2.37631 1.82421,4.41315c-3.34438,11.20262 -12.76946,19.0105 -23.71471,19.0105c-13.68156,0 -24.93085,-12.56051 -24.93085,-27.83681c0,-15.61577 11.24929,-28.17628 24.93085,-28.17628c5.16859,0 10.33718,2.03684 14.59367,5.43157z"/>
 </g>
</svg>