<?xml version="1.0" encoding="UTF-8"?>
<svg xmlns="http://www.w3.org/2000/svg" xmlns:xlink="http://www.w3.org/1999/xlink" width="80px" height="px" viewBox="0 0 80 112" version="1.1">
<defs>
<clipPath id="clip1">
  <path d="M 2 4 L 12 4 L 12 14.667969 L 2 14.667969 Z M 2 4 "/>
</clipPath>
<clipPath id="clip2">
  <path d="M 3 16.332031 L 11 16.332031 L 11 25 L 3 25 Z M 3 16.332031 "/>
</clipPath>
<clipPath id="clip3">
  <path d="M 68 97.332031 L 78 97.332031 L 78 108 L 68 108 Z M 68 97.332031 "/>
</clipPath>
<clipPath id="clip4">
  <path d="M 69 87 L 77 87 L 77 95.667969 L 69 95.667969 Z M 69 87 "/>
</clipPath>
</defs>
<g id="surface1">
<path style="fill-rule:nonzero;fill:rgb(100%,100%,100%);fill-opacity:1;stroke-width:1;stroke-linecap:butt;stroke-linejoin:miter;stroke:rgb(0%,0%,0%);stroke-opacity:1;stroke-miterlimit:4;" d="M -107.496094 -167.496094 L 107.496094 -167.496094 C 114.128906 -167.496094 119.496094 -162.128906 119.496094 -155.496094 L 119.496094 155.496094 C 119.496094 162.128906 114.128906 167.496094 107.496094 167.496094 L -107.496094 167.496094 C -114.128906 167.496094 -119.496094 162.128906 -119.496094 155.496094 L -119.496094 -155.496094 C -119.496094 -162.128906 -114.128906 -167.496094 -107.496094 -167.496094 Z M -107.496094 -167.496094 " transform="matrix(0.333333,0,0,0.333333,40,56)"/>
<g clip-path="url(#clip1)" clip-rule="nonzero">
<path style="fill:none;stroke-width:80;stroke-linecap:square;stroke-linejoin:miter;stroke:rgb(0%,0%,0%);stroke-opacity:1;stroke-miterlimit:1.5;" d="M -224.926758 -224.975586 C -245.068359 -264.892578 -200.024414 -460.083008 -0.0732422 -460.083008 C 199.87793 -460.083008 225.146484 -324.951172 225.146484 -224.975586 C 225.146484 -25.024414 -224.926758 159.912109 -224.926758 459.838867 L 225.146484 459.838867 L 225.146484 300.170898 " transform="matrix(0.0106667,0,0,0.0106667,7.2,9.333333)"/>
</g>
<path style=" stroke:none;fill-rule:nonzero;fill:rgb(0%,0%,0%);fill-opacity:1;" d="M 4.226562 20.792969 C 4.597656 20.792969 7.199219 17.449219 7.199219 17.078125 C 7.199219 17.449219 9.800781 20.792969 10.175781 20.792969 C 9.800781 20.792969 7.199219 24.140625 7.199219 24.511719 C 7.199219 24.140625 4.597656 20.792969 4.226562 20.792969 Z M 4.226562 20.792969 "/>
<g clip-path="url(#clip2)" clip-rule="nonzero">
<path style="fill:none;stroke-width:100;stroke-linecap:round;stroke-linejoin:round;stroke:rgb(0%,0%,0%);stroke-opacity:1;stroke-miterlimit:4;" d="M -399.901939 -0.250756 C -349.995797 -0.250756 -0.12748 -449.931357 -0.12748 -499.837499 C -0.12748 -449.931357 349.740838 -0.250756 400.172308 -0.250756 C 349.740838 -0.250756 -0.12748 449.955172 -0.12748 499.861313 C -0.12748 449.955172 -349.995797 -0.250756 -399.901939 -0.250756 Z M -399.901939 -0.250756 " transform="matrix(0.00743583,0,0,0.00743583,7.200167,20.794833)"/>
</g>
<path style=" stroke:none;fill-rule:nonzero;fill:rgb(0%,0%,0%);fill-opacity:1;" d="M 4.226562 20.792969 C 4.597656 20.792969 7.199219 17.449219 7.199219 17.078125 C 7.199219 17.449219 9.800781 20.792969 10.175781 20.792969 C 9.800781 20.792969 7.199219 24.140625 7.199219 24.511719 C 7.199219 24.140625 4.597656 20.792969 4.226562 20.792969 Z M 4.226562 20.792969 "/>
<path style=" stroke:none;fill-rule:nonzero;fill:rgb(0%,0%,0%);fill-opacity:1;" d="M 32.222656 22.5 C 33.195312 22.5 40 13.75 40 12.777344 C 40 13.75 46.804688 22.5 47.777344 22.5 C 46.804688 22.5 40 31.25 40 32.222656 C 40 31.25 33.195312 22.5 32.222656 22.5 Z M 32.222656 22.5 "/>
<g clip-path="url(#clip3)" clip-rule="nonzero">
<path style="fill:none;stroke-width:80;stroke-linecap:square;stroke-linejoin:miter;stroke:rgb(0%,0%,0%);stroke-opacity:1;stroke-miterlimit:1.5;" d="M -224.926758 -224.975586 C -245.068359 -264.892578 -200.024414 -460.083008 -0.0732422 -460.083008 C 199.87793 -460.083008 225.146484 -324.951172 225.146484 -224.975586 C 225.146484 -25.024414 -224.926758 159.912109 -224.926758 459.838867 L 225.146484 459.838867 L 225.146484 300.170898 " transform="matrix(-0.0106667,0.000000000000000001,-0.000000000000000001,-0.0106667,72.8,102.666667)"/>
</g>
<path style=" stroke:none;fill-rule:nonzero;fill:rgb(0%,0%,0%);fill-opacity:1;" d="M 75.773438 91.207031 C 75.402344 91.207031 72.800781 94.550781 72.800781 94.921875 C 72.800781 94.550781 70.199219 91.207031 69.824219 91.207031 C 70.199219 91.207031 72.800781 87.859375 72.800781 87.488281 C 72.800781 87.859375 75.402344 91.207031 75.773438 91.207031 Z M 75.773438 91.207031 "/>
<g clip-path="url(#clip4)" clip-rule="nonzero">
<path style="fill:none;stroke-width:100;stroke-linecap:round;stroke-linejoin:round;stroke:rgb(0%,0%,0%);stroke-opacity:1;stroke-miterlimit:4;" d="M -399.901939 -0.250756 C -349.995797 -0.250756 -0.12748 -449.931357 -0.12748 -499.837499 C -0.12748 -449.931357 349.740838 -0.250756 400.172308 -0.250756 C 349.740838 -0.250756 -0.12748 449.955172 -0.12748 499.861313 C -0.12748 449.955172 -349.995797 -0.250756 -399.901939 -0.250756 Z M -399.901939 -0.250756 " transform="matrix(-0.00743583,0.000000000000000001,-0.000000000000000001,-0.00743583,72.799833,91.205167)"/>
</g>
<path style=" stroke:none;fill-rule:nonzero;fill:rgb(0%,0%,0%);fill-opacity:1;" d="M 75.773438 91.207031 C 75.402344 91.207031 72.800781 94.550781 72.800781 94.921875 C 72.800781 94.550781 70.199219 91.207031 69.824219 91.207031 C 70.199219 91.207031 72.800781 87.859375 72.800781 87.488281 C 72.800781 87.859375 75.402344 91.207031 75.773438 91.207031 Z M 75.773438 91.207031 "/>
<path style=" stroke:none;fill-rule:nonzero;fill:rgb(0%,0%,0%);fill-opacity:1;" d="M 47.777344 89.5 C 46.804688 89.5 40 98.25 40 99.222656 C 40 98.25 33.195312 89.5 32.222656 89.5 C 33.195312 89.5 40 80.75 40 79.777344 C 40 80.75 46.804688 89.5 47.777344 89.5 Z M 47.777344 89.5 "/>
</g>
</svg>
