<?xml version="1.0" encoding="UTF-8"?>
<svg xmlns="http://www.w3.org/2000/svg" xmlns:xlink="http://www.w3.org/1999/xlink" width="80px" height="px" viewBox="0 0 80 112" version="1.1">
<defs>
<clipPath id="clip1">
  <path d="M 2 4 L 12 4 L 12 14.667969 L 2 14.667969 Z M 2 4 "/>
</clipPath>
<clipPath id="clip2">
  <path d="M 68 97.332031 L 78 97.332031 L 78 108 L 68 108 Z M 68 97.332031 "/>
</clipPath>
</defs>
<g id="surface1">
<path style="fill-rule:nonzero;fill:rgb(100%,100%,100%);fill-opacity:1;stroke-width:1;stroke-linecap:butt;stroke-linejoin:miter;stroke:rgb(0%,0%,0%);stroke-opacity:1;stroke-miterlimit:4;" d="M -107.496094 -167.496094 L 107.496094 -167.496094 C 114.128906 -167.496094 119.496094 -162.128906 119.496094 -155.496094 L 119.496094 155.496094 C 119.496094 162.128906 114.128906 167.496094 107.496094 167.496094 L -107.496094 167.496094 C -114.128906 167.496094 -119.496094 162.128906 -119.496094 155.496094 L -119.496094 -155.496094 C -119.496094 -162.128906 -114.128906 -167.496094 -107.496094 -167.496094 Z M -107.496094 -167.496094 " transform="matrix(0.333333,0,0,0.333333,40,56)"/>
<g clip-path="url(#clip1)" clip-rule="nonzero">
<path style="fill:none;stroke-width:80;stroke-linecap:square;stroke-linejoin:miter;stroke:rgb(0%,0%,0%);stroke-opacity:1;stroke-miterlimit:1.5;" d="M -1.171875 -49.926758 C -113.964844 -50.65918 -205.151367 -142.578125 -205.151367 -255.371094 C -204.785156 -368.530273 -112.866211 -460.083008 -0.0732422 -460.083008 C 113.085938 -460.083008 204.638672 -368.530273 205.004883 -255.371094 C 205.371094 -142.578125 114.18457 -50.65918 1.025391 -49.926758 L -1.171875 -49.926758 C -141.796875 -49.560547 -255.322266 64.697266 -254.956055 205.322266 C -254.589844 346.313477 -140.698242 459.838867 -0.0732422 459.838867 C 140.551758 459.838867 254.80957 346.313477 255.175781 205.322266 C 255.175781 64.697266 141.650391 -49.560547 1.025391 -49.926758 Z M -1.171875 -49.926758 " transform="matrix(0.0106667,0,0,0.0106667,7.2,9.333333)"/>
</g>
<path style=" stroke:none;fill-rule:nonzero;fill:rgb(0%,0%,0%);fill-opacity:1;" d="M 7.421875 21.910156 C 7.460938 23.65625 7.832031 23.769531 8.167969 24.511719 L 6.234375 24.511719 C 6.566406 23.769531 6.941406 23.65625 6.976562 21.910156 C 6.976562 21.871094 6.945312 21.835938 6.902344 21.835938 C 6.863281 21.835938 6.828125 21.871094 6.828125 21.910156 C 6.699219 22.601562 6.125 23.121094 5.425781 23.183594 C 4.726562 23.242188 4.070312 22.828125 3.828125 22.167969 C 3.585938 21.507812 3.8125 20.765625 4.386719 20.355469 C 4.957031 19.949219 5.734375 19.972656 6.277344 20.414062 C 6.308594 20.4375 6.347656 20.433594 6.375 20.410156 C 6.402344 20.382812 6.40625 20.339844 6.382812 20.3125 C 5.695312 19.9375 5.351562 19.144531 5.542969 18.386719 C 5.734375 17.628906 6.417969 17.097656 7.199219 17.097656 C 7.980469 17.097656 8.664062 17.628906 8.859375 18.386719 C 9.050781 19.144531 8.703125 19.9375 8.019531 20.3125 C 7.996094 20.339844 8 20.382812 8.023438 20.410156 C 8.050781 20.433594 8.09375 20.4375 8.121094 20.414062 C 8.667969 19.972656 9.441406 19.949219 10.015625 20.355469 C 10.585938 20.765625 10.816406 21.507812 10.574219 22.167969 C 10.328125 22.828125 9.675781 23.242188 8.976562 23.183594 C 8.273438 23.121094 7.699219 22.601562 7.570312 21.910156 C 7.570312 21.871094 7.539062 21.835938 7.496094 21.835938 C 7.457031 21.835938 7.421875 21.871094 7.421875 21.910156 Z M 7.421875 21.910156 "/>
<path style=" stroke:none;fill-rule:nonzero;fill:rgb(0%,0%,0%);fill-opacity:1;" d="M 23.082031 25.386719 C 23.179688 29.957031 24.152344 30.25 25.027344 32.191406 L 19.972656 32.191406 C 20.847656 30.25 21.820312 29.957031 21.917969 25.386719 C 21.917969 25.28125 21.828125 25.191406 21.722656 25.191406 C 21.613281 25.191406 21.527344 25.28125 21.527344 25.386719 C 21.195312 27.195312 19.691406 28.558594 17.859375 28.714844 C 16.027344 28.871094 14.316406 27.785156 13.679688 26.058594 C 13.042969 24.332031 13.640625 22.394531 15.136719 21.324219 C 16.636719 20.253906 18.660156 20.316406 20.089844 21.480469 C 20.164062 21.535156 20.273438 21.53125 20.34375 21.460938 C 20.410156 21.390625 20.417969 21.285156 20.359375 21.207031 C 18.566406 20.230469 17.660156 18.15625 18.164062 16.175781 C 18.671875 14.195312 20.453125 12.808594 22.5 12.808594 C 24.542969 12.808594 26.328125 14.195312 26.832031 16.175781 C 27.339844 18.15625 26.433594 20.230469 24.636719 21.207031 C 24.582031 21.285156 24.589844 21.390625 24.65625 21.460938 C 24.726562 21.53125 24.832031 21.535156 24.910156 21.480469 C 26.335938 20.316406 28.363281 20.253906 29.859375 21.324219 C 31.359375 22.394531 31.953125 24.332031 31.320312 26.058594 C 30.683594 27.785156 28.972656 28.871094 27.140625 28.714844 C 25.308594 28.558594 23.804688 27.195312 23.472656 25.386719 C 23.472656 25.28125 23.386719 25.191406 23.277344 25.191406 C 23.171875 25.191406 23.082031 25.28125 23.082031 25.386719 Z M 23.082031 25.386719 "/>
<path style=" stroke:none;fill-rule:nonzero;fill:rgb(0%,0%,0%);fill-opacity:1;" d="M 58.082031 25.386719 C 58.179688 29.957031 59.152344 30.25 60.027344 32.191406 L 54.972656 32.191406 C 55.847656 30.25 56.820312 29.957031 56.917969 25.386719 C 56.917969 25.28125 56.828125 25.191406 56.722656 25.191406 C 56.613281 25.191406 56.527344 25.28125 56.527344 25.386719 C 56.195312 27.195312 54.691406 28.558594 52.859375 28.714844 C 51.027344 28.871094 49.316406 27.785156 48.679688 26.058594 C 48.046875 24.332031 48.640625 22.394531 50.140625 21.324219 C 51.636719 20.253906 53.664062 20.316406 55.089844 21.480469 C 55.167969 21.535156 55.273438 21.53125 55.34375 21.460938 C 55.410156 21.390625 55.417969 21.285156 55.363281 21.207031 C 53.566406 20.230469 52.660156 18.15625 53.167969 16.175781 C 53.671875 14.195312 55.457031 12.808594 57.5 12.808594 C 59.546875 12.808594 61.328125 14.195312 61.835938 16.175781 C 62.339844 18.15625 61.433594 20.230469 59.640625 21.207031 C 59.582031 21.285156 59.589844 21.390625 59.65625 21.460938 C 59.726562 21.53125 59.835938 21.535156 59.910156 21.480469 C 61.339844 20.316406 63.363281 20.253906 64.863281 21.324219 C 66.359375 22.394531 66.957031 24.332031 66.320312 26.058594 C 65.683594 27.785156 63.972656 28.871094 62.140625 28.714844 C 60.308594 28.558594 58.804688 27.195312 58.472656 25.386719 C 58.472656 25.28125 58.386719 25.191406 58.277344 25.191406 C 58.171875 25.191406 58.082031 25.28125 58.082031 25.386719 Z M 58.082031 25.386719 "/>
<path style=" stroke:none;fill-rule:nonzero;fill:rgb(0%,0%,0%);fill-opacity:1;" d="M 40.582031 42.152344 C 40.679688 46.722656 41.652344 47.011719 42.527344 48.957031 L 37.472656 48.957031 C 38.347656 47.011719 39.320312 46.722656 39.417969 42.152344 C 39.417969 42.042969 39.328125 41.957031 39.222656 41.957031 C 39.113281 41.957031 39.027344 42.042969 39.027344 42.152344 C 38.695312 43.960938 37.191406 45.324219 35.359375 45.480469 C 33.527344 45.636719 31.816406 44.546875 31.179688 42.820312 C 30.542969 41.097656 31.140625 39.15625 32.636719 38.089844 C 34.136719 37.019531 36.160156 37.082031 37.589844 38.242188 C 37.667969 38.300781 37.773438 38.292969 37.84375 38.226562 C 37.910156 38.15625 37.917969 38.050781 37.859375 37.972656 C 36.066406 36.992188 35.160156 34.921875 35.667969 32.941406 C 36.171875 30.957031 37.957031 29.570312 40 29.570312 C 42.042969 29.570312 43.828125 30.957031 44.332031 32.941406 C 44.839844 34.921875 43.933594 36.992188 42.140625 37.972656 C 42.082031 38.050781 42.089844 38.15625 42.15625 38.226562 C 42.226562 38.292969 42.332031 38.300781 42.410156 38.242188 C 43.839844 37.082031 45.863281 37.019531 47.363281 38.089844 C 48.859375 39.15625 49.457031 41.097656 48.820312 42.820312 C 48.183594 44.546875 46.472656 45.636719 44.640625 45.480469 C 42.808594 45.324219 41.304688 43.960938 40.972656 42.152344 C 40.972656 42.042969 40.886719 41.957031 40.777344 41.957031 C 40.671875 41.957031 40.582031 42.042969 40.582031 42.152344 Z M 40.582031 42.152344 "/>
<path style=" stroke:none;fill-rule:nonzero;fill:rgb(0%,0%,0%);fill-opacity:1;" d="M 23.082031 58.917969 C 23.179688 63.484375 24.152344 63.777344 25.027344 65.722656 L 19.972656 65.722656 C 20.847656 63.777344 21.820312 63.484375 21.917969 58.917969 C 21.917969 58.808594 21.828125 58.722656 21.722656 58.722656 C 21.613281 58.722656 21.527344 58.808594 21.527344 58.917969 C 21.195312 60.726562 19.691406 62.089844 17.859375 62.246094 C 16.027344 62.402344 14.316406 61.3125 13.679688 59.585938 C 13.042969 57.859375 13.640625 55.921875 15.136719 54.851562 C 16.636719 53.785156 18.660156 53.847656 20.089844 55.007812 C 20.164062 55.066406 20.273438 55.058594 20.34375 54.992188 C 20.410156 54.921875 20.417969 54.8125 20.359375 54.734375 C 18.566406 53.757812 17.660156 51.6875 18.164062 49.703125 C 18.671875 47.722656 20.453125 46.335938 22.5 46.335938 C 24.542969 46.335938 26.328125 47.722656 26.832031 49.703125 C 27.339844 51.6875 26.433594 53.757812 24.636719 54.734375 C 24.582031 54.8125 24.589844 54.921875 24.65625 54.992188 C 24.726562 55.058594 24.832031 55.066406 24.910156 55.007812 C 26.335938 53.847656 28.363281 53.785156 29.859375 54.851562 C 31.359375 55.921875 31.953125 57.859375 31.320312 59.585938 C 30.683594 61.3125 28.972656 62.402344 27.140625 62.246094 C 25.308594 62.089844 23.804688 60.726562 23.472656 58.917969 C 23.472656 58.808594 23.386719 58.722656 23.277344 58.722656 C 23.171875 58.722656 23.082031 58.808594 23.082031 58.917969 Z M 23.082031 58.917969 "/>
<path style=" stroke:none;fill-rule:nonzero;fill:rgb(0%,0%,0%);fill-opacity:1;" d="M 58.082031 58.917969 C 58.179688 63.484375 59.152344 63.777344 60.027344 65.722656 L 54.972656 65.722656 C 55.847656 63.777344 56.820312 63.484375 56.917969 58.917969 C 56.917969 58.808594 56.828125 58.722656 56.722656 58.722656 C 56.613281 58.722656 56.527344 58.808594 56.527344 58.917969 C 56.195312 60.726562 54.691406 62.089844 52.859375 62.246094 C 51.027344 62.402344 49.316406 61.3125 48.679688 59.585938 C 48.046875 57.859375 48.640625 55.921875 50.140625 54.851562 C 51.636719 53.785156 53.664062 53.847656 55.089844 55.007812 C 55.167969 55.066406 55.273438 55.058594 55.34375 54.992188 C 55.410156 54.921875 55.417969 54.8125 55.363281 54.734375 C 53.566406 53.757812 52.660156 51.6875 53.167969 49.703125 C 53.671875 47.722656 55.457031 46.335938 57.5 46.335938 C 59.546875 46.335938 61.328125 47.722656 61.835938 49.703125 C 62.339844 51.6875 61.433594 53.757812 59.640625 54.734375 C 59.582031 54.8125 59.589844 54.921875 59.65625 54.992188 C 59.726562 55.058594 59.835938 55.066406 59.910156 55.007812 C 61.339844 53.847656 63.363281 53.785156 64.863281 54.851562 C 66.359375 55.921875 66.957031 57.859375 66.320312 59.585938 C 65.683594 61.3125 63.972656 62.402344 62.140625 62.246094 C 60.308594 62.089844 58.804688 60.726562 58.472656 58.917969 C 58.472656 58.808594 58.386719 58.722656 58.277344 58.722656 C 58.171875 58.722656 58.082031 58.808594 58.082031 58.917969 Z M 58.082031 58.917969 "/>
<g clip-path="url(#clip2)" clip-rule="nonzero">
<path style="fill:none;stroke-width:80;stroke-linecap:square;stroke-linejoin:miter;stroke:rgb(0%,0%,0%);stroke-opacity:1;stroke-miterlimit:1.5;" d="M -1.171875 -49.926758 C -113.964844 -50.65918 -205.151367 -142.578125 -205.151367 -255.371094 C -204.785156 -368.530273 -112.866211 -460.083008 -0.0732422 -460.083008 C 113.085938 -460.083008 204.638672 -368.530273 205.004883 -255.371094 C 205.371094 -142.578125 114.18457 -50.65918 1.025391 -49.926758 L -1.171875 -49.926758 C -141.796875 -49.560547 -255.322266 64.697266 -254.956055 205.322266 C -254.589844 346.313477 -140.698242 459.838867 -0.0732422 459.838867 C 140.551758 459.838867 254.80957 346.313477 255.175781 205.322266 C 255.175781 64.697266 141.650391 -49.560547 1.025391 -49.926758 Z M -1.171875 -49.926758 " transform="matrix(-0.0106667,0.000000000000000001,-0.000000000000000001,-0.0106667,72.8,102.666667)"/>
</g>
<path style=" stroke:none;fill-rule:nonzero;fill:rgb(0%,0%,0%);fill-opacity:1;" d="M 72.578125 90.089844 C 72.539062 88.34375 72.167969 88.230469 71.832031 87.488281 L 73.765625 87.488281 C 73.433594 88.230469 73.058594 88.34375 73.023438 90.089844 C 73.023438 90.128906 73.054688 90.164062 73.097656 90.164062 C 73.136719 90.164062 73.171875 90.128906 73.171875 90.089844 C 73.300781 89.398438 73.875 88.878906 74.574219 88.816406 C 75.273438 88.757812 75.929688 89.171875 76.171875 89.832031 C 76.414062 90.492188 76.1875 91.234375 75.613281 91.644531 C 75.042969 92.050781 74.265625 92.027344 73.722656 91.585938 C 73.691406 91.5625 73.652344 91.566406 73.625 91.589844 C 73.597656 91.617188 73.59375 91.660156 73.617188 91.6875 C 74.304688 92.0625 74.648438 92.855469 74.457031 93.613281 C 74.265625 94.371094 73.582031 94.902344 72.800781 94.902344 C 72.019531 94.902344 71.335938 94.371094 71.140625 93.613281 C 70.949219 92.855469 71.296875 92.0625 71.980469 91.6875 C 72.003906 91.660156 72 91.617188 71.976562 91.589844 C 71.949219 91.566406 71.90625 91.5625 71.878906 91.585938 C 71.332031 92.027344 70.558594 92.050781 69.984375 91.644531 C 69.414062 91.234375 69.183594 90.492188 69.425781 89.832031 C 69.671875 89.171875 70.324219 88.757812 71.023438 88.816406 C 71.726562 88.878906 72.300781 89.398438 72.429688 90.089844 C 72.429688 90.128906 72.460938 90.164062 72.503906 90.164062 C 72.542969 90.164062 72.578125 90.128906 72.578125 90.089844 Z M 72.578125 90.089844 "/>
<path style=" stroke:none;fill-rule:nonzero;fill:rgb(0%,0%,0%);fill-opacity:1;" d="M 56.917969 86.613281 C 56.820312 82.042969 55.847656 81.75 54.972656 79.808594 L 60.027344 79.808594 C 59.152344 81.75 58.179688 82.042969 58.082031 86.613281 C 58.082031 86.71875 58.171875 86.808594 58.277344 86.808594 C 58.386719 86.808594 58.472656 86.71875 58.472656 86.613281 C 58.804688 84.804688 60.308594 83.441406 62.140625 83.285156 C 63.972656 83.128906 65.683594 84.214844 66.320312 85.941406 C 66.957031 87.667969 66.359375 89.605469 64.863281 90.675781 C 63.363281 91.746094 61.339844 91.683594 59.910156 90.519531 C 59.835938 90.464844 59.726562 90.46875 59.65625 90.539062 C 59.589844 90.609375 59.582031 90.714844 59.640625 90.792969 C 61.433594 91.769531 62.339844 93.84375 61.835938 95.824219 C 61.328125 97.804688 59.546875 99.191406 57.5 99.191406 C 55.457031 99.191406 53.671875 97.804688 53.167969 95.824219 C 52.660156 93.84375 53.566406 91.769531 55.363281 90.792969 C 55.417969 90.714844 55.410156 90.609375 55.34375 90.539062 C 55.273438 90.46875 55.167969 90.464844 55.089844 90.519531 C 53.664062 91.683594 51.636719 91.746094 50.140625 90.675781 C 48.640625 89.605469 48.046875 87.667969 48.679688 85.941406 C 49.316406 84.214844 51.027344 83.128906 52.859375 83.285156 C 54.691406 83.441406 56.195312 84.804688 56.527344 86.613281 C 56.527344 86.71875 56.613281 86.808594 56.722656 86.808594 C 56.828125 86.808594 56.917969 86.71875 56.917969 86.613281 Z M 56.917969 86.613281 "/>
<path style=" stroke:none;fill-rule:nonzero;fill:rgb(0%,0%,0%);fill-opacity:1;" d="M 21.917969 86.613281 C 21.820312 82.042969 20.847656 81.75 19.972656 79.808594 L 25.027344 79.808594 C 24.152344 81.75 23.179688 82.042969 23.082031 86.613281 C 23.082031 86.71875 23.171875 86.808594 23.277344 86.808594 C 23.386719 86.808594 23.472656 86.71875 23.472656 86.613281 C 23.804688 84.804688 25.308594 83.441406 27.140625 83.285156 C 28.972656 83.128906 30.683594 84.214844 31.320312 85.941406 C 31.953125 87.667969 31.359375 89.605469 29.859375 90.675781 C 28.363281 91.746094 26.335938 91.683594 24.910156 90.519531 C 24.832031 90.464844 24.726562 90.46875 24.65625 90.539062 C 24.589844 90.609375 24.582031 90.714844 24.636719 90.792969 C 26.433594 91.769531 27.339844 93.84375 26.832031 95.824219 C 26.328125 97.804688 24.542969 99.191406 22.5 99.191406 C 20.453125 99.191406 18.671875 97.804688 18.164062 95.824219 C 17.660156 93.84375 18.566406 91.769531 20.359375 90.792969 C 20.417969 90.714844 20.410156 90.609375 20.34375 90.539062 C 20.273438 90.46875 20.164062 90.464844 20.089844 90.519531 C 18.660156 91.683594 16.636719 91.746094 15.136719 90.675781 C 13.640625 89.605469 13.042969 87.667969 13.679688 85.941406 C 14.316406 84.214844 16.027344 83.128906 17.859375 83.285156 C 19.691406 83.441406 21.195312 84.804688 21.527344 86.613281 C 21.527344 86.71875 21.613281 86.808594 21.722656 86.808594 C 21.828125 86.808594 21.917969 86.71875 21.917969 86.613281 Z M 21.917969 86.613281 "/>
<path style=" stroke:none;fill-rule:nonzero;fill:rgb(0%,0%,0%);fill-opacity:1;" d="M 39.417969 69.847656 C 39.320312 65.277344 38.347656 64.988281 37.472656 63.042969 L 42.527344 63.042969 C 41.652344 64.988281 40.679688 65.277344 40.582031 69.847656 C 40.582031 69.957031 40.671875 70.042969 40.777344 70.042969 C 40.886719 70.042969 40.972656 69.957031 40.972656 69.847656 C 41.304688 68.039062 42.808594 66.675781 44.640625 66.519531 C 46.472656 66.363281 48.183594 67.453125 48.820312 69.179688 C 49.457031 70.902344 48.859375 72.84375 47.363281 73.910156 C 45.863281 74.980469 43.839844 74.917969 42.410156 73.757812 C 42.332031 73.699219 42.226562 73.707031 42.15625 73.773438 C 42.089844 73.84375 42.082031 73.949219 42.140625 74.027344 C 43.933594 75.007812 44.839844 77.078125 44.332031 79.058594 C 43.828125 81.042969 42.042969 82.429688 40 82.429688 C 37.957031 82.429688 36.171875 81.042969 35.667969 79.058594 C 35.160156 77.078125 36.066406 75.007812 37.859375 74.027344 C 37.917969 73.949219 37.910156 73.84375 37.84375 73.773438 C 37.773438 73.707031 37.667969 73.699219 37.589844 73.757812 C 36.160156 74.917969 34.136719 74.980469 32.636719 73.910156 C 31.140625 72.84375 30.542969 70.902344 31.179688 69.179688 C 31.816406 67.453125 33.527344 66.363281 35.359375 66.519531 C 37.191406 66.675781 38.695312 68.039062 39.027344 69.847656 C 39.027344 69.957031 39.113281 70.042969 39.222656 70.042969 C 39.328125 70.042969 39.417969 69.957031 39.417969 69.847656 Z M 39.417969 69.847656 "/>
</g>
</svg>
