<?xml version="1.0" encoding="UTF-8"?>
<svg xmlns="http://www.w3.org/2000/svg" xmlns:xlink="http://www.w3.org/1999/xlink" width="80px" height="px" viewBox="0 0 80 112" version="1.1">
<defs>
<clipPath id="clip1">
  <path d="M 15 28.535156 L 65 28.535156 L 65 83.46875 L 15 83.46875 Z M 15 28.535156 "/>
</clipPath>
<clipPath id="clip2">
  <path d="M 2 4 L 12.535156 4 L 12.535156 14.667969 L 2 14.667969 Z M 2 4 "/>
</clipPath>
<clipPath id="clip3">
  <path d="M 3 16.332031 L 11 16.332031 L 11 25 L 3 25 Z M 3 16.332031 "/>
</clipPath>
<clipPath id="clip4">
  <path d="M 67.464844 97.332031 L 78 97.332031 L 78 108 L 67.464844 108 Z M 67.464844 97.332031 "/>
</clipPath>
<clipPath id="clip5">
  <path d="M 69 87 L 77 87 L 77 95.667969 L 69 95.667969 Z M 69 87 "/>
</clipPath>
</defs>
<g id="surface1">
<path style="fill-rule:nonzero;fill:rgb(100%,100%,100%);fill-opacity:1;stroke-width:1;stroke-linecap:butt;stroke-linejoin:miter;stroke:rgb(0%,0%,0%);stroke-opacity:1;stroke-miterlimit:4;" d="M -107.496094 -167.496094 L 107.496094 -167.496094 C 114.128906 -167.496094 119.496094 -162.128906 119.496094 -155.496094 L 119.496094 155.496094 C 119.496094 162.128906 114.128906 167.496094 107.496094 167.496094 L -107.496094 167.496094 C -114.128906 167.496094 -119.496094 162.128906 -119.496094 155.496094 L -119.496094 -155.496094 C -119.496094 -162.128906 -114.128906 -167.496094 -107.496094 -167.496094 Z M -107.496094 -167.496094 " transform="matrix(0.333333,0,0,0.333333,40,56)"/>
<g clip-path="url(#clip1)" clip-rule="nonzero">
<path style="fill:none;stroke-width:80;stroke-linecap:square;stroke-linejoin:miter;stroke:rgb(0%,0%,0%);stroke-opacity:1;stroke-miterlimit:1.5;" d="M -285.004551 -460.003603 L -84.975159 -460.003603 M -185.02541 -460.003603 L -185.02541 460.003603 M -285.004551 460.003603 L -84.975159 460.003603 M 84.975159 -460.003603 L 285.004551 -460.003603 M 185.02541 -440.021996 L -170.021427 155.017445 M 84.975159 460.003603 L 285.004551 460.003603 M 185.02541 440.021996 L -10.026358 -69.971177 " transform="matrix(0.0549333,0,0,0.0549333,40,56)"/>
</g>
<g clip-path="url(#clip2)" clip-rule="nonzero">
<path style="fill:none;stroke-width:80;stroke-linecap:square;stroke-linejoin:miter;stroke:rgb(0%,0%,0%);stroke-opacity:1;stroke-miterlimit:1.5;" d="M -284.985352 -460.083008 L -85.03418 -460.083008 M -185.009766 -460.083008 L -185.009766 459.838867 M -284.985352 459.838867 L -85.03418 459.838867 M 84.887695 -460.083008 L 284.838867 -460.083008 M 184.863281 -439.941406 L -169.995117 155.151367 M 84.887695 459.838867 L 284.838867 459.838867 M 184.863281 440.063477 L -9.960937 -70.068359 " transform="matrix(0.0106667,0,0,0.0106667,7.2,9.333333)"/>
</g>
<path style=" stroke:none;fill-rule:nonzero;fill:rgb(0%,0%,0%);fill-opacity:1;" d="M 7.199219 18.5625 C 7.199219 17.820312 7.945312 17.078125 8.6875 17.078125 C 9.429688 17.078125 10.175781 17.820312 10.175781 18.9375 C 10.175781 20.792969 7.199219 23.769531 7.199219 24.511719 C 7.199219 23.769531 4.226562 20.792969 4.226562 18.9375 C 4.226562 17.820312 4.96875 17.078125 5.714844 17.078125 C 6.457031 17.078125 7.199219 17.820312 7.199219 18.5625 Z M 7.199219 18.5625 "/>
<g clip-path="url(#clip3)" clip-rule="nonzero">
<path style="fill:none;stroke-width:100;stroke-linecap:round;stroke-linejoin:round;stroke:rgb(0%,0%,0%);stroke-opacity:1;stroke-miterlimit:4;" d="M -0.12748 -300.212933 C -0.12748 -400.025216 100.210131 -499.837499 200.022414 -499.837499 C 299.834697 -499.837499 400.172308 -400.025216 400.172308 -249.781464 C 400.172308 -0.250756 -0.12748 400.049031 -0.12748 499.861313 C -0.12748 400.049031 -399.901939 -0.250756 -399.901939 -249.781464 C -399.901939 -400.025216 -300.089656 -499.837499 -199.752045 -499.837499 C -99.939762 -499.837499 -0.12748 -400.025216 -0.12748 -300.212933 Z M -0.12748 -300.212933 " transform="matrix(0.00743583,0,0,0.00743583,7.200167,20.794833)"/>
</g>
<path style=" stroke:none;fill-rule:nonzero;fill:rgb(0%,0%,0%);fill-opacity:1;" d="M 7.199219 18.5625 C 7.199219 17.820312 7.945312 17.078125 8.6875 17.078125 C 9.429688 17.078125 10.175781 17.820312 10.175781 18.9375 C 10.175781 20.792969 7.199219 23.769531 7.199219 24.511719 C 7.199219 23.769531 4.226562 20.792969 4.226562 18.9375 C 4.226562 17.820312 4.96875 17.078125 5.714844 17.078125 C 6.457031 17.078125 7.199219 17.820312 7.199219 18.5625 Z M 7.199219 18.5625 "/>
<g clip-path="url(#clip4)" clip-rule="nonzero">
<path style="fill:none;stroke-width:80;stroke-linecap:square;stroke-linejoin:miter;stroke:rgb(0%,0%,0%);stroke-opacity:1;stroke-miterlimit:1.5;" d="M -284.985352 -460.083008 L -85.03418 -460.083008 M -185.009766 -460.083008 L -185.009766 459.838867 M -284.985352 459.838867 L -85.03418 459.838867 M 84.887695 -460.083008 L 284.838867 -460.083008 M 184.863281 -439.941406 L -169.995117 155.151367 M 84.887695 459.838867 L 284.838867 459.838867 M 184.863281 440.063477 L -9.960937 -70.068359 " transform="matrix(-0.0106667,0.000000000000000001,-0.000000000000000001,-0.0106667,72.8,102.666667)"/>
</g>
<path style=" stroke:none;fill-rule:nonzero;fill:rgb(0%,0%,0%);fill-opacity:1;" d="M 72.800781 93.4375 C 72.800781 94.179688 72.054688 94.921875 71.3125 94.921875 C 70.570312 94.921875 69.824219 94.179688 69.824219 93.0625 C 69.824219 91.207031 72.800781 88.230469 72.800781 87.488281 C 72.800781 88.230469 75.773438 91.207031 75.773438 93.0625 C 75.773438 94.179688 75.03125 94.921875 74.285156 94.921875 C 73.542969 94.921875 72.800781 94.179688 72.800781 93.4375 Z M 72.800781 93.4375 "/>
<g clip-path="url(#clip5)" clip-rule="nonzero">
<path style="fill:none;stroke-width:100;stroke-linecap:round;stroke-linejoin:round;stroke:rgb(0%,0%,0%);stroke-opacity:1;stroke-miterlimit:4;" d="M -0.12748 -300.212933 C -0.12748 -400.025216 100.210131 -499.837499 200.022414 -499.837499 C 299.834697 -499.837499 400.172308 -400.025216 400.172308 -249.781464 C 400.172308 -0.250756 -0.12748 400.049031 -0.12748 499.861313 C -0.12748 400.049031 -399.901939 -0.250756 -399.901939 -249.781464 C -399.901939 -400.025216 -300.089656 -499.837499 -199.752045 -499.837499 C -99.939762 -499.837499 -0.12748 -400.025216 -0.12748 -300.212933 Z M -0.12748 -300.212933 " transform="matrix(-0.00743583,0.000000000000000001,-0.000000000000000001,-0.00743583,72.799833,91.205167)"/>
</g>
<path style=" stroke:none;fill-rule:nonzero;fill:rgb(0%,0%,0%);fill-opacity:1;" d="M 72.800781 93.4375 C 72.800781 94.179688 72.054688 94.921875 71.3125 94.921875 C 70.570312 94.921875 69.824219 94.179688 69.824219 93.0625 C 69.824219 91.207031 72.800781 88.230469 72.800781 87.488281 C 72.800781 88.230469 75.773438 91.207031 75.773438 93.0625 C 75.773438 94.179688 75.03125 94.921875 74.285156 94.921875 C 73.542969 94.921875 72.800781 94.179688 72.800781 93.4375 Z M 72.800781 93.4375 "/>
</g>
</svg>
